<?xml version="1.0" standalone="no"?>
<!DOCTYPE svg PUBLIC "-//W3C//DTD SVG 1.1//EN" "http://www.w3.org/Graphics/SVG/1.1/DTD/svg11.dtd" >
<svg>
<metadata>
Created by FontForge 20110222 at Tue Nov 12 04:05:30 2013
 By Orthosie Webmaster
Copyright 1995 Image Club Graphics, Inc.
</metadata>
<defs>
<font id="LemonadeICG" horiz-adv-x="494" >
  <font-face 
    font-family="Lemonade ICG"
    font-weight="400"
    font-stretch="normal"
    units-per-em="1000"
    panose-1="0 0 4 0 0 0 0 0 0 0"
    ascent="800"
    descent="-200"
    x-height="468"
    cap-height="714"
    bbox="-125 -323 934 974"
    underline-thickness="20"
    underline-position="-123"
    unicode-range="U+0020-F002"
  />
<missing-glyph horiz-adv-x="500" 
d="M63 0v800h375v-800h-375zM125 63h250v675h-250v-675z" />
    <glyph glyph-name=".notdef" horiz-adv-x="500" 
d="M63 0v800h375v-800h-375zM125 63h250v675h-250v-675z" />
    <glyph glyph-name=".null" horiz-adv-x="0" 
 />
    <glyph glyph-name="nonmarkingreturn" horiz-adv-x="210" 
 />
    <glyph glyph-name="space" unicode=" " horiz-adv-x="210" 
 />
    <glyph glyph-name="exclam" unicode="!" horiz-adv-x="205" 
d="M134 714q14 -1 23 -9q6 -5 6 -13q0 -5 -4.5 -20.5t-5.5 -29.5q-16 -188 -53 -364q-5 -23 -5 -51q0 -13 1.5 -34t1.5 -28q0 -32 -22 -33q-9 -1 -18 29q-3 9 14.5 154t24.5 174q13 61 19 161q4 64 18 64zM74 63q10 0 23 -9t17 -22q3 -12 -11.5 -24t-38.5 -12q-15 0 -20 6
q-3 3 -7 20q-1 5 -1 9q0 32 38 32z" />
    <glyph glyph-name="quotedbl" unicode="&#x22;" horiz-adv-x="274" 
d="M74 684q22 8 28 -8q-2 -59 -4 -101q-5 -101 -11 -101q-9 3 -30 3v118q1 85 17 89zM179 684q22 8 28 -8q-2 -59 -4 -101q-5 -101 -10 -101q-10 3 -31 3v118q1 85 17 89z" />
    <glyph glyph-name="numbersign" unicode="#" horiz-adv-x="375" 
d="M188 628q30 0 39 11q6 6 3 35q-4 37 -3 47q2 22 18 17q13 -4 16 -29v-38q1 -19 5 -22q7 -3 22 0q20 5 23 5q24 0 23 -17q-2 -15 -27 -16q-30 -2 -32 -4q-8 -8 -8 -45v-37q46 9 46 -2q0 -23 -2 -25q-6 -5 -21.5 -9t-22.5 -12q-1 -1 -1 -6t2.5 -26.5t2.5 -33.5
q0 -34 -18 -34q-21 0 -21 21q-1 10 1.5 29t2.5 25q0 14 -2 15.5t-7 1.5q-4 0 -18 -3.5t-22 -3.5q-31 0 -38 -11q-4 -7 -5 -22q-1 -10 0 -27q1 -20 1 -25q0 -34 -13 -35q-21 -3 -23 34q0 18 -1 68q-27 -9 -35 -9q-18 0 -24 3t-9 16q-5 23 21 23q1 0 15 3t25.5 3.5t13.5 16.5
q0 -3 0 23v45q-3 2 -7 2t-13.5 -5t-13.5 -7q-50 -13 -48 -13q-16 0 -16 19q0 20 21 24q-1 0 35 0q19 0 35 14q6 4 3 36q-4 49 -4 50q0 16 17 21q21 6 21 -44q0 -5 -2.5 -17.5t-2.5 -18.5q0 -19 17 -19q5 0 15 4t16 4zM147 571q0 -6 -1 -26q-1 -16 0 -24q1 -11 6.5 -14.5
t13.5 -2.5l13 2q32 0 42 10.5t10 41.5q0 40 -12 43q-8 2 -36 -2.5t-35 -12.5q-1 -1 -1 -15z" />
    <glyph glyph-name="dollar" unicode="$" horiz-adv-x="489" 
d="M304 809q21 0 21 -21q0 2 -3.5 -30t-3.5 -55q8 -8 34.5 -9.5t36.5 -7.5q33 -18 50 -52q15 -30 15 -95q0 -45 -33 -78q-5 -10 -23 -22q-21 -4 -21 7q0 5 9 17.5t10 15.5l22 42t11 38q0 36 -22 68q-25 36 -59 36q-15 0 -28 -7q-4 -2 -14 -5l-18 -167q-5 -46 -12 -135
q0 -9 -3 -32l46 -48q38 -46 38 -113q0 -17 -2 -36q-8 -62 -62 -96l-70 -36q-2 -6 -15 -93q-10 -65 -25 -62q-6 0 -17.5 14t-11.5 21q0 -4 18.5 34.5t18.5 82.5q-4 7 -45 13q-46 8 -69 29q-36 33 -36 105q0 18 19.5 47t36.5 29q15 0 22 -25q1 -4 -4 -7q-11 -6 -14 -8
q-26 -20 -26 -42q0 -23 10 -47q11 -27 30 -37q26 -14 77 -14q6 13 23 132q1 8 11 65q8 38 8 58q-3 19 -34.5 33.5t-62.5 29.5q-34 20 -41 52q-8 37 -2 73q6 39 31 90q36 72 83 100q24 8 61 25q12 12 16 73q4 53 19 50zM274 263q-5 -31 -14 -85q-7 -32 -18 -102
q-1 -13 -2 -40q25 11 63 39q24 30 21 72q-4 74 -50 116zM176 589q-19 -22 -37 -70t-18 -77q0 -33 26 -62q18 -20 87 -43l19 150q7 56 18 161q-22 -9 -39 -19q-42 -22 -56 -40z" />
    <glyph glyph-name="percent" unicode="%" horiz-adv-x="530" 
d="M151 -13q12 85 44 191l54 178q14 50 33 143q24 118 36 170v2q0 56 19.5 62.5t31.5 0.5h-1q8 -4 8 -14q0 -7 -10 -38q-24 -76 -26 -84q-6 -22 -37 -166q-28 -94 -89 -306q-4 -15 -17 -99q-8 -58 -19 -58q-3 0 -5.5 2t-12 7.5t-9.5 8.5zM32 589q0 84 93 84q41 0 70 -38
t29 -87q0 -44 -21 -73q-26 -37 -79 -37q-40 0 -69 62q-23 51 -23 89zM305 164q0 83 94 83q41 0 70 -37.5t29 -86.5q0 -44 -21 -74q-27 -36 -79 -36q-40 0 -69 62q-24 50 -24 89zM147 472q47 16 47 76q0 14 -14 36q-12 2 -29 8q-6 4 -11 28q-5 18 -25 22q-47 0 -47 -57
q0 -41 17 -76q20 -40 48 -40q7 0 14 3zM421 46q46 17 46 77q0 14 -13 36q-12 2 -30 7q-5 5 -11 28q-4 19 -25 23q-46 0 -46 -57q0 -41 17 -77q19 -39 48 -39q7 0 14 2z" />
    <glyph glyph-name="ampersand" unicode="&#x26;" horiz-adv-x="511" 
d="M465 168q0 -15 -25 -27.5t-27 -25.5q-3 -9 35.5 -36.5t34.5 -45.5q-4 -22 -28 -22q-16 0 -31 20q-27 35 -29.5 38t-5.5 7.5t-7 4.5q-5 1 -10 -5q-7 -9 -9 -11l-72 -64q-39 -33 -84 -33q-69 0 -120.5 47.5t-53.5 116.5q-2 32 12.5 62t30.5 60q12 23 47 62q31 34 32 41
q1 14 -12 27q-20 20 -23 25q-47 84 -53 171q-4 64 40 95q37 27 96 23q129 -9 149 -82q6 -24 6 -39q0 -30 -33 -76q-15 -21 -65 -77q-37 -41 -51 -71q0 -2 25 -30q31 -35 39 -45q20 -25 66 -81q1 -2 21 -34q12 -20 24 -20q4 0 9.5 1.5t12.5 11t10.5 12.5t14.5 19q9 13 16 13
t14 -7q4 -5 4 -25zM254 471q22 27 44 55q24 32 24 56q0 12 -5 24q-9 21 -49 42.5t-78 21.5q-34 0 -53 -21q-25 -26 -31 -69q-6 -50 25 -122q29 -67 49 -67q2 0 3 1q24 23 71 79zM181 324q-12 0 -63 -80q-54 -84 -51 -115q6 -52 45.5 -86.5t94.5 -37.5q41 -2 95 49
q34 32 56 64q-36 45 -120 145q-15 20 -31 40.5t-26 20.5z" />
    <glyph glyph-name="quotesingle" unicode="'" horiz-adv-x="154" 
d="M74 684q22 8 28 -8q-2 -59 -4 -101q-5 -101 -11 -101q-9 3 -30 3v118q1 85 17 89z" />
    <glyph glyph-name="parenleft" unicode="(" horiz-adv-x="318" 
d="M198 -69q-13 0 -49 54q-41 62 -68 136q-35 95 -35 180q0 171 109 346q20 36 41 71q35 51 69 51q20 0 20 -3t-4 -17q-3 -10 -34 -40q-40 -37 -68.5 -80t-59.5 -134.5t-31 -136.5v-115q8 -79 68 -210q21 -29 41 -47q13 -12 17.5 -23t4.5 -18q0 -14 -21 -14z" />
    <glyph glyph-name="parenright" unicode=")" horiz-adv-x="318" 
d="M124 711q13 0 49 -55q41 -62 68 -136q35 -95 35 -180q0 -171 -109 -346q-20 -36 -41 -71q-35 -51 -69 -51q-20 0 -20 3t4 17q3 10 34 40q40 37 68.5 80t59.5 134.5t31 136.5v115q-8 79 -68 210q-21 29 -41 48q-13 11 -17.5 22t-4.5 18q0 15 21 15z" />
    <glyph glyph-name="asterisk" unicode="*" horiz-adv-x="325" 
d="M252 717q0 -11 -12 -26.5t-25 -31.5q-18 -22 -15 -25q3 -4 10 -4q4 0 21 4t28 4q23 0 27.5 -4.5t4.5 -16.5q0 -13 -29 -15q-22 -1 -43 -2q-28 -2 -34 -12q-7 -11 53 -57q29 -23 29 -33q0 -17 -26 -17q-15 0 -32 20q-2 3 -24 38q-15 26 -21 23t-15 -33q-12 -41 -22 -61
q-12 -23 -24 -23q-4 0 -8 2q-13 9 -8 31q7 25 33 61q23 31 22 33q-3 6 -17 6q-8 0 -33 -3.5t-38 -3.5q-26 0 -22 23q3 18 27 18q5 0 24.5 -3.5t29.5 -3.5q17 0 17 8q0 7 -27.5 29.5t-27.5 35.5q0 11 10 19t18 8q17 0 24 -21q21 -57 29 -57q6 0 21 33q20 42 24 47
q16 25 33 25q18 0 18 -15z" />
    <glyph glyph-name="plus" unicode="+" horiz-adv-x="470" 
d="M225 401q19 0 19 -26q0 -9 -3 -25.5t-3 -23t-2 -28.5q-1 -17 0 -28q2 -16 7.5 -28t17.5 -13q-7 0 16 2q20 0 53.5 8t40.5 8q2 0 15.5 4t19.5 4q11 0 13 -8q6 -21 -19 -34q-1 -1 -46 -8q-69 -10 -93 -10q-12 0 -21.5 -11.5t-12.5 -185.5q0 -22 -19 -22q-28 0 -28 35
q0 21 11.5 64t11.5 66q0 -2 3 26q2 13 -5 21t-17 8q-7 0 -19.5 -3.5t-19.5 -4.5q-16 -1 -42 -11.5t-38 -11.5q-21 -1 -21 13q0 5 2 11q5 14 31 18q62 8 71.5 10t27.5 2q9 0 15 4q11 8 13 18v22v37q-1 26 -1 39q0 33 2 41q4 21 20 21z" />
    <glyph glyph-name="comma" unicode="," horiz-adv-x="146" 
d="M76 76q19 -1 31 -24q9 -17 9 -29q0 -31 -11 -52q-15 -31 -37.5 -37.5t-27.5 -6.5q-9 0 -9 8q-2 12 11 16q19 7 23 10q14 12 14 22q0 5 -2 11q-1 3 -9 2l-9 -1q-26 9 -26 44q0 16 13 26.5t30 10.5z" />
    <glyph glyph-name="hyphen" unicode="-" horiz-adv-x="396" 
d="M326 287q43 0 40 -24q-2 -22 -28 -22q-8 0 -11.5 4t-21.5 6q-6 0 -66 -14q-67 -15 -173 -15q-12 0 -23.5 6t-11.5 14q0 9 14.5 19t33.5 10q14 0 28 -5.5t27 -5.5q37 0 107.5 13.5t84.5 13.5z" />
    <glyph glyph-name="hyphen" unicode="&#x2010;" horiz-adv-x="396" 
d="M326 287q43 0 40 -24q-2 -22 -28 -22q-8 0 -11.5 4t-21.5 6q-6 0 -66 -14q-67 -15 -173 -15q-12 0 -23.5 6t-11.5 14q0 9 14.5 19t33.5 10q14 0 28 -5.5t27 -5.5q37 0 107.5 13.5t84.5 13.5z" />
    <glyph glyph-name="period" unicode="." horiz-adv-x="126" 
d="M72 89q7 0 14 -13q10 -16 10 -38q0 -18 -12.5 -32t-27.5 -14q-8 0 -17.5 12.5t-9.5 27.5t14.5 36t28.5 21z" />
    <glyph glyph-name="slash" unicode="/" horiz-adv-x="318" 
d="M274 711q-13 -84 -45 -190l-54 -178q-20 -97 -75 -314q-3 -19 -5 -38q-3 -22 -15 -25q-3 -1 -25 -1h1q-10 0 -10 10q0 4 12 42q24 76 26 84q6 22 37 166q5 23 40 130.5t50 176.5q7 55 25 132l6 16q3 5 10 5q7 1 14.5 -5t7.5 -11z" />
    <glyph glyph-name="zero" unicode="0" 
d="M289 701q104 0 143 -118q26 -79 26 -232q0 -368 -164 -368q-153 0 -213 105q-42 75 -42 226q0 29 9 59q13 46 18 72q23 125 65 188q33 49 81 62q21 6 77 6zM137 551q-24 -55 -44 -138q-21 -89 -21 -140q0 -101 51 -175q57 -82 148 -82q72 0 110 56q22 31 41 104
q4 14 0 44q-24 1 -24 25q0 2 12 48t12 74q0 31 -10.5 80.5t-10.5 48.5q0 48 14 49q-47 124 -154 124q-39 0 -79 -47q-29 -34 -45 -71z" />
    <glyph glyph-name="one" unicode="1" 
d="M258 713q29 0 29 -26q0 -19 -11 -24q-7 -3 -8 -44q-1 -9 -1 -125q0 -21 6 -125q5 -90 3 -152q-2 -52 -9 -130q-11 -61 2 -64l67 4q45 3 45 -9q0 -23 -28 -23q-4 0 -33 2q-22 2 -37 0q-13 -2 -22.5 -11t-17.5 -9q-6 0 -14.5 5.5t-12.5 5.5q-7 0 -25 1h-32q-5 0 -17.5 -3.5
t-17.5 -3.5q-7 0 -8 7q-2 15 10 22.5t31 7.5l40 -4q30 -1 36 8q14 23 14 333q0 29 -4 70q-4 49 -5 67q-1 16 1 52q2 42 2 60q0 36 -5 62q-15 -2 -49 -6q-7 -1 -21.5 -6.5t-21.5 -5.5q-6 0 -11 3q-13 7 -5 24q4 6 14 6h15q51 8 66 16q5 5 10.5 10t24.5 5z" />
    <glyph glyph-name="two" unicode="2" 
d="M301 702q54 0 95 -41.5t41 -93.5q0 -34 -18.5 -91.5t-18.5 -73.5q0 -8 6 -15.5t6 -12.5q0 -15 -13.5 -25.5t-26 -21t-48.5 -57.5q-39 -51 -49 -62q-86 -92 -140 -156q-15 -18 -15 -22q0 -3 3 -5h14q-1 0 15 -2q8 -1 29 3q97 18 160 18q32 0 47.5 -3t15.5 -10q0 -9 -7 -14
q-10 -6 -33 -7q-16 -1 -48 1q-36 2 -47 2q-52 0 -106 -19q-18 -7 -31 -7q-7 0 -27 1h-29q-2 0 -13 -2q-7 -1 -10.5 2t-3.5 7q0 6 13 24t75 78q70 70 110 117q154 180 154 331q0 136 -109 136q-45 0 -96 -47t-51 -87q0 -13 6.5 -38.5t6.5 -40.5q0 -11 -9.5 -20.5t-20.5 -9.5
t-13 20q-1 9 -1 53q0 61 38 116q52 75 149 75z" />
    <glyph glyph-name="three" unicode="3" 
d="M289 699q56 0 99 -51q36 -44 36 -85q0 -152 -136 -227q124 -68 124 -161q0 -89 -58 -140q-53 -48 -138 -48q-73 0 -108 37q-28 29 -28 75q0 11 22 36t42 25q6 0 9.5 -5.5t0.5 -12.5q-4 -8 -23.5 -19.5t-23 -22t-3.5 -19.5q0 -28 30 -46t75 -20q50 -3 93 23q39 23 60 70
q18 39 18 80q0 33 -47.5 83t-85.5 50l-13 -2q-10 -1 -16 0q-7 2 -7 10q0 16 30 30q48 20 65 34q94 69 94 173q0 24 -23 56q-38 50 -111 50q-61 0 -92 -40q-23 -31 -23 -80q0 -37 0 -19q0 -11 -7 -11q-10 0 -17 14q-6 11 -6 22q0 40 37 83q49 58 131 58z" />
    <glyph glyph-name="four" unicode="4" 
d="M318 521q42 181 75 177q9 -1 9 -9q0 -2 -6 -22q-17 -44 -47 -133q-29 -100 -29 -127q0 -22 16 -22q8 0 23.5 11t23.5 11q5 0 8 -1.5t3 -21.5q0 -13 -16 -20q-2 -1 -35 -6q-22 -3 -28 -20.5t-6 -76.5q0 -18 -2.5 -57.5t-2.5 -58.5q0 -164 -1 -172q-5 -39 -22 -39
q-18 0 -18 42q0 18 3 42q4 30 5 41q6 92 8 168q1 37 4 104q-7 0 -88 -25q-24 -7 -47 -24q-19 -15 -27 -15q-7 0 -16 7q-12 10 -12 34q0 -7 6 45q29 229 33 299q2 43 16 43q20 0 19 -33q-1 -59 -14 -135q-20 -114 -22 -132q-9 -67 -9 -58q0 -19 12 -24q8 -4 25 8q23 18 28 20
q14 6 63 18q36 8 39 18q6 34 29 144z" />
    <glyph glyph-name="five" unicode="5" 
d="M422 718q8 2 15 2q15 0 17 -13q0 -10 -16 -20q-24 -14 -60 -17q-49 -3 -97 -6q-20 -1 -68 -6q-12 -4 -36 -171q-4 -29 -17 -86q-10 -42 -8 -53q14 -5 25 -4q20 2 24 1q27 0 82 -2q31 -2 69 -39t42 -76q1 -18 1 -36q0 -93 -39 -152q-48 -69 -141 -69q-13 0 -27 2
q-82 8 -86 9q-45 10 -48 46q-2 16 10 24q4 2 7 2q7 0 23 -15q20 -19 35 -27q27 -13 59 -9q21 0 58 1q62 7 98 88q30 67 25 122q-3 42 -45 73.5t-97 26.5q-3 -1 -41 -6q-30 -4 -45 -4q-26 0 -26 20t13 78q16 73 19 93q9 52 20 149q-18 13 -18 25q0 19 45 22h62q50 1 84 8
q45 9 82 19z" />
    <glyph glyph-name="six" unicode="6" 
d="M255 718q69 0 118 -52.5t49 -119.5q0 -29 -16 -30q-15 -1 -21 27.5t-12 58.5q-9 38 -31 58q-28 26 -82 26q-71 0 -116 -106q-38 -87 -38 -175q0 -12 1 -21l4 -28l16 13q51 42 101 42q105 0 159 -83q45 -69 45 -170q0 -90 -60 -147q-54 -52 -122 -52q-16 0 -31 4
q-60 15 -115 193q-11 35 -15 80q-3 34 -7 37t-16 0q-10 -3 -13 2q-2 2 -2 5q0 4 11 12.5t15 16t3 31.5q-3 40 -3 44v74q15 76 38 130q56 130 140 130zM113 307q6 -149 55 -245q37 -71 64 -71q70 0 121 48t51 121q0 62 -35 128q-48 89 -133 89q-38 0 -83 -29q-41 -26 -40 -41
z" />
    <glyph glyph-name="seven" unicode="7" 
d="M387 711q14 0 15 -1q5 -2 5 -12q0 -11 -80 -328q-85 -332 -93 -379q0 -10 -3 -30q-11 -26 -29 -22q-7 1 -9 8q-1 5 1 16.5t2 15.5q0 16 3 32q14 67 76 323q59 239 59 240l18 90q-29 7 -146 -41q-28 -9 -78 -25q-10 -4 -24.5 5.5t-14.5 18.5q0 12 105 30q56 9 118 36
q52 23 75 23z" />
    <glyph glyph-name="eight" unicode="8" 
d="M311 705q42 0 72 -39t30 -92q0 -49 -49 -121q-12 -19 -47 -73l59 -60q35 -36 43 -55q7 -15 12 -59q5 -55 -14 -89q-31 -57 -70 -86q-56 -42 -149 -48q-32 -2 -73 32q-48 41 -48 99q0 99 139 217q26 22 42 45q-105 120 -105 169q0 52 31 97q43 63 127 63zM207 479
q23 -31 77 -77q22 25 63 81q39 60 39 119q0 71 -99 71q-52 0 -84 -40q-27 -34 -27 -79q0 -32 31 -75zM108 118q32 -112 99 -112q46 0 113 43q72 46 72 87q0 9 3 27t3 26q0 25 9 31q-12 26 -24 46q-31 50 -60 66q-13 7 -44 16q-13 -7 -57 -43q-114 -106 -114 -186v-1z" />
    <glyph glyph-name="nine" unicode="9" 
d="M271 714q67 0 131 -96q8 -12 16 -39q11 -34 8 -56q-29 -274 -55 -326l-40 -88q-33 -72 -58 -107q-9 -15 -17 -29q-15 -23 -28 -23q-21 0 -21 22q0 13 19 37q18 21 35.5 44.5t52.5 95.5q44 94 55 154q17 85 17 90q0 11 -5 11q-4 0 -50.5 -26.5t-72.5 -26.5q-96 -3 -143 53
q-32 38 -32 90q0 29 13 68q15 49 43 83q55 69 132 69zM113 514q0 -68 22 -94q34 -41 101 -41q31 0 68.5 14t60.5 34q31 27 31 82q0 83 -54 131t-83 48q-43 0 -94 -59q-23 -26 -39 -66q-13 -33 -13 -49z" />
    <glyph glyph-name="colon" unicode=":" horiz-adv-x="132" 
d="M73 89q7 0 14 -13q10 -16 10 -38q0 -18 -12.5 -32t-27.5 -14q-8 0 -17 12.5t-9 27.5t14 36t28 21zM63 337q7 1 17 -11q12 -15 16 -37q3 -16 -6.5 -32.5t-24.5 -19.5q-8 -1 -19.5 10.5t-13.5 25.5q-3 14 7.5 38t23.5 26z" />
    <glyph glyph-name="semicolon" unicode=";" horiz-adv-x="128" 
d="M79 326q7 0 15 -13q9 -16 9 -38q0 -18 -12 -32.5t-28 -14.5q-8 0 -17 13t-9 27q0 16 14.5 37t27.5 21zM72 76q18 -1 31 -24q9 -17 9 -29q0 -31 -11 -52q-15 -31 -37.5 -37.5t-27.5 -6.5q-9 0 -10 8q-1 12 12 16q19 7 23 10q13 12 13 22q0 5 -1 11q-2 3 -9 2l-9 -1
q-27 9 -27 44q0 16 13.5 26.5t30.5 10.5z" />
    <glyph glyph-name="less" unicode="&#x3c;" horiz-adv-x="388" 
d="M316 414q14 -3 11 -22q-1 -12 -22 -25q-34 -20 -38 -23q-54 -44 -113.5 -103t-59.5 -68q-1 -8 9.5 -17.5t21.5 -19.5q37 -34 120 -97q17 -10 32 -19.5t12 -25.5q-3 -20 -24 -16q-27 5 -80 55q-37 37 -74 73q-28 20 -55 40q-20 15 -20 27q0 11 32 35q46 35 79 74
q3 3 66 57q90 77 103 75z" />
    <glyph glyph-name="equal" unicode="=" horiz-adv-x="420" 
d="M125 142q32 0 50.5 -4.5t39.5 -4.5q16 0 42.5 -3.5t42.5 -3.5q4 0 13.5 1.5t13.5 1.5q20 0 22 -25q2 -17 -18 -20q2 0 -33 0q-17 0 -61 14t-90 14q-8 0 -39 -8t-44 -8q-20 0 -19 16q1 12 27 21t53 9zM339 279q43 0 40 -24q-2 -20 -40 -18q-7 4 -23 8q-14 2 -69 -11
q-66 -15 -169 -15q-13 0 -24.5 6t-11.5 14q0 9 16.5 19.5t35.5 10.5q14 0 26.5 -7.5t25.5 -7.5q37 0 107.5 12.5t85.5 12.5z" />
    <glyph glyph-name="greater" unicode="&#x3e;" horiz-adv-x="388" 
d="M99 -14q-15 0 -15 20q0 12 18 31q30 30 33 34q42 49 122 155q22 34 22 36q0 17 -62 50q-41 20 -115 59q-16 5 -32 11t-17 22q-1 8 6 14t15 6q27 0 88 -40q43 -30 86 -59q32 -15 63 -29q23 -11 23 -23q0 -11 -5 -17q-13 -17 -27 -33q-19 -19 -60 -79q-4 -8 -54 -70
q-69 -88 -89 -88z" />
    <glyph glyph-name="question" unicode="?" horiz-adv-x="375" 
d="M214 698q73 0 100 -50q21 -39 21 -132q0 -54 -31 -97q-26 -37 -75 -70q-45 -31 -88 -44q-27 -8 -26 -38q0 -24 24 -68q26 -50 32 -78q2 -7 5 -15q2 -8 0 -14t-11 -9t-13 -2q-16 5 -22 28q-3 17 -7 33q-41 110 -41 130q0 70 62 64q19 -2 55 22q40 27 76 70q40 51 38 121
q-2 38 -22.5 77.5t-54.5 39.5h-61q-47 -9 -67 -20q-31 -19 -31 -55q0 -12 11.5 -31t11.5 -49q0 -23 -18 -23q-8 0 -21 19q-21 32 -21 74q0 53 48.5 85t125.5 32zM188 37q14 0 31 -20q-25 -31 -35 -31q-19 17 -19 23q0 5 10 16.5t13 11.5z" />
    <glyph glyph-name="at" unicode="@" horiz-adv-x="555" 
d="M356 427q3 11 7 39q4 11 16 11q17 0 15 -15q-1 -5 -23 -69q-19 -54 -31 -120q-1 -7 -1 -12q0 -23 25 -42q10 -8 21 -8q34 0 77 66q30 44 30 120q0 49 -8 69q-20 55 -71 89q-54 35 -129 36q-85 0 -144 -58q-78 -77 -75 -189q3 -107 64 -171t164 -64q54 0 115 42
q48 32 72 70q8 13 19 13q8 0 12 -7t0 -14q-13 -21 -39 -49q-10 -8 -56 -37q-61 -38 -123 -38q-120 0 -185 67q-29 30 -45 86q-26 50 -29 102q-4 54 22 111q30 68 90.5 111.5t137.5 44.5q82 1 143 -45q95 -69 95 -169q0 -61 -42 -130q-45 -74 -91 -74q-13 0 -25 6
q-51 28 -51 49q-19 -25 -31 -33q-22 -14 -64 -14q-50 0 -71 39q-12 23 -12 56q0 22 6 47q8 33 17 51q4 9 7.5 19t22.5 29q43 43 97 43q29 0 48 -17t23 -41zM166 341q-12 -22 -12 -47q0 -61 64 -72q8 -1 16 -1q40 0 64 43q16 30 24 73q12 65 2 91q-12 35 -42 35
q-50 0 -79 -40q-18 -25 -21 -36q1 -8 -16 -46z" />
    <glyph glyph-name="A" unicode="A" horiz-adv-x="524" 
d="M449 378q0 -14 -13 -14q-5 0 -24 -6q-11 -5 -11 -29q0 -53 49 -174.5t49 -152.5q0 -21 -14 -21q-12 0 -15 4t-7 26q-28 85 -71 215q-8 24 -22 86q-10 41 -16 44.5t-48 3.5h-83q-33 -1 -44 -9q-15 -11 -45 -134q-28 -110 -69 -226q-5 -15 -7 -19q-4 -7 -11 -8
q-20 -2 -20 18q0 4 4.5 11.5t5.5 10.5q58 179 90 299q8 28 6 34q-4 9 -21 8q-26 -2 -25 -2q-8 2 -8 17q0 13 9.5 17t27.5 4q22 -1 29 0q6 1 8 4q6 11 47 136q44 133 44 159q0 12 -8 22t-15 18q-2 9 -7 27q-3 8 4 18.5t15 10.5q13 0 26 -44q30 -105 50 -153q26 -63 29 -73
q24 -72 28 -83q7 -16 21 -29q6 -5 28 -1q19 3 22 3q15 0 12 -18zM193 394q-2 -9 10 -10q-16 1 22 1q66 0 94 8q7 1 24 5q-5 17 -17 51q-16 44 -65 142q-12 -27 -40 -93q-21 -53 -28 -104z" />
    <glyph glyph-name="B" unicode="B" horiz-adv-x="404" 
d="M84 702q9 1 18 -10.5t16 -13.5h35q215 0 215 -185q0 -54 -14.5 -83t-55.5 -55q-14 -3 -30 -15q0 -2 11 -13t13 -12q41 -56 53 -79q28 -53 28 -109q0 -60 -37 -96.5t-97 -36.5q-14 0 -41.5 3.5t-39.5 3.5q-32 1 -46 -8q-8 -5 -18 -24q-8 -13 -16 -10q-17 7 -17 25
q0 41 -2.5 46t-16.5 8.5t-16 10.5q-4 16 2 25q4 4 12 4.5t14 6t6 27.5q0 -10 3 66q4 69 2 108q-14 -1 -10 21q0 2 4 10t4 11v132q-1 77 -1 89q0 37 -2 48q-1 6 -8 17t-7 19q1 9 2 12.5t11 14.5q1 1 9 24q6 17 17 18zM95 233q0 -18 -1 -68v-65q0 -52 14 -59q28 -14 58 -14
q77 0 104 5q37 6 53 28q28 39 17 97q-13 67 -48 116q-39 55 -84 51q-107 -8 -111 -36q-2 -12 -2 -55zM99 614q2 -21 0 -63q-3 -55 -3 -67q0 -34 1 -74t1 -50q0 -14 3 -19t14 -5t31 6q11 4 21 9q42 8 84.5 17t60.5 32q25 30 25 98q0 49 -24 87q-27 43 -75 51q-12 0 -24 2
q-4 1 -10 5.5t-18 4.5q-75 0 -85 -13q-2 -3 -2 -21z" />
    <glyph glyph-name="C" unicode="C" horiz-adv-x="564" 
d="M343 688q39 0 91 -28.5t69 -61.5q11 -17 11 -22q0 -3 -2 -7q-8 -15 -25 -8q-5 8 -15 22q-31 40 -54 52q-29 16 -85 16q-121 0 -200 -119q-71 -104 -71 -229q0 -175 54 -239q39 -46 129 -46q28 0 77 15q92 27 123 69q21 27 37 66l24 64q2 11 12 25q14 6 21 -4q4 -6 3 -14
q-1 -7 -3 -15q-3 -33 -25 -78q-36 -72 -89 -110q-77 -56 -185 -56q-139 0 -187 121q-27 65 -27 206q0 108 52 200q47 84 123 134q72 47 142 47z" />
    <glyph glyph-name="D" unicode="D" horiz-adv-x="516" 
d="M112 704q29 -1 70 -7q105 -38 123 -46q76 -35 119 -88q54 -67 59 -169q10 -183 -77 -299q-90 -120 -248 -120q-16 0 -35 -2.5t-24 -1.5q-11 1 -18 -7.5t-15 -9.5q-11 -2 -14 19q-1 14 -3 28q-3 9 -12.5 11.5t-10.5 8.5q-1 16 14 23.5t16 9.5q2 5 0 22q-2 25 -2 31
q-1 16 2 129q1 48 8 137q7 81 7 138q0 19 4 56t4 52q0 28 -11 40q-1 2 -21 11q-14 8 -11 16q2 8 12.5 8.5t13.5 3.5q17 17 23 17q7 0 16 -5t11 -6zM103 511q0 -61 -7 -156t-7 -154q0 -19 -2 -55.5t-2 -52.5q0 -43 12 -60q13 -20 87 -20q78 0 157.5 70.5t94.5 153.5
q11 66 11 115q0 46 -4 75q-15 104 -115 173q-81 56 -175 66q-38 4 -40 -15q-10 -95 -10 -140z" />
    <glyph glyph-name="E" unicode="E" horiz-adv-x="433" 
d="M392 698q8 0 17.5 -6t7.5 -14q-1 -5 -16 -16q-11 -8 -23 -10q-9 -2 -24 0q-19 2 -27 2q-57 -9 -99 -16q-101 -16 -105 -24q-10 -16 -10 -194q0 -41 2 -45t27 -4h80l126 -12q35 -3 35 -19q0 -14 -15 -17q-6 -1 -22 1q-108 18 -167 18q-31 0 -47 -5q-7 -2 -19 -10
q-2 -2 -8 -20q-16 -50 -16 -222q0 -2 -4 -25q-2 -14 3 -20q11 -11 54 -11q51 0 105.5 4t49.5 4q7 0 28 4q17 4 31 1h16q10 -1 12 -7q6 -17 -22 -24h-19q-167 0 -189 -2q-52 -2 -67 -10q-10 -6 -13 -18t-11 -12q-12 0 -15 15.5t-17 21.5q-8 3 -8 9q0 14 25 20q9 2 21 223
q1 13 6 47q3 18 -1 27q-3 4 -12 9t-10.5 9.5t-1.5 7.5q0 7 12 14.5t15 16.5q5 16 5 87q0 -2 3 66q2 42 -3 63q-1 5 -10 9t-10 12q-1 7 22 26q2 1 1 17.5t9 23.5q11 7 19 -11q12 -27 25 -27q6 0 17.5 2t17.5 2q17 0 100.5 19.5t118.5 19.5z" />
    <glyph glyph-name="F" unicode="F" horiz-adv-x="421" 
d="M373 682q8 0 17.5 -5.5t7.5 -14.5q0 -2 -15.5 -13.5t-34.5 -11.5q29 1 -40 1q-57 -4 -98 -7q-99 -9 -103 -17q-10 -16 -10 -194q0 -41 2.5 -45t26.5 -4q17 0 40.5 2.5t36.5 3.5q21 0 123 4q16 1 23 -2q17 -6 17 -16q0 -13 -17 -17q-8 -2 -22 0q-33 6 -76 6
q-86 0 -135 -15q-7 -2 -19 -10q-2 -2 -8 -20q-15 -50 -15 -227q0 11 3 -48q1 -29 -5 -33q-18 -10 -29 -10q-15 0 -15 19q0 11 5 27l25 297q0 3 -10.5 8.5t-11.5 9.5t-1 7q0 7 13 12t16 14q2 6 2 93q0 16 2 53q1 30 0 52q1 8 -2 24q-1 5 -9.5 9t-10.5 12q-6 18 20 26q5 1 5 8
q1 11 2 15t10 6t13 -2q22 -24 26 -24q6 0 18 2t17 2q17 0 99 11.5t117 11.5z" />
    <glyph glyph-name="G" unicode="G" horiz-adv-x="715" 
d="M564 602q0 -9 -5 -18t-13 -7q-9 2 -42 30t-87 42q-44 12 -77 12q-24 0 -53 -5q-93 -19 -158 -115q-62 -91 -62 -197q0 -171 58 -249q55 -73 167 -73q168 0 248 171q6 10 12 21q10 17 10 28q0 9 -7 14q-8 5 -43 -2q-25 -6 -68 -27q-37 -18 -50 -18t-23 11.5t-8 24.5t22 15
q15 1 29 2q138 44 230 63q4 1 19 6q11 4 18 4t13 -4q15 -14 10 -31q-1 -5 -48 -10.5t-50 -15.5q-22 -79 -65 -156q-101 -134 -282 -134q-87 0 -152 79q-76 93 -76 257q0 143 79 254.5t188 111.5q83 0 146 -11q120 -20 120 -73z" />
    <glyph glyph-name="H" unicode="H" horiz-adv-x="571" 
d="M508 712q8 0 12 -7.5t3 -17.5q-19 -176 -19 -312q0 -2 8.5 -6t8.5 -15q0 -9 -8.5 -13t-8.5 -6q0 9 4 -90t4 -168q0 -48 -1 -81q-2 -22 -17 -22q-20 0 -23 10v19q-4 37 -1 121q5 121 5 196q0 31 -45 31q-10 0 -29 -2t-26 -2q-28 0 -72 2t-71 2q-85 0 -105 -2
q-26 -3 -30 -13q2 -253 -9 -348q0 -11 -1 -22.5t-7.5 -15t-10.5 -3.5q-21 0 -21 52q0 -4 7.5 51.5t7.5 174.5q0 60 -2 77t-10 22.5t-16 10.5q-11 7 -11 16q0 12 21 23q9 4 10 11l2 64q-1 131 8 205q0 -4 -1 22q0 13 9 17q3 1 7 1q26 0 26 -21q0 2 -8 -97q-6 -75 -6 -159
q0 -1 -2 -15q-2 -8 2 -13q8 -16 44 -14q188 8 237 6q83 -3 87 -3q13 1 15.5 8.5t2.5 38.5q0 21 -1 72q-1 40 0 70q0 37 1 73q5 70 30 72z" />
    <glyph glyph-name="I" unicode="I" horiz-adv-x="366" 
d="M201 714q4 0 13 -7t14 -7.5t77 -4.5q42 -1 42 -12q0 -4 -4 -8q-9 -13 -16.5 -15t-37.5 -2q-2 0 -28.5 4t-38.5 4q-13 -67 -13 -172q0 -14 3 -119q2 -86 1 -158q1 -106 -4 -130q-11 -62 15 -64q41 10 68 10q31 0 31 -15q0 -25 -26 -25q-8 0 -26.5 3t-26.5 3
q-14 0 -30.5 -15t-30.5 -12q-7 1 -16.5 8.5t-14.5 7.5t-31 -7.5t-55.5 -7.5t-22.5 -1q-11 1 -15 9q-1 3 -1 6q0 20 42 24q29 -1 58 -1q33 0 44 13q10 266 10 398q0 41 -1 64q0 51 -1 157q3 9 0 25q-3 4 -6 4q-2 0 -11.5 -5t-18.5 -5q-22 0 -48 -5t-30 -4q-36 5 -36 23
q0 13 32 16q35 -3 105 3q2 0 9.5 10t25.5 10z" />
    <glyph glyph-name="J" unicode="J" horiz-adv-x="472" 
d="M313 713q8 3 17.5 -11t16.5 -14q-2 0 30 9t51 9q1 0 18 4q9 2 13.5 -3t4.5 -10q0 -19 -26 -26q-8 -3 -39 -4q-26 0 -39 -8q-33 -19 -33 -108q0 -95 -7 -208l-6 -154q-5 -81 -28 -140q-41 -104 -129 -104q-52 0 -92 48q-32 39 -32 68q0 21 35.5 76.5t54.5 55.5
q5 0 10.5 -3t5.5 -16q1 -12 -5 -19l-44 -46q-27 -29 -27 -47q0 -34 33 -62q29 -25 56 -25q83 0 111 95q16 51 17 165v104q0 50 3 86q16 127 16 198q0 1 4 13q2 7 -2.5 9t-10.5 2q-9 0 -53 -9t-69 -9q-14 0 -16 22q-1 9 10 12q8 2 23 1q10 -2 19 -3q65 -3 94 23q2 12 15 29z
" />
    <glyph glyph-name="K" unicode="K" horiz-adv-x="401" 
d="M75 707q22 0 20 -49q-1 -24 -8 -89q-7 -55 -6 -94q-3 -42 -2 -93q2 -4 6 -4q10 0 29.5 21t20.5 27q1 7 -4 16t-5 15q0 5 6 13t13 7q5 -1 7 -8q4 -11 5 -12q9 -16 11 -16t7 4q46 50 69 80q45 60 64 116q4 12 9.5 24t20.5 12q19 0 19 -14q0 -29 -53.5 -106.5t-102.5 -129.5
q-5 -5 -19 -16q22 -47 64 -138l111 -240q3 -8 11 -19q4 -5 4 -13q-2 -23 -17 -23q-7 0 -20 22q-18 28 -100 232q-36 87 -71 140q-3 8 -16 20q-9 2 -19 -10q-6 -8 -13 -16q-41 -24 -41 -32q0 -21 1.5 -64t1.5 -59q0 -35 2.5 -107.5t2.5 -118.5q0 -19 -11 -19q-16 0 -27 17
q-3 6 -1 12q3 11 3 18q2 35 2 69q0 38 -1 117.5t-1 116.5q0 3 -3 3q-1 0 -11 -3q-8 -2 -12 1t-4 7q0 6 28 35q11 10 11 57v258q0 33 19 33z" />
    <glyph glyph-name="L" unicode="L" horiz-adv-x="536" 
d="M92 706q18 0 20 -31q0 7 0 -46q0 13 11.5 -97t11.5 -196q0 -43 -6 -89q-4 -30 -8 -61q-7 -75 -7 -115q0 -17 21 -17l164 -21q69 -8 138.5 -17.5t66.5 -26.5q-2 -15 -5 -18q-7 -7 -32 -5q12 0 -119 28t-200 28q-32 0 -43 -11q-2 -3 -13 -29q-7 -18 -17 -14q-8 4 -9 12
q-3 21 -4 24q-32 -4 -36 9q-3 12 8 16q16 5 31 10q7 3 13 20q7 50 19 164q4 52 6 146l-15 184q-1 14 -11 60q-6 34 -6 53q0 40 21 40z" />
    <glyph glyph-name="M" unicode="M" horiz-adv-x="701" 
d="M132 686q22 0 31.5 -38t18.5 -75q4 -6 11 -16t11.5 -33t9.5 -32.5t58 -127.5q33 -74 86 -204q1 -3 5 -23q2 -14 6 -14q5 0 29 50q19 41 38 94q25 72 33 94q5 12 87 195q4 8 12 27q4 12 8 53q3 31 11 38q13 10 36 -5q8 -5 8 -14q0 -8 -7 -25q-9 -20 -10.5 -27.5
t-8.5 -27.5q-6 -15 -6 -26q0 -5 1 -13q1 -11 1 -15q1 -24 8 -61.5t9 -68.5q4 -88 25 -237q19 -139 19 -147q0 -28 -1 -33q-3 -18 -16 -16q-2 0 -19 16q-13 12 -13 31q0 8 3.5 25.5t3.5 25.5q3 104 -18 159q0 1 -8 17q-5 10 -5 17q0 5 2.5 9t6.5 10q2 27 -4 66q-6 31 -11 62
q-2 27 -4 53q-4 39 -11 39q-3 0 -6.5 -6t-66.5 -137q-22 -45 -48 -125.5t-51 -128.5q-5 -6 -12 -22q-1 -8 8 -19t9 -19q-1 -16 -10 -24q-14 -10 -30 -2q-7 4 -8.5 14.5t-3 20.5t-6.5 32q-12 57 -33 111t-42.5 109t-67.5 153q-2 4 -15 40q-10 29 -17 29q-2 0 -3 -1l-13 -53
q-8 -28 -18 -84q-15 -83 -18 -101q-14 -69 -29 -138q-14 -80 -14 -140q0 -17 -3 -25q-5 -11 -24 -11q-7 0 -14 11t-7 19q0 7 5 19t6 17q36 161 99 484q4 17 8 36.5t3 36.5q-1 18 -13.5 41t-12.5 33q0 28 12 28z" />
    <glyph glyph-name="N" unicode="N" 
d="M204 604q-6 -6 -19 -48q-1 -10 -3 -29q2 -3 12 -20q17 -43 66 -148q57 -109 96 -207q5 -14 24 -45q20 -35 24 -33l-3 86q-1 13 -3 43q0 8 4 98q8 164 2 254q-5 77 -5 78q3 13 10 51q1 2 0 20q0 11 7 13q11 4 23 -5q6 -7 8 -35q1 -8 -4 -47q-6 -46 -6 -90q0 -27 2 -57
q0 -4 -7 -240q1 -37 0 -126q-4 -50 -3 -69q1 -9 11 -24t11 -26q1 -24 -15 -25q-8 -1 -21 3q-15 8 -26 33q-10 22 -20 45q-26 48 -53 110q-33 76 -69 148q-41 81 -85 160l-9 -48q-18 -79 -54 -355q-14 -107 -34 -123q-3 -2 -8 -2q-21 0 -28 20q-2 8 7.5 18t11.5 17
q9 29 52 286q11 70 34 191q9 45 9 51q-3 6 -8 18q-18 38 -30 72q-6 27 3 27q11 1 27 -14q12 -13 23 -25q-1 1 8 32.5t21 34.5q8 1 15 -9.5t7 -28.5q0 -14 -5 -30z" />
    <glyph glyph-name="O" unicode="O" horiz-adv-x="660" 
d="M375 722q84 2 165 -85q77 -83 77 -157q0 -6 3 -81q3 -44 -3 -86q-7 -52 -41 -124q-41 -89 -95 -140q-65 -61 -154 -61q-62 0 -134 36q-31 14 -61 29q-51 26 -52 43q-1 8 -8 19q-50 67 -50 166q0 172 102.5 304.5t250.5 136.5zM55 337q0 -159 41 -200q25 -31 70 -62
q29 -20 95 -21q52 0 52 -22q0 -6 -13 -7.5t-14 -3.5q17 -2 52 -4q129 3 197 170q33 83 46 122q0 -2 4.5 38t4.5 75q0 75 -21 124q-27 64 -94 104q-63 37 -129 37q-92 0 -190 -121q-46 -56 -73.5 -119t-27.5 -110z" />
    <glyph glyph-name="P" unicode="P" horiz-adv-x="486" 
d="M112 697q1 -9 10 -20q1 0 23 5q65 16 97 16q84 0 157 -58q78 -62 78 -143q0 -118 -119 -168q-34 -13 -83 -26q-36 -8 -72 -17q-23 -6 -34 -6q-3 -6 -9 -32q-2 -52 -6 -168q0 1 1 -64q1 -37 -8 -62q-6 -17 -23 -17q-19 0 -19 39q0 13 6 37.5t7 34.5q4 103 4 221
q0 5 -18 11.5t-15 19.5q4 11 13 16t17 8q4 4 1 11q-3 10 -1 14q3 9 3 31q0 72 -14 122q-5 30 -23 87q-7 18 -10 18q-4 0 -10.5 -5.5t-9.5 -5.5q-8 -3 -16 -5q-9 -2 -14 5q-9 13 4 28q6 7 24 15q15 7 19 16q1 3 -5 14t-6 18q0 36 23 36q12 0 28 -26zM124 627q-3 -5 -1 -11
t4 -11.5t19 -116.5q11 -65 11 -77q0 -79 14 -88q10 -7 46 1q106 15 146 43q78 55 78 133q0 57 -55 108q-59 57 -124 57q-9 0 -17 -2q-36 -5 -100 -20q-14 -4 -21 -16z" />
    <glyph glyph-name="Q" unicode="Q" horiz-adv-x="660" 
d="M496 58q6 -3 90 -53q21 -12 21 -26q0 -23 -21 -23q-5 0 -42 18q-35 24 -85 55q-66 -42 -146 -42q-98 0 -171 56q-108 81 -108 259q0 187 128 327q78 86 159 78q49 -4 63 -20q21 -24 44 -33q38 -16 76 -31q39 -18 64 -41q58 -53 58 -135q0 -178 -67 -302q-32 -58 -63 -87z
M455 78q79 65 109 164q19 63 19 207q0 88 -57 130q-40 29 -137 49q-24 6 -34 6q-25 4 -35.5 20.5l-10.5 16.5q-49 0 -97 -39q-44 -35 -74 -91q-72 -133 -72 -275q0 -100 71 -174q64 -68 174 -68q52 0 107 30q-35 22 -69 50q-16 14 -16 32q0 19 16 19q13 0 40 -22
q13 -12 44 -38q12 -11 22 -17z" />
    <glyph glyph-name="R" unicode="R" horiz-adv-x="511" 
d="M301 289q32 -68 61 -140q13 -30 80 -203q12 -29 12 -32q0 -20 -20 -20q-8 0 -11.5 7.5t-7.5 16.5q-17 32 -39 107q-36 122 -95 240q-10 21 -10 20q-19 0 -49 -1.5t-40 -1.5h-17q-12 -1 -18 -1q-4 -5 -14 -29q-11 -51 -35 -165l-9 -64q-5 -34 -20 -59q-7 -12 -26 -12
q-9 0 -11.5 6t-1.5 17q2 17 2 18q2 13 12.5 36.5t12.5 32.5q21 94 42 217q0 4 -14 12.5t-14 16.5q0 3 2 7q5 11 19 14.5t16 7.5q-1 6 3 22q15 28 15 152q0 61 -7 90q-2 19 -10 19q-3 0 -9.5 -3.5t-9.5 -3.5t-11 -2q-7 -1 -10 0q-5 1 -8 7q-6 14 8 26q7 6 25 10.5t23 12.5
q0 3 -2.5 14.5t-2.5 19.5q0 9 8.5 20.5t20.5 11.5q22 0 22 -31q0 -9 6 -22q4 0 12 1h13q92 0 98 -1q75 -13 135 -74q64 -64 64 -139q0 -13 -3 -26q-19 -115 -146 -144q-7 0 -20.5 -4t-20.5 -4zM291 318q28 0 63 16q101 46 101 132q0 52 -37 101q-20 27 -52 49q-41 29 -78 29
q-13 0 -49.5 -1t-50.5 -1t-25 -11q-2 -3 -2 -141q0 -7 -1.5 -40.5t-1.5 -38.5q-13 -76 -2 -89q11 -9 46 -6h54q0 3 -3 11t-3 12q0 11 14 16q4 1 8 1q8 0 11.5 -13t7.5 -26z" />
    <glyph glyph-name="S" unicode="S" horiz-adv-x="420" 
d="M248 709q108 0 148 -124q1 -3 15 -25q10 -17 10 -35q0 -9 -9 -17t-18 -9q-18 -2 -22.5 22t-7.5 50q-4 23 -33 58q-1 1 -12.5 8t-11.5 12q0 11 -18.5 18.5t-33.5 7.5q-42 0 -96 -67.5t-54 -116.5q0 -66 61 -122q56 -47 113 -93q64 -62 64 -117q0 -48 -39 -109
q-41 -64 -79 -68q-21 -2 -40 -2q-68 0 -104 26q-52 38 -52 128q26 79 35 79q24 0 24 -30q0 -23 -12 -44.5t-12 -23.5q0 -29 21 -58q29 -40 81 -40q42 0 63 9q35 15 56.5 53.5t21.5 83.5q0 35 -62 93q-57 52 -115 105q-62 61 -62 102q0 70 56 154q60 92 124 92z" />
    <glyph glyph-name="T" unicode="T" horiz-adv-x="593" 
d="M292 722q2 0 10 -6q10 -9 14 -11q8 -4 127 -4q1 0 37.5 5t57.5 5q33 0 35 -11q5 -33 -67 -33q-12 0 -31 1h-26q-2 0 -60.5 1.5t-70.5 1.5q-17 0 -17 -177q0 -26 3 -119q4 -89 3 -158q-7 -72 -7 -126q0 -48 6 -68q0 -57 -23 -55q-30 3 -30 29q0 12 7 26q11 115 11 333
q0 -6 2 45q1 22 -5 84q-1 18 1 57q3 49 3 66q0 35 -6 59q-50 -5 -162 -12q-6 -1 -18 -3.5t-20 -2.5q-44 3 -39 30q4 17 37 18q16 0 48.5 -4.5t44.5 -5.5q61 -1 103 11q2 1 8 12.5t24 11.5z" />
    <glyph glyph-name="U" unicode="U" horiz-adv-x="461" 
d="M140 716q25 0 25 -20q0 -6 -6 -28q-20 -67 -40 -135q-24 -81 -24 -112q-30 -107 -30 -252q0 -69 24 -107q27 -43 91 -63q23 -7 44 -7q74 0 117 88q28 57 34 118q4 45 4 149q0 31 -10 142q2 42 0 117q-6 72 -4 80q7 21 21 21q23 0 23 -39q0 -172 7 -350q5 -142 -37 -245
q-21 -52 -59 -85q-42 -34 -89 -34q-131 0 -184 94q-21 39 -21 120q0 34 5 74q2 31 10 96q23 92 48 217q10 41 28 131q4 30 23 30z" />
    <glyph glyph-name="V" unicode="V" horiz-adv-x="512" 
d="M43 705q12 1 27 -40q22 -59 30 -170q4 -53 47 -247q32 -139 50 -167q10 14 19 27q19 34 49 117q25 70 63 148q30 63 33 80q15 74 60 145q5 7 26 70q17 47 34 48q12 1 17 -5.5t3 -13.5q-6 -26 -31 -70q-32 -57 -43 -83q-49 -129 -156 -391l-53 -120q1 -13 7.5 -34.5
t6.5 -28.5q0 -6 -3 -9q-6 -7 -16 -7q-13 0 -25 14q-24 -18 -26 -18q-14 0 -14 14q0 5 12 29t11 43q-23 74 -39 137q-40 151 -45 220q-5 26 -12 92q-2 31 -23.5 99.5t-22 73.5t-2.5 15t-2 15q0 16 18 17z" />
    <glyph glyph-name="W" unicode="W" horiz-adv-x="742" 
d="M705 756q16 -2 16 -25l-7 -24q-44 -140 -83 -303q-22 -88 -65 -284l-6 -28q13 -40 13 -46q0 -47 -29 -44q-12 1 -22 12t-10 23q0 6 3 10q6 9 6.5 25.5t2.5 19.5q-50 176 -155 514q-3 10 -9 28q-12 -15 -23 -85q-9 -54 -12 -90q-3 -51 -19 -221q-15 -160 -15 -164
q0 -9 2.5 -29t2.5 -29q0 -25 -18 -23q-12 1 -23.5 11.5t-11.5 16.5q-11 20 -9 54l-202 569q-1 1 -7 13q-3 8 -3 15q2 27 25 27q21 0 33 -42q7 -34 15 -69q27 -102 68 -230q67 -209 99 -249q12 112 23 269q0 -1 -1 -2q-4 0 4 46q5 47 19 145q0 40 11 86q14 64 39 62
q24 -2 30 -19q6 -25 11 -50q42 -140 68 -246q18 -70 31 -104q10 -33 34 -89q2 -19 12 -42q0 -9 14 53q35 157 35 162t27 103q31 107 38 137q16 139 48 136z" />
    <glyph glyph-name="X" unicode="X" horiz-adv-x="581" 
d="M303 435q90 106 119 163q13 13 38 45q52 76 78 88q15 6 15 -15q0 -17 -8.5 -28t-17.5 -21q-12 -18 -119 -146q-80 -94 -80 -122q0 -16 12 -39q17 -35 22 -52q31 -92 93 -211q41 -79 41 -138q0 -14 -16 -14q-19 0 -37 63q-30 101 -36 114q-34 80 -104 220
q-38 -24 -101 -126q-48 -77 -94 -139q-23 -32 -30 -56q-4 -20 -13 -56q-10 -32 -30 -32q-13 0 -13 16q0 11 5 27q0 54 112 207q123 168 138 216q-24 45 -46 84q-54 94 -92 145q-12 10 -30 37q-10 34 -10 39q0 12 10 14t18 -6.5t16 -16.5q26 -25 75 -121q53 -102 85 -139z
" />
    <glyph glyph-name="Y" unicode="Y" horiz-adv-x="556" 
d="M265 -23q-15 1 -19 14q-2 6 -2 32q0 14 1 27v22q2 209 2 211v22q-1 12 -7 19q-14 17 -47 77q-66 120 -67 121q-19 37 -62 104q-5 7 -28 30q-16 17 -16 22q0 28 14 28q9 0 21 -4.5t18.5 -15.5t12.5 -22q26 -35 52 -87q18 -37 36 -75q24 -45 98 -153l88 151q71 119 124 193
q17 23 31 23q17 0 17 -18q0 -12 -27 -46q-136 -176 -193 -305q-9 -15 -16.5 -30t-4.5 -44q4 -48 2 -128q-4 -117 -4 -101q0 -5 4.5 -17.5t4.5 -18.5t-3 -11q-12 -22 -30 -20z" />
    <glyph glyph-name="Z" unicode="Z" 
d="M247 683q121 -14 148 -19q80 -14 87 -40q2 -7 -8 -24q-14 -20 -27 -40q-24 -39 -225 -365q-60 -97 -60 -117q3 -15 34 -26q22 -7 43 -14q85 -35 169 -49q55 -8 55 -30q0 -15 -16 -15q-8 0 -23 6.5t-20 7.5q-51 16 -170 45q-4 1 -90 34q-10 -38 -29 -38q-5 0 -11 3
q-14 8 -14 26q0 14 8 30q-71 2 -71 31q0 16 19 14q26 -2 72 -20l97 163q63 101 173 280q27 44 41 83q-31 14 -123 37q-48 8 -191 8q-66 0 -59 18q2 6 4.5 11.5t16.5 5.5q115 0 170 -6z" />
    <glyph glyph-name="bracketleft" unicode="[" horiz-adv-x="331" 
d="M179 678q41 0 41 -20q0 -8 -5.5 -15t-10.5 -7h-53q-6 0 -20 6.5t-20 6.5q-16 0 -16 -34v-73q0 10 18 -129q20 -149 26 -318q2 -63 2 -115q0 -38 54 -38q8 0 22 6.5t30 6.5q47 0 47 -33q0 -12 -48 -24q-17 -5 -38 -3q-37 3 -40 3q-73 0 -73 91v189q0 104 -13 165.5
t-13 157.5l-7.5 40t-7.5 70q0 72 36 72q7 0 19.5 -2.5t17.5 -2.5h52z" />
    <glyph glyph-name="backslash" unicode="\" horiz-adv-x="318" 
d="M68 733q20 0 47 -156q0 -2 36 -134q39 -140 47 -175q27 -125 41 -166.5t28 -83.5q11 -33 11 -39q0 -12 -11 -18q-11 -7 -29 0q-16 6 -22 34q-2 17 -4 33q-20 112 -66 314q-3 13 -57 178q-35 108 -48 191q-1 8 8 15t19 7z" />
    <glyph glyph-name="bracketright" unicode="]" horiz-adv-x="296" 
d="M156 678q5 0 17.5 2.5t18.5 2.5q37 0 44 -72q3 -32 -1 -71q-2 -19 -4 -39q-2 -36 -5 -87q-3 -42 -3 -69q0 -57 10 -167q7 -85 7 -189q0 -49 -5 -63q-10 -27 -51 -27h-79q-46 8 -46 23q0 27 40 27q16 0 26 -3.5t18 -3.5q62 0 59 41q-12 159 -12 301q0 95 5.5 180.5
t5.5 77.5q0 102 -26 102q-4 0 -16 -3.5t-20 -4.5h-55q-5 0 -12 8t-7 16q0 18 39 18h52z" />
    <glyph glyph-name="asciicircum" unicode="^" horiz-adv-x="461" 
d="M237 729q14 0 49.5 -40t42.5 -68q3 -9 -4 -18.5t-19 -9.5q-16 0 -29 34q-16 43 -44 64q-20 -14 -45 -71q-22 -48 -39 -48q-19 0 -19 23q0 8 3 14q18 44 58 85q35 35 46 35z" />
    <glyph glyph-name="underscore" unicode="_" horiz-adv-x="650" 
d="M552 -103q166 0 88 2q36 -1 36 -16q0 -21 -124 -11h-3q-15 1 -101 1q-113 1 -363 1h-74q-37 1 -37 12q0 10 20 12q15 2 53 1q64 -1 77 -1q40 0 205 -1h223z" />
    <glyph glyph-name="grave" unicode="`" horiz-adv-x="445" 
d="M143 732q14 0 35 -20q31 -30 40 -35q2 -2 55 -31q29 -16 34 -29q4 -9 -1.5 -18t-19.5 -10q-17 -1 -35 18q-24 26 -37 33q-9 5 -52 24q-25 11 -31 20q-10 14 -10 26q0 22 22 22z" />
    <glyph glyph-name="a" unicode="a" horiz-adv-x="522" 
d="M463 464q27 0 29 -12q1 -8 -8 -43q-9 -39 -9 -60q0 -10 7 -38.5t7 -54.5q0 -19 -6 -66t-6 -89q0 -16 10 -53t10 -50q0 -20 -18 -20q-13 0 -25.5 34t-25.5 34q-12 0 -36 -13q-32 -18 -55 -26q-42 -13 -97 -13q-64 0 -126 34q-83 46 -83 128q0 115 54 201q60 92 151 92
q69 0 113 -19q27 -11 52 -35q20 -19 30 -19q7 0 9 18.5t4 37.5q4 32 19 32zM64 161q0 -64 47 -100.5t129 -36.5q181 0 200 150q10 78 4 113q-5 34 -8 41q-7 22 -27 30q-31 13 -60 14.5t-33 3.5q-10 4 -11 15q0 8 9.5 11.5t8.5 10.5q-1 10 -68 10q-90 0 -144 -85
q-47 -74 -47 -177z" />
    <glyph glyph-name="b" unicode="b" horiz-adv-x="550" 
d="M65 672q6 -26 7 -54q1 -19 -1 -50q-2 -34 -2 -47v-38q-1 -23 -1 -31q0 -26 6 -35q7 -12 26 -12q28 0 71.5 16t102.5 16q124 0 192 -112q48 -78 48 -149q0 -79 -61 -127q-67 -52 -195 -52q-33 0 -91 24q-53 21 -64 18q-13 -4 -17 -18l-6 -26q-2 -5 -11 -6t-14.5 3t-5.5 21
q0 10 2.5 40t2.5 45q-1 33 -7 90q-6 53 -6 87q0 46 1.5 61t1.5 23v208q1 69 -21 141q-3 10 4 18t16 8q8 0 22 -62zM313 409q-55 14 -65 -3q-1 -3 6 -10q9 -10 10 -15q2 -6 -3 -11.5t-14 -5.5q-5 0 -31.5 10t-61.5 10q-60 0 -68 -48q-6 -44 -5 -129q3 -179 204 -179
q97 0 151 50q45 42 45 98q0 69 -47 139q-51 77 -121 94z" />
    <glyph glyph-name="c" unicode="c" horiz-adv-x="472" 
d="M260 437q75 0 133 -34q62 -37 62 -91q0 -26 -16 -26q-17 0 -24 21l-15 45q-30 56 -149 56q-79 0 -133 -68q-51 -63 -57 -148q-5 -71 37 -120q47 -54 135 -54q71 0 102 38l44 70q4 7 17 15q21 1 21 -27q0 -27 -57 -79t-88 -52q-73 0 -92 3q-15 3 -25 10l-19 13
q-65 35 -84.5 69.5t-19.5 113.5q0 117 65 183q62 62 163 62z" />
    <glyph glyph-name="d" unicode="d" horiz-adv-x="523" 
d="M489 731q10 0 16.5 -8t3.5 -18q-22 -72 -21 -141v-208q1 -8 2 -25q2 -13 2 -59q0 -34 -6 -87q-6 -57 -7 -90q0 -15 2.5 -45t2.5 -40q0 -17 -6 -21t-15 -3q-8 1 -10 6q-1 0 -7 26q-3 14 -17 18q-11 3 -63 -19q-58 -23 -91 -23q-128 0 -195 52q-61 47 -61 127q0 71 47 149
q68 112 193 112q58 0 102 -16t72 -16q19 0 26 12q6 9 6 35q0 8 -1 30.5t-1 38.5q0 12 -2 47q-1 31 -1 50q1 28 7 53q15 63 22 63zM52 173q0 -57 45 -98q54 -50 150 -50q202 0 205 179q1 85 -6 129q-7 48 -67 48q-35 0 -61.5 -10t-32.5 -10q-8 0 -13 5.5t-4 11.5q2 5 10 13.5
t6 11.5q-9 17 -64 3q-70 -18 -121 -94q-47 -71 -47 -139z" />
    <glyph glyph-name="e" unicode="e" horiz-adv-x="467" 
d="M259 473q82 0 129 -85q33 -61 33 -113q0 -33 -17 -33q-5 0 -22.5 5.5t-27.5 5.5q-35 0 -152 -10q-34 1 -67 1q-52 -1 -60.5 -11.5t-8.5 -63.5q0 -37 50 -89q68 -72 127 -72q72 0 112 37q23 30 47 60q5 7 11 14.5t13 7.5q26 0 26 -20q0 -30 -63 -77q-72 -54 -146 -54
q-61 0 -134 70q-78 74 -78 150q0 95 64 182q70 95 164 95zM87 275q7 -8 119 0l104 2q57 3 57 25q0 48 -26 85q-37 54 -78 54q-74 0 -121 -45q-26 -25 -43 -73q-16 -42 -12 -48z" />
    <glyph glyph-name="f" unicode="f" horiz-adv-x="350" 
d="M257 809q41 0 70 -54q25 -45 25 -87q0 -28 -15 -47.5t-29 -19.5q-8 0 -9 8v20q0 4 6.5 6t11.5 10.5t5 33.5t-21 62q-24 39 -44 39q-48 0 -92 -53q-47 -57 -47 -132q0 -92 16 -156q14 -58 13 -67q15 0 45 2q19 2 48.5 17.5t50.5 16.5q5 1 16.5 4.5t16.5 3.5q13 0 13 -14
q0 -10 -10.5 -18t-21.5 -9q-37 -4 -80 -19q-23 -6 -47 -11q-27 -9 -27 -28q0 -111 12.5 -231t12.5 -115q5 -20 5 -34q0 -19 -12 -19q-32 0 -37 23v59l-9 245q-4 54 -11 75q-1 1 -4 1q-5 0 -29.5 -6.5t-35.5 -6.5q-16 0 -16 12q1 13 14 20q5 3 30 11q41 13 41 30l-28 236
q0 57 53 122q58 70 120 70z" />
    <glyph glyph-name="g" unicode="g" horiz-adv-x="552" 
d="M502 449q16 0 16 -13q0 -9 -18 -46t-18 -55q0 -14 5.5 -31.5t5.5 -70.5q0 -16 -4.5 -39t-4.5 -52q0 -15 3.5 -78.5t3.5 -75.5q0 -5 3 -18t4 -18q5 -36 5 -77q0 -86 -70 -140q-37 -28 -87 -44q-41 -14 -71 -14q-162 0 -162 83q0 11 7 43q9 44 22 65q11 17 22 17
q20 0 22 -14q1 -6 -7.5 -20.5t-24 -43t-6.5 -47.5q29 -58 97 -58q14 0 30 2q192 27 192 188q0 14 -2 30q-7 31 -18 86q-5 39 -3 68q-27 -23 -58 -40q-75 -41 -155 -45q-65 -4 -132 51q-70 56 -70 121q0 77 43 158q63 122 187 122q52 0 106.5 -20.5t75.5 -20.5q13 0 29.5 24
t31.5 23zM71 188q0 -152 169 -152q70 0 135 38q55 33 63 63q5 19 5 53q0 95 -22 139q-9 19 -41 28q-40 10 -54 21q-2 2 -15 28q-4 7 -47 7q-83 0 -140 -71q-53 -67 -53 -154z" />
    <glyph glyph-name="h" unicode="h" horiz-adv-x="451" 
d="M77 758q20 0 20 -33q0 -26 -3 -72q-7 -3 -7 -94q0 -65 8 -107q6 -33 11 -33q60 41 157 41q86 0 126 -72q30 -54 30 -142v-141q3 -100 -16 -110q-3 -2 -7 -2q-10 0 -17 10.5t-7 22.5q0 53 4 104q8 95 8 104q1 6 -2.5 25t-3.5 24q0 56 -30 101q-34 51 -85 51
q-101 0 -141 -40.5t-40 -135.5q0 -17 1 -52.5t1 -54.5q0 -23 3.5 -57.5t3.5 -56.5q0 -24 -10 -40.5t-26 -16.5q-23 0 -21 30q21 153 21 288q0 21 -8 37t-8 20q16 24 16 51v161q0 13 -4.5 56.5t-4.5 66.5q0 67 31 67z" />
    <glyph glyph-name="i" unicode="i" horiz-adv-x="164" 
d="M80 622q-32 0 -32 30q0 23 11 27q4 2 18 0q13 -2 25.5 -11t12.5 -21q0 -25 -35 -25zM87 483q9 0 9 -28l-3 -332q0 -14 7.5 -38.5l7.5 -24.5q-19 -68 -31 -68q-22 0 -22 30q0 7 1.5 22.5t1.5 21.5q0 48 -4 188q-2 105 1 188q0 9 10.5 25t21.5 16z" />
    <glyph glyph-name="j" unicode="j" horiz-adv-x="217" 
d="M153 619q4 0 14.5 -5.5t10.5 -11.5q0 -13 -11.5 -28t-26.5 -15q-32 0 -32 19q0 41 45 41zM158 469q14 0 14 -9q0 -4 -5.5 -16.5t-5.5 -17.5q-6 -106 -24 -279q-10 -98 -21 -196q-8 -77 -18 -125q-26 -125 -161 -125q-62 0 -62 65q0 -4 16.5 45t16.5 83q0 7 12 17t21 10
q15 0 15 -27q0 -11 -23.5 -54t-23.5 -76q0 -11 13 -21.5t25 -10.5q102 0 124 177l47 393q0 167 40 167z" />
    <glyph glyph-name="k" unicode="k" horiz-adv-x="429" 
d="M84 787q22 0 22 -39q0 -10 -1 -34q-1 -31 -2 -47q0 -10 3 -86v-144v-1q0 -57 3 -69q2 -4 1.5 -14.5t0.5 -10.5q-2 0 32 6q14 5 26.5 9t17.5 12q2 8 14 23q4 3 8 3q2 0 9.5 -3.5t13.5 -3.5q17 1 54 42q29 33 53 69q8 17 17 35.5t21 18.5q7 0 16 -7.5t9 -16.5
q0 -26 -37 -54q-6 -5 -23 -30q-16 -16 -33 -39q-20 -29 -62 -53q0 -3 10 -22q74 -142 118 -242q6 -13 21 -32q12 -14 12 -22q0 -13 -10.5 -26t-22.5 -13q-15 0 -16 21q-1 33 -7 47q-82 172 -131 250q-7 10 -17 20q-8 2 -27 -5q-14 -6 -26.5 -10t-25.5 -7.5t-17.5 -13.5
t-4.5 -26v-28q-4 -51 -2 -112q3 -52 5 -104v-22q0 -35 -27 -35q-16 0 -17 19q1 -23 1 44q0 205 3 263q0 -1 -17 5t-17 16q0 7 6.5 14t16.5 6q5 0 14 -1q4 -2 4 29v161q0 51 -1 85v56q0 12 -3 29.5t-3 41.5q0 48 18 48z" />
    <glyph glyph-name="l" unicode="l" horiz-adv-x="132" 
d="M77 706q4 2 8 2q23 0 23 -33q0 -12 -8 -104q-10 -98 -12 -154q-2 -67 3 -199.5t3 -198.5q0 3 2 -17q1 -9 -5 -13q-10 -5 -19 -2q-12 5 -15 68q-1 27 -3 85q-5 90 -2 326q0 28 5 111q2 35 8 96q1 10 2.5 20t9.5 13z" />
    <glyph glyph-name="m" unicode="m" horiz-adv-x="572" 
d="M88 447q20 0 20 -11q0 -2 -1 -7t-1 -7q0 -11 19 -11q14 0 61 25.5t72 25.5q16 0 42.5 -35t39.5 -39q5 -1 10 -1q12 0 32.5 29.5t56.5 29.5q20 0 47 -18.5t42 -42.5q7 -10 11 -31q3 -17 1 -82q-3 -24 -9 -75q0 -14 -8 -63q-7 -30 -18 -91q0 -1 1 -20q1 -12 -5 -17
q-14 -11 -20 -11t-14.5 5.5t-8.5 10.5q0 2 3 9.5t3 16.5t17.5 68.5t17.5 116.5q0 -1 3 34.5t3 59.5q0 33 -16 62q-18 34 -45 34q-15 0 -27 -11q-8 -10 -17 -19.5t-18 -19.5t-11 -21q-4 -14 -12 -92q-5 -44 -21 -201q-3 -29 -5 -32q-3 -7 -24 -13q-10 -3 -15 3.5t-3 18.5
q4 20 21 110q12 69 12 152q0 4 -11.5 6t-11.5 22q19 24 19 30q0 17 -24 46q-27 31 -52 31t-58 -19q-22 -14 -45 -28q-12 -3 -32 -18q-2 -5 -10.5 -41.5t-12.5 -109.5q-5 -115 -6 -129q0 -34 -1.5 -68.5t-21.5 -34.5q-17 0 -21 3q-8 5 -8 23q0 9 8 31q9 28 14 67q8 61 8 164
q0 58 -2 62q-3 8 -12.5 11.5t-9.5 6.5q0 9 16 22.5t18 20.5q-4 16 -4 31q0 31 24 31z" />
    <glyph glyph-name="n" unicode="n" horiz-adv-x="435" 
d="M244 474q84 0 125 -45q36 -39 34 -104q0 -5 -1.5 -16t-1.5 -18v-47q-2 -146 -1 -206q1 -8 2 -17t-3 -14q-11 -11 -26 -4q-17 8 -17 38q0 17 4.5 38.5t4.5 19.5q0 40 1 101.5t1 100.5q0 78 -25 112t-87 34q-44 0 -92 -28q-44 -26 -76 -66q-6 -8 -13 -33q-4 -20 -7 -152
q1 -48 0 -160l4 -18q2 -9 -5 -13q-5 -3 -26 3q-7 2 -6 10q2 30 2 22q0 24 -3 133q-1 72 2 134q0 49 7 153l2 20q1 5 10 6q12 1 19 -20q1 -11 2.5 -21t11.5 -10q6 0 16 4q21 16 42 33q41 30 100 30z" />
    <glyph glyph-name="o" unicode="o" horiz-adv-x="570" 
d="M287 494q52 0 61 -13q13 -20 30 -26q99 -35 111 -43q51 -32 51 -100q0 -153 -74 -241.5t-191 -88.5q-81 0 -153 47q-99 65 -99 189q21 80 55 138q80 138 209 138zM62 189q0 -68 67 -121t151 -53q108 0 170 100q53 85 53 194q0 68 -82 99q-5 2 -30 16q-18 9 -28 9
q-5 0 -12 -4t-15 -4q-10 0 -31 8q-2 1 -20.5 14t-21.5 13q-84 0 -147 -100q-54 -87 -54 -171z" />
    <glyph glyph-name="p" unicode="p" horiz-adv-x="517" 
d="M76 475q12 0 15 -9q1 -3 1 -19l-3 -17q-1 -10 3 -30q-2 -6 0 -19q1 -3 4 -3q4 0 12.5 9t12.5 11q99 56 179 56q58 0 122.5 -72t64.5 -147q0 -120 -63 -184q-56 -56 -140 -56q-82 0 -129 21q-31 15 -49 40q-15 22 -20 22q-14 0 -11 -13q6 -31 6 -26q-1 -16 -9 -80
q-17 -99 -17 -126q0 -41 -16 -41q-25 0 -25 36q0 -5 12 76q5 30 9 85q1 15 6 236l2 128q1 69 6 90q8 32 27 32zM82 251q-2 -14 11 -30q15 -20 16 -27q3 -13 -5 -37t-6 -35q7 -36 42 -62q31 -23 70 -29q28 -5 74 -5q102 0 144 88q25 53 25 125q0 58 -51 121q-22 28 -55 49
q-28 18 -41 18q-67 0 -131 -30q-55 -26 -76 -64q-9 -16 -11.5 -38.5t-5.5 -43.5z" />
    <glyph glyph-name="q" unicode="q" horiz-adv-x="505" 
d="M453 269q0 -113 6 -165q8 -64 9 -93q1 -23 -3.5 -57t-4.5 -48q0 -31 12 -63q-1 0 -1 -15q-1 -12 6 -14t14 7l8 12q8 6 67 67q39 39 59 39q23 0 23 -13q0 -17 -23 -31q-46 -26 -88 -67q-34 -37 -114 -112q-4 -3 -15 -2q-12 2 -14 10q-2 6 7.5 11.5t13.5 11.5q17 30 17 75
v169q-4 83 -8 80q-35 -31 -90 -54q-63 -25 -119 -25q-89 0 -140 93q-44 81 -44 190q0 105 64 141q41 23 127 23q55 0 78 -9q45 -17 103 -82q18 -20 19 -20q4 0 1 46q-4 59 -4 57q0 21 1 26q4 11 19 11q18 0 21 -23q2 -14 -2 -65q-5 -64 -5 -111zM161 395q-100 0 -100 -136
q0 -84 38 -150q51 -88 116 -88q68 0 129 31q71 37 71 94q0 8 -10.5 27.5t-10.5 42.5q0 12 4.5 22.5t4.5 24.5q0 36 -30 72.5t-79 52.5q-57 19 -81 19q-10 0 -26 -6t-26 -6z" />
    <glyph glyph-name="r" unicode="r" horiz-adv-x="393" 
d="M251 469q52 3 85 -55q29 -50 29 -112q0 -34 1 -31q-4 -22 -23 -22q-18 1 -19.5 16.5t-2.5 32.5q-9 76 -15 93q-18 51 -62 51q-50 0 -102 -49q-35 -34 -48 -60q-10 -19 -13 -59q-2 -30 -3 -50v-186q0 -2 1 -10.5t1 -13.5q0 -26 -22 -26t-22 37v372q0 36 17 49q14 11 30 5
q8 -4 8 -18q0 -6 -1.5 -18.5t-1.5 -18.5q0 -10 5 -14q-1 1 19 21q24 25 52 41q41 24 87 25z" />
    <glyph glyph-name="s" unicode="s" horiz-adv-x="431" 
d="M171 469q54 0 108 -13q75 -19 74 -55v-14q-1 -9 -12 -9q-4 0 -9 1l-32 34q-37 31 -119 31q-41 0 -74.5 -25.5t-33.5 -53.5q0 -48 80 -58q55 -5 111 -9q42 -12 82 -56q54 -57 54 -134q0 -75 -54 -104q-38 -20 -113 -20q-74 0 -136 40q-66 42 -66 98q0 7 2 15q14 15 16 15
q16 0 20 -28q6 -39 36 -70q38 -39 139 -39q124 0 124 101q0 30 -26 76q-32 55 -74 72q-17 8 -85 13.5t-98 18.5q-46 21 -46 69q0 36 43 70t89 34z" />
    <glyph glyph-name="t" unicode="t" horiz-adv-x="431" 
d="M213 677q13 0 19 -28q1 -8 -1 -18q-4 -15 -5 -18q-7 -41 -18 -133q-2 -34 26 -37q51 -5 141 -3q23 0 18 1q12 -1 12 -13q1 -11 -4 -14.5t-21 -7.5q-8 -2 -53 2q-85 8 -99 4q-20 -7 -20 -38q0 -6 1.5 -20.5t1.5 -20.5q0 -30 -7 -90q-8 -70 -9 -95q-1 -12 0 -30
q2 -21 2 -31v-26q1 -16 1 -26q0 -5 2 -15.5t1 -15.5q-1 -7 -8 -12t-17 -5q-17 0 -24 17q-4 9 -1 34q5 39 5 45q2 22 5 71q1 11 7 89q4 49 4 90v41q-1 22 -6.5 28.5t-21.5 6.5q-7 0 -32 -2.5t-44 -2.5q-50 0 -46 19q4 18 44 18q9 0 29 -1.5t30 -1.5q40 0 47 21q1 34 7 120
q5 65 5 68q6 29 29 30z" />
    <glyph glyph-name="u" unicode="u" horiz-adv-x="469" 
d="M377 521q11 0 19 -10t7 -22q-4 -52 -3 -133q0 -77 3 -101q1 -5 13 -9t12 -20q0 -12 -20 -102q0 1 7 -38t7 -51q0 -25 -7.5 -31.5t-31.5 -6.5q-9 0 -10 14q1 -6 1 64q-66 -93 -174 -93q-101 0 -140 51q-31 39 -31 128q0 47 18.5 111.5t41.5 112.5q12 20 30 52q13 27 14 28
q5 9 14 9q7 0 16.5 -7t9.5 -20q0 -6 -38 -67.5t-38 -71.5q-30 -98 -30 -169q0 -50 21 -82q25 -38 65 -38q75 0 94 5q56 15 92 61.5t39 131.5q0 12 -5 39.5t-6 54.5q0 31 -3 90q-1 16 -7 51q-5 29 -5 37q0 12 7 22t18 10z" />
    <glyph glyph-name="v" unicode="v" horiz-adv-x="447" 
d="M391 445q15 12 27 9q14 -4 14 -16q0 -8 -6 -22q-8 -19 -9 -23q-5 -10 -15 -33q-49 -116 -124 -291q-4 -7 -10 -23q1 -10 -1 -28q-11 -32 -33 -32q-9 0 -14.5 8.5t-4.5 17.5q3 25 -9 51q-23 59 -47 117q-42 102 -97 202q-9 15 -24 42q-5 8 -11 16t-4 15q3 9 12.5 15.5
t18.5 4.5q8 -2 11.5 -11t7.5 -19q35 -77 111 -230q16 -40 44 -108q2 -4 4 -16q1 -7 7 -7q4 0 14 16q15 25 72 169q19 49 40 109q6 20 12 41t14 26z" />
    <glyph glyph-name="w" unicode="w" horiz-adv-x="786" 
d="M392 445q6 9 16 9q15 0 15 -16q0 -4 -3.5 -15.5t-3.5 -19.5q0 -5 2 -10q11 -39 38 -86t52 -92q22 -40 60 -137q17 18 38.5 75.5t42.5 115.5q16 45 57 147q5 16 10 31.5t24 15.5q8 0 17 -7.5t6 -14.5q-10 -25 -112 -262q-12 -26 -42 -90q-17 -37 -16 -43q2 -18 -9.5 -38.5
t-22.5 -20.5q-11 4 -24 19q2 14 1 45l-43 91l-99 210l-98 -238q-29 -69 -29 -68v-24q-3 -15 -14 -25t-20 -10q-13 -2 -17 8q-10 24 -4 56q0 1 -31 72q-73 169 -123 274q-13 12 -32 38q-11 23 -8 34q6 22 32 16q8 -2 11 -11.5t6 -19.5q38 -81 116 -239q21 -40 58 -131
q20 22 47 89q18 48 36 95t50 135q2 14 16 42z" />
    <glyph glyph-name="x" unicode="x" horiz-adv-x="446" 
d="M153 466q11 -27 36 -87q17 -40 48 -113q9 7 49 65q58 82 63 90q13 18 26.5 36t27.5 18q5 0 11 -6.5t6 -9.5t-37 -48q-50 -61 -71 -89q-49 -63 -49 -78q0 -8 80 -108q77 -97 77 -110q0 -22 -2.5 -24t-19.5 -2q-8 0 -25 31q-28 51 -49 80q-79 111 -90 111q-20 -30 -56 -80
q-39 -45 -94 -115q-15 -24 -19 -28q-11 -11 -31 -11q-6 0 -6 20q0 12 46 46q13 27 36 51q34 37 48 55q53 70 53 91q0 29 -46 112q-13 22 -25.5 45t-12.5 40q0 26 15 26q7 0 11 -8z" />
    <glyph glyph-name="y" unicode="y" horiz-adv-x="442" 
d="M98 451q18 19 25 19q4 0 9 -2t7 -11t-1.5 -17t-14 -17t-14.5 -16q-38 -71 -38 -216q0 -39 3 -86q4 -80 115 -80q55 0 98 22q39 19 50 45q14 32 25 126q10 87 10 157q0 12 -4 31.5t-4 28.5q0 8 2 17q3 13 6 14.5t19 1.5q7 0 13.5 -9.5t6.5 -20.5q0 -33 -4.5 -120
t-4.5 -119q0 -39 -6.5 -55.5l-6.5 -16.5q0 -4 3 -12q0 -3 4 -9.5t4 -10.5q0 -7 -6 -16.5t-7 -13.5l-18 -136q-19 -92 -65 -142q-59 -66 -169 -66q-54 0 -92.5 34t-38.5 87q0 31 31 67q4 4 10 3q9 -3 6 -18q-2 -11 -8 -24t-6 -28q0 -40 28.5 -65t69.5 -25q119 0 165 90
q26 51 33.5 80t8.5 86q0 3 4 16t2 14q3 -2 -41 -25q-51 -27 -107 -27q-84 0 -129 45q-42 42 -42 113v74q5 86 15 129q16 63 54 104z" />
    <glyph glyph-name="z" unicode="z" horiz-adv-x="401" 
d="M62 468q6 2 39 -12q38 -16 82 -16q24 0 71.5 6t71.5 6q28 0 28 -9q0 -53 -45 -141q-43 -78 -87 -156q-38 -68 -46 -100q16 -2 43 -4q45 -1 99 14q14 4 31 0q19 -4 22 -14q3 -15 -43 -27q-27 -8 -53 -8q-19 0 -48 5t-41 5q-4 0 -12.5 2t-12.5 2q-9 0 -16 -7t-13 -32
q-5 -20 -17 -25q-21 -12 -29 -8q-16 13 -6 29q11 17 12 29q-8 4 -37 -7q-20 -7 -22 11q-5 27 26 27q5 0 17 -2t19 -2q9 0 18 2.5t16 18.5q19 37 59 96q60 85 95 186q15 43 18 79q-19 2 -57 4q-24 0 -70 -3t-64 -3q-56 0 -62 23q-2 12 3.5 21t10.5 10z" />
    <glyph glyph-name="braceleft" unicode="{" horiz-adv-x="328" 
d="M264 692q52 0 52 -20q0 -6 -5.5 -11t-37 -8.5t-46.5 -13.5q-23 -16 -40 -93q-14 -63 -14 -109q0 -15 2.5 -42.5t2.5 -38.5q0 -18 -3 -30t-17.5 -31.5t-14.5 -32.5v-36q0 -54 -10 -118.5t-10 -101.5q0 -26 19 -53q20 -31 50 -35q14 -2 37.5 7t27.5 9q38 0 42 -17
q3 -12 -22.5 -24t-59.5 -12q-84 0 -112 65q-19 43 -19 155q0 3 7 22.5t9 30.5q14 83 0 98q-5 5 -42.5 8.5t-41 6t-4.5 8.5q-1 7 3 9.5t44 6t57 13.5q31 19 31 62v79q7 56 16 148q4 40 33.5 69.5t65.5 29.5z" />
    <glyph glyph-name="bar" unicode="|" horiz-adv-x="318" 
d="M165 711q6 -55 6 -114q0 -46 -5 -127q-5 -86 -5 -127q6 -97 8 -314q0 -7 3 -23.5t3 -22.5q0 -14 -10 -17q-2 -1 -23 -1h1q-13 0 -14 18l2 34q4 87 4 84q0 29 -8 166q-1 24 6.5 131.5t4.5 175.5q-1 23 -7 76q-5 44 -4 56l4 16q1 5 8 5q7 1 16 -5t10 -11z" />
    <glyph glyph-name="braceright" unicode="}" horiz-adv-x="328" 
d="M94 -107q-54 -5 -54 16q0 5 4.5 10t36 11t44.5 17q33 28 37 182q1 22 -8 59.5t-9 51.5q0 15 6 25q27 57 23 101q-3 33 -3 64q0 24 2 61t2 56q0 20 -1 40q-3 29 -17 52q-18 29 -48 32q-8 0 -28 -3.5t-28 -3.5q-23 0 -23 16q0 15 58 20q82 7 108 -53q12 -28 23 -151
q0 -4 -5 -22q-5 -21 -6 -32q-6 -85 9 -98q5 -5 39.5 -6.5t38.5 -3.5t6 -12q2 -11 -1 -14t-41 -4.5t-54 -12.5q-30 -23 -26 -65q3 -24 7 -79q2 -58 0 -97q-3 -46 -3 -51q0 -41 -26.5 -72t-62.5 -34z" />
    <glyph glyph-name="asciitilde" unicode="~" horiz-adv-x="454" 
d="M329 477q2 1 7 12q4 8 8.5 12t12.5 4q7 0 14 -7.5t7 -11.5q0 -3 -14 -23q-18 -25 -38.5 -46t-38.5 -26q-18 -7 -32 8q-6 6 -27 39q-15 24 -27 24q-2 0 -37 -31q-11 -14 -22 -27q-13 -16 -29 -17q-10 4 -19 12q0 14 17 27q28 23 33 29l26 34q18 20 39 20q5 0 23 -26
q26 -36 31 -42q14 -17 22 -17q9 0 44 53z" />
    <glyph glyph-name="dagger" unicode="&#x2020;" horiz-adv-x="337" 
d="M180 685q13 1 19 -27q2 -8 -1 -19q-4 -15 -4 -18q-4 -18 -12 -88q-3 -35 25 -37q39 -4 59 -3q24 0 19 1q11 -2 12 -13t-6 -16q-3 -2 -19 -6q-6 -1 -25 3q-22 4 -32 4q-33 0 -33 -39q0 -7 1 -21t1 -21q0 -30 -5 -90q-6 -74 -7 -94q-1 -12 0 -30q2 -21 2 -31v-26
q1 -16 1 -27q0 -5 1.5 -15.5t1.5 -14.5q-1 -7 -8 -12t-17 -5q-17 0 -25 17q-3 8 0 34q4 39 5 45q2 22 5 70q8 146 7 179v42q0 22 -5.5 29t-7.5 8q-3 1 -13 0q-19 -1 -35 -1q-50 0 -46 19q3 16 44 16q11 0 25.5 -2.5t17.5 -2.5q14 0 20 19q-1 12 2.5 76.5t3.5 66.5
q6 30 29 30z" />
    <glyph glyph-name="cent" unicode="&#xa2;" horiz-adv-x="486" 
d="M297 668q9 0 16.5 -11t7.5 -19q0 -7 -11 -40t-11 -43q0 -7 4 -7q36 0 77 -18q61 -28 61 -82q0 -1 2 -12.5t2 -18.5q0 -15 -9 -19q-20 -8 -27 1l-18 64q-19 51 -70 51q-21 0 -32 -41q-8 -28 -16 -105q-7 -41 -13 -83q-8 -54 -5 -96q-1 12 -2 -36q0 -20 10 -20q5 0 36 22.5
t49 22.5q17 0 18.5 -2.5t1.5 -15.5q0 -19 -23 -30q-7 -3 -50 -15q-19 -5 -39.5 -17t-21.5 -19v-58q-3 -46 -29 -46q-18 0 -18 24q0 4 8.5 37t8.5 42q0 3 -1 4q-35 10 -100 39q-61 37 -61 118q0 94 116 230q26 32 54.5 40.5t40.5 22.5q17 21 25 84q6 52 19 52zM72 205
q13 -33 46.5 -56t68.5 -23q25 0 37 81q7 74 14 149q5 48 5 135q-19 -12 -37 -26q-43 -33 -71 -74.5t-47 -98.5q-18 -51 -18 -77q0 -7 2 -10z" />
    <glyph glyph-name="sterling" unicode="&#xa3;" horiz-adv-x="498" 
d="M141 314q37 0 102.5 13.5t78.5 13.5q43 0 40 -24q-2 -18 -40 -18q-4 0 -10.5 3t-10.5 2q-24 -2 -69 -14q-40 -10 -94 -13q0 -23 -5 -51q-5 -33 -6 -40q-7 -63 -7 -115q0 -17 21 -18q84 0 164 -11q116 -15 121 -16q53 -10 50 -27q0 -14 -6 -20t-31 -3q11 0 -102.5 24
t-181.5 24q-31 0 -43 -13q-3 -3 -13 -29q-7 -18 -18 -14q-7 4 -9 12q-3 21 -4 24q-32 -4 -35 9q-4 12 9.5 16.5t29.5 9.5q12 0 12 20q8 50 19 164q3 59 3 54q-6 0 -21 -1h-23q-13 0 -24.5 6t-11.5 14t13.5 15.5t33.5 7.5q9 0 20 -1t14 -1q0 27 2 52q-10 29 -32 69
q-15 27 -13 39q2 15 31 39q-12 89 -12 98q0 41 45 71q41 27 85 27q66 0 116 -64q39 -48 39 -87q0 -21 -7 -48q0 -19 -32 -19q-8 0 -14 11t-6 20q0 8 10 24t10 27q0 41 -33 70t-75 29q-9 0 -18 -1q-49 -9 -62 -17q-28 -17 -23 -64q0 13 11.5 -79t11.5 -178v-22zM141 314z" />
    <glyph glyph-name="section" unicode="&#xa7;" horiz-adv-x="431" 
d="M55 324q3 33 49 64q40 27 92 40q22 6 46 6q57 0 99 -26q-27 75 -77 96q-17 8 -84.5 13.5t-95.5 18.5q-44 21 -40 69q3 36 49 70t91 34q35 0 99 -18q80 -22 78 -50q0 -7 -1.5 -15t-12.5 -8q-4 0 -8.5 0.5t-17.5 19t-35 29.5q-34 17 -93 17q-41 0 -77 -25.5t-38 -53.5
q-5 -47 74 -56q56 -4 111 -8q40 -12 77 -57q49 -59 42 -136q-7 -80 -80 -107q101 -63 92 -174q-7 -75 -63 -104q-40 -20 -115 -20q-77 0 -129 39t-52 101q-3 25 2 26.5t10 1.5q16 0 17 -28q2 -38 30 -70q33 -39 135 -39q124 0 133 101q3 28 -21 74q-26 52 -65 74
q-18 11 -74 13q-60 2 -81 10q-71 27 -66 78zM352 353q0 51 -130 51q-42 0 -86.5 -26.5t-47.5 -53.5q-4 -46 57 -58q27 -6 114 -6q34 0 63.5 29t29.5 64z" />
    <glyph glyph-name="bullet" unicode="&#x2022;" horiz-adv-x="420" 
d="M214 516q32 0 43 -8q22 -14 26 -15q48 -17 59 -26q23 -19 23 -61q0 -71 -50 -137q-47 -60 -109 -60q-40 0 -77 14q-43 17 -58.5 46t-15.5 82q1 14 5 29q10 36 33 65q51 70 121 71z" />
    <glyph glyph-name="paragraph" unicode="&#xb6;" horiz-adv-x="526" 
d="M436 661q-1 0 8 12t27 12q13 0 13 -14q0 -7 -5 -22q33 -12 26 -32q-4 -14 -20 -14q-6 0 -13 2q-1 -1 -27 -108q-5 -23 -8.5 -77.5t-0.5 -75.5v-80q0 -95 4 -221q0 -7 6.5 -29t6.5 -32q0 -27 -33 -27q-19 0 -19 42q0 12 2 41q2 26 1 37q-2 74 -5 168q-6 68 -6 95
q0 40 6 66q4 52 9 116q8 36 19 97l-39 10q-4 -14 -10 -31.5t-11 -45.5q-7 -38 -8 -44q-6 -26 -6 -61q-7 -41 -7 -68q0 -16 2 -23v-80q0 -119 5 -221q3 -24 8 -73q1 -32 -19 -32q-16 0 -19 10q-9 27 -8 62q2 66 2 64q-2 75 -5 169q-3 26 -39 38q-45 10 -139 43
q-108 49 -108 167q0 82 70 143q66 58 142 58q44 0 87 -11q6 -2 22 -6q4 0 5 4q0 8 3 12q7 14 22 14q10 0 14 -16q2 -12 5 -24q9 -4 40 -14zM325 647q-35 12 -90 20q-21 4 -54 -9q-47 -18 -73 -45q-49 -53 -49 -109q0 -78 69 -132q23 -18 60 -28q5 -2 72 -16q9 -1 16 -1
q34 0 37 36q1 59 5 130q6 43 18 115q7 32 -11 39z" />
    <glyph glyph-name="germandbls" unicode="&#xdf;" horiz-adv-x="400" 
d="M91 233q0 -18 -1 -68t-1 -65q0 -1 3 -37q2 -27 0 -45q-1 -18 -3 -36.5t-15 -22.5q-9 -2 -17.5 6t-8.5 18q0 7 4 65.5t4 63.5q0 -9 3 66q3 70 2 109q0 8 -1 23t-1 18q0 56 -1 132v89q0 37 -2 48q-1 6 -8 17t-7 19q0 9 1.5 12.5t11.5 14.5q1 1 9 23q6 17 17 19
q12 3 27 -10.5t41 -13.5q216 0 216 -185q0 -54 -14.5 -83t-55.5 -55q-15 -4 -30 -15q0 -2 11 -13l12 -12q41 -56 54 -79q27 -53 27 -109q0 -63 -32.5 -93.5t-102.5 -39.5q-16 -3 -31 -6q-17 -3 -31 0l-26 8t-11 15q3 16 28 16h62q68 0 95 33q20 24 20 66q0 16 -3 31
q-18 90 -75 147q-24 24 -72 18q-13 -2 -13 15q0 12 10 15l64 12q38 9 57 34q26 33 26 100q0 49 -24 87q-27 43 -75 51q-8 0 -20 2q-4 1 -12 5.5t-20 4.5l-21 1q-16 1 -26 0q-14 -1 -20 -6q-20 -14 -20 -29q2 -21 0 -63q-3 -55 -3 -67q0 -34 1 -74t1 -50q-3 -25 -3 -127z" />
    <glyph glyph-name="acute" unicode="&#xb4;" horiz-adv-x="448" 
d="M295 686q-7 -10 -31.5 -22.5t-49.5 -25.5q-12 -7 -38 -31q-17 -17 -35 -15q-26 1 -17 25q5 13 38 31l58 33q10 7 37 33q18 18 31 18q20 0 20 -16q0 -11 -13 -30z" />
    <glyph glyph-name="dieresis" unicode="&#xa8;" horiz-adv-x="300" 
d="M222 732q17 0 24.5 -4.5t7.5 -23.5q0 -38 -36 -38q-33 0 -33 28q0 38 37 38zM83 726q18 0 24 -3q9 -6 9 -24q0 -38 -37 -38q-32 0 -32 27q0 38 36 38z" />
    <glyph glyph-name="AE" unicode="&#xc6;" horiz-adv-x="858" 
d="M516 684v-14q0 -7 3 -7q6 0 26 4.5t26 4.5q17 0 98 19.5t116 19.5q9 0 18.5 -6t9.5 -14q0 -13 -14 -13q-15 -12 -34 -13q29 1 -40 1q-59 -8 -102 -15q-104 -17 -107 -25q-4 -67 1 -193q1 -21 3 -44q5 -6 38 -6h87q24 -3 128 -11q28 -3 20 -3q7 -5 8 -16t-6 -16h-22
q-126 20 -190 20q-21 0 -34 -2q-9 1 -24 -3q0 -1 -5 -32q-9 -61 -9 -235q0 -37 2 -39q25 -1 69 -1q51 0 111.5 4.5t54.5 4.5q7 0 28 4q17 4 31 1q27 0 30 -7q3 -9 -4.5 -19t-15.5 -10h-165q-9 0 -24.5 -2t-21.5 -2q-19 0 -41 -2.5t-26 -2.5t-30 -5v-13q-1 -6 -3 -10.5
t-17 -4.5q-6 0 -7 9q-1 15 -2 17t-10.5 3t-10.5 8q-2 14 8 18t10 8q4 50 4 179q0 56 1 132q-4 3 -49 3q-66 0 -128 -7q-22 -29 -91 -134q-52 -86 -149 -226q-18 -27 -26 -27q-16 0 -16 18q0 6 7 11l11 11q155 232 196 299q21 34 21 38q0 2 -3 2h-46q-4 0 -4 17q10 17 17 17
q11 4 30 4q23 -1 30 0q6 1 10 4q46 68 93 136q91 134 99 159q2 5 2 10q0 7 -6 16.5t-6 13.5q-2 22 20 22q17 0 20 -15q-1 -13 2 -43zM332 394q-4 -9 9 -10q-17 1 23 1q60 0 92 3q7 1 31 6q-4 24 -1 51q6 43 -3 169q-4 -13 -21 -41q-24 -26 -64 -75q-54 -77 -66 -104z" />
    <glyph glyph-name="Oslash" unicode="&#xd8;" horiz-adv-x="650" 
d="M192 35q-9 5 -28 17q-77 53 -104 109q-20 42 -20 120q0 161 94 293q104 145 259 148q26 1 55 -11q8 31 17 49q5 9 11 18q3 5 11 5q24 0 24 -19q-7 -32 -24 -75q54 -35 91 -100q35 -61 35 -112v-168q0 -38 -24 -98q-26 -67 -67 -119q-15 -20 -29 -39q-18 -22 -34 -33
q-38 -25 -111 -25q-59 0 -119 21q-4 -22 -9.5 -44t-19.5 -26t-31 -1q-9 2 -9 12q0 9 17 44q15 31 15 34zM438 674q-13 9 -57 22q-103 8 -199 -108q-49 -59 -81 -131t-32 -120v-23q-1 -19 -1 -32q0 -77 30 -120q9 -16 19 -32q15 -26 22 -24.5t21 -9.5q30 -23 41 -30l10 11
q17 19 29 58q22 70 43 139q8 25 60 145t77 195q7 20 18 60zM239 58q2 -7 13 -5q53 9 53 -16q0 -6 -7 -11t-6 -6q1 -3 12 0q97 0 139 24q59 34 106 150q20 48 24 66q3 12 4 46q0 14 4.5 37.5t4.5 35.5q0 210 -115 277q-15 -41 -117 -296q-36 -97 -115 -302z" />
    <glyph glyph-name="yen" unicode="&#xa5;" horiz-adv-x="558" 
d="M259 167q0 28 1 90q-13 0 -47 -2t-56 -2q-35 0 -35 19q0 8 15.5 18t34.5 10q12 0 24.5 -7.5t24.5 -7.5q6 0 19.5 1t19.5 1q0 32 -3 47q-7 33 -33 66q-43 55 -47 62q-41 66 -69 102q-19 23 -37 45q-10 8 -17 15q-17 18 -19 32l-2 13q-1 8 2 13q7 9 34 0q3 -1 22 -26.5
t67 -105t75 -115.5q11 -16 23 -32q19 -24 31 -24q3 0 45 68q25 38 113 179q49 80 71 80q12 0 12 -15q0 -8 -8 -20q-11 -17 -13 -19q-9 -22 -61 -93q-59 -83 -99 -157q-13 -19 -35 -53q-25 -42 -25 -47t8 -5q11 0 55.5 6t53.5 6q44 0 38 -23q-4 -17 -38 -17q-5 0 -11.5 4
t-10.5 4q-12 -5 -89 -18v-2q2 -22 1 -47q-2 -38 -2 -46l36 -2q22 -2 40 2t25 4q22 0 22 -25q0 -17 -19 -19q3 0 -31 0q-6 0 -73 17q0 -11 1.5 -34t1.5 -32.5t1.5 -23t1.5 -23.5q0 -35 -15 -35q-11 0 -25 26q-6 11 -4 28l3 30q0 19 2 71q-5 0 -17.5 1.5t-19.5 1.5
q-8 0 -35 -7t-39 -7q-19 0 -23 14q13 28 76 28q20 0 58 -12z" />
    <glyph glyph-name="ordfeminine" unicode="&#xaa;" horiz-adv-x="296" 
d="M246 692q16 0 16 -8q1 -7 -3.5 -24.5t-4.5 -27.5q0 -5 1.5 -18.5t1.5 -26.5q0 -9 -2 -32.5t-2 -45.5q0 -7 8.5 -24.5t8.5 -24.5q0 -11 -15 -15q-9 -2 -12.5 17t-14.5 20l-28 -19.5t-65 -19.5q-29 0 -64 24q-42 29 -42 70q0 61 24 101q28 47 80 47q34 0 57 -10
q14 -6 26 -19q9 -9 12 -9q4 1 5 22t13 23zM246 415q31 0 30 -18q-1 -8 -11 -12q-11 -4 -19 0q-1 2 -7 3q1 0 -8 -1q-19 -1 -64 -12q-34 -8 -109 -8q-26 0 -26 15q0 6 11 13.5t24 7.5q10 0 19.5 -4t19.5 -4q27 0 79 10t61 10zM63 547q0 -27 19 -49.5t51 -22.5q45 0 63 24
q12 16 17 54q8 62 -14 75q-13 10 -27 20q-9 6 -33 6q-36 0 -57 -35q-19 -30 -19 -72z" />
    <glyph glyph-name="ordmasculine" unicode="&#xba;" horiz-adv-x="315" 
d="M162 685q22 0 30 -5q3 -6 15 -16q46 -14 56 -21q25 -16 25 -50q0 -77 -37 -121t-95 -44q-41 0 -77 24q-50 33 -50 95q36 138 133 138zM259 401q31 0 29 -18q0 -8 -11 -12q-10 -3 -18 1q-2 1 -7 3q0 -1 -9 -1q-18 -2 -63 -12q-34 -8 -109 -8q-27 0 -27 14q0 7 11 14t25 7
q9 0 19 -4t20 -4q27 0 78.5 10t61.5 10zM63 535q0 -30 30.5 -52t67.5 -22q45 0 71 41q23 35 23 81q0 29 -37 41q-3 1 -12.5 6.5t-13.5 3.5q-10 -6 -21 -1q-5 1 -12.5 8l-7.5 7q-37 0 -64 -42q-24 -37 -24 -71z" />
    <glyph glyph-name="ae" unicode="&#xe6;" horiz-adv-x="905" 
d="M481 117q0 -3 -1 -10.5t-1 -9.5q0 -16 7.5 -48.5t7.5 -42.5q0 -19 -18 -15q-13 2 -21.5 28.5t-21.5 26.5q-7 0 -32 -13q-30 -17 -57 -26q-45 -13 -100 -13q-64 0 -126 34q-83 46 -83 128q0 116 55 202q59 93 150 93q69 0 117 -20q33 -13 56 -36q19 -19 20 -19
q12 0 16 43.5t18 44.5q8 1 20 -6.5t13 -12.5q1 -8 -9 -40q-12 -35 -12 -56q0 -6 2 -21t2 -22q31 70 82 115q58 52 121 52q82 0 129 -86q33 -60 33 -112q0 -26 -23 -26q-6 0 -20.5 2t-23.5 2q5 0 -152 -10q-33 1 -67 1q-51 0 -59.5 -11t-8.5 -64q0 -37 66 -99.5t111 -62.5
q72 0 111 37q24 31 47 61q6 7 11.5 14.5t13.5 7.5q25 0 25 -20q0 -30 -63 -77q-71 -54 -145 -54q-43 0 -101 42t-89 99zM66 167q0 -64 48.5 -104t129.5 -40q114 0 163 52q29 30 41 98q13 65 -1 116q-4 22 -9 43t-24 29q-24 10 -75 46q-30 21 -79 21q-90 0 -145 -84
q-49 -75 -49 -177zM515 275q77 -3 119 0q52 2 103 4q58 4 58 26q0 45 -27 82q-37 54 -77 54q-65 0 -115 -48q-28 -27 -44.5 -61.5t-16.5 -56.5z" />
    <glyph glyph-name="oslash" unicode="&#xf8;" horiz-adv-x="581" 
d="M384 474q24 47 24 50q7 8 13 17q3 4 10 4q18 0 18 -17q-8 -21 -31 -71q130 -45 131 -145q2 -153 -72.5 -241.5t-192.5 -88.5q-51 0 -107 23q-6 -16 -13.5 -33.5t-18.5 -19.5q-16 -5 -24 -1q-8 3 -8 9t23 42q0 3 4.5 9t4.5 9q-112 65 -112 198q19 80 51 137
q78 138 208 138q48 0 61 -4q8 -1 31 -15zM189 31q44 -19 102 -19q108 0 171 101q54 86 54 196q0 38 -28 70q-22 24 -50 37q-14 6 -32 16q-50 -104 -217 -401zM369 442q-10 11 -28 9q-2 -2 -6 -2q-10 0 -35.5 6l-25.5 6q-86 0 -149 -101q-54 -87 -54 -172q0 -88 88 -145
q85 148 210 399z" />
    <glyph glyph-name="questiondown" unicode="&#xbf;" horiz-adv-x="389" 
d="M171 -298q-74 0 -100 50q-22 39 -22 132q0 54 31 97q26 37 75 70q46 31 88 44q27 8 26 38q0 24 -24 68q-26 50 -31 78q-3 7 -5.5 15t-0.5 14q3 6 11.5 9t13.5 2q15 -5 21 -28q4 -17 7 -33q41 -110 41 -130q0 -70 -62 -64q-19 2 -55 -22q-40 -27 -76 -70q-40 -51 -37 -121
q1 -38 21.5 -77.5t54.5 -39.5h61q47 9 67 20q31 19 31 55q0 12 -11.5 31t-11.5 49q0 23 18 23q9 0 21 -19q21 -32 21 -74q0 -53 -48 -85t-125 -32zM196 363q-14 0 -31 20q26 31 35 31q19 -17 19 -23q0 -5 -9.5 -16.5t-13.5 -11.5z" />
    <glyph glyph-name="exclamdown" unicode="&#xa1;" horiz-adv-x="205" 
d="M66 -303q-14 0 -21.5 7t-7.5 15q0 4 4.5 20t5.5 29q16 188 53 365q5 23 5 51q0 13 -1.5 33.5t-1.5 27.5q0 32 22 34q9 1 18 -30q3 -9 -14.5 -154t-24.5 -174q-13 -60 -19 -160q-4 -65 -18 -64zM126 347q-10 0 -23 9.5t-17 22.5q-3 12 11.5 24t38.5 12q15 0 19 -5t8 -22
q1 -4 1 -9q0 -32 -38 -32z" />
    <glyph glyph-name="florin" unicode="&#x192;" horiz-adv-x="388" 
d="M101 3q33 107 70 249q2 32 5 68q0 6 -9 6t-35.5 -8t-34.5 -8q-7 0 -7 5q0 2 2 5q9 19 48 31q47 14 46 30l2 147q1 61 32 127q28 60 64 93q66 61 123 61q36 0 55 -41q17 -34 17 -77q0 -54 -22 -54q-15 0 -8 42q5 25 -10.5 63t-36.5 38q-48 0 -101 -53q-57 -57 -70 -132
q-13 -70 -14 -123q2 -38 3 -100q14 0 45 2q20 2 52 17.5t52 16.5q6 1 18.5 4.5t17.5 3.5q8 0 10 -8q2 -11 -10.5 -21.5t-25.5 -11.5q-37 -4 -83 -19q-25 -6 -50 -11q-29 -9 -32 -28q-21 -116 -46 -203l-44 -140q-12 -21 -23 -38q-28 -41 -48 -56q-57 -42 -104 -42
q-45 0 -61 43q-9 27 -9 54q0 40 22 40q15 0 15 -17q0 -4 -1 -16t-1 -20q0 -22 8.5 -40t28.5 -18q37 0 90.5 52t59.5 87z" />
    <glyph glyph-name="guillemotleft" unicode="&#xab;" horiz-adv-x="574" 
d="M304 419q5 0 9.5 -7t3.5 -14q-1 -12 -22 -26q-32 -22 -35 -25q-52 -46 -108.5 -108t-56.5 -72q-1 -8 33 -35q59 -47 126 -91q16 -9 32 -17.5t14 -24.5q-2 -18 -23 -18q-28 4 -83 52q-39 35 -78 69q-2 1 -57 37q-22 14 -22 25q-1 11 30 37q45 36 76 78q3 3 62 60
q87 83 99 80zM524 428q15 -2 12 -22q-2 -12 -23 -24q-34 -20 -37 -23q-54 -45 -113.5 -103.5t-60.5 -68.5q-1 -8 9.5 -17.5t22.5 -18.5q37 -34 120 -97q16 -10 31.5 -19.5t12.5 -26.5q-3 -19 -24 -15q-28 4 -80 55q-38 37 -75 73q-28 20 -55 40q-20 15 -20 26t32 35
q46 35 80 75q2 3 65 57q90 77 103 74z" />
    <glyph glyph-name="guillemotright" unicode="&#xbb;" horiz-adv-x="574" 
d="M266 -26q-14 3 -11 22q1 12 23 24q33 20 37 23q54 45 113.5 103.5t59.5 68.5q1 8 -8 17q-12 10 -23 20q-37 34 -120 96q-17 10 -32 20t-12 26q3 19 24 15q27 -4 80 -55q37 -37 75 -73l54 -40q20 -15 20 -26t-31 -35q-47 -35 -80 -75q-3 -2 -66 -57q-90 -77 -103 -74z
M48 -12q-12 3 -10 24q3 11 25 22q34 18 38 21q58 41 121 95t64 64q1 8 -28 39q-34 35 -113 104q-15 11 -29.5 22t-11.5 26q4 17 25 15q27 -7 76 -61l70 -78q26 -22 51 -44q19 -16 18 -28q-1 -11 -34 -32q-49 -33 -85 -70q-4 -4 -68 -51q-96 -71 -109 -68z" />
    <glyph glyph-name="ellipsis" unicode="&#x2026;" horiz-adv-x="457" 
d="M76 95q7 0 14 -13q10 -16 10 -38q0 -18 -12.5 -32t-27.5 -14q-8 0 -17.5 12.5t-9.5 27.5t14.5 36t28.5 21zM228 87q7 0 14 -13q10 -16 10 -38q0 -18 -12.5 -32t-27.5 -14q-8 0 -17.5 12.5t-9.5 27.5t14.5 36t28.5 21zM389 89q7 0 14 -13q10 -16 10 -38q0 -18 -12.5 -32
t-27.5 -14q-8 0 -17.5 12.5t-9.5 27.5t14.5 36t28.5 21z" />
    <glyph glyph-name="OE" unicode="&#x152;" horiz-adv-x="880" 
d="M540 548v33q0 4 -1 12t-2 12.5t-10 8.5t-9 12q0 19 22 26q4 0 4 22q0 19 5 19q4 0 16 -13q24 -25 29 -25q6 0 17.5 2t16.5 2q18 0 101 19.5t118 19.5q26 0 26 -20q0 -13 -15 -13q-16 -12 -35 -13q29 2 -40 2q-58 -9 -100 -16q-100 -16 -104 -24q-11 -70 -11 -194
q0 -41 2.5 -45t27.5 -4h80q24 -3 126 -12q28 -2 20 -2q8 -6 8 -17q-1 -11 -8 -16h-22q-108 18 -167 18q-31 0 -48 -5q-18 0 -26 -30q-16 -61 -16 -227q0 -6 -2.5 -16t-2.5 -14q0 -21 58 -21q51 0 105.5 4t49.5 4q9 0 26 4.5t25 4.5q5 0 9 -1q8 -1 17.5 -2.5t9.5 -7.5
q3 -9 -5 -17t-17 -7q-20 1 -71 1q-35 0 -86.5 -1.5l-51.5 -1.5q-47 0 -66 -10q-10 -6 -13 -18t-11 -12q-14 0 -19.5 15.5t-10.5 15.5q-12 0 -12 10q0 16 27 25l12 133q-81 -173 -202 -173t-204 90q-77 84 -77 196q0 173 93.5 305.5t227.5 135.5q58 1 113 -55q49 -50 73 -119
zM521 339q-14 0 -14 12q-1 4 -1 8q0 7 15 16q0 153 -39 224q-46 85 -160 85q-86 0 -175 -129q-84 -122 -84 -218v-77q5 -61 29 -98q0 -1 6 -14q4 -9 7 -9q6 0 6 5q0 2 -4.5 9t-4.5 11q0 22 -1 18q2 9 17 9q27 0 27 -35q0 -8 8 -31q10 -29 24 -43q10 -10 33 -10h14q10 1 14 1
q28 0 28 -22q0 -6 -7.5 -11t-7.5 -8q-1 -4 9.5 -8.5t19.5 -3.5q76 6 111 29q58 38 100 151l20 52t10 52v35z" />
    <glyph glyph-name="oe" unicode="&#x153;" horiz-adv-x="972" 
d="M554 323q31 59 78 95q51 39 109 39q82 0 129 -85q33 -61 33 -113q0 -25 -24 -25q-5 0 -20 1.5t-23 1.5q5 0 -152 -10q-33 1 -67 2q-50 -1 -59.5 -12.5t-9.5 -62.5q0 -38 66.5 -100t110.5 -62q73 0 112 37q23 30 47 60q5 8 11 15.5t13 7.5q26 0 26 -20q0 -31 -63 -78
q-71 -54 -146 -54q-51 0 -116 54q-68 57 -89 123q-69 -155 -232 -155q-72 0 -149 47q-100 60 -100 160q0 13 2 27q14 101 56 168q69 109 204 109q53 0 60 -12q4 -6 9.5 -13.5t21.5 -12.5q94 -33 107 -41q51 -30 55 -91zM569 259q280 -2 280 30q0 45 -26 83q-37 53 -78 53
q-65 0 -114 -48q-28 -27 -45 -61.5t-17 -56.5zM75 188q0 -69 67.5 -122.5t152.5 -53.5q108 0 172 101q53 86 53 196q0 69 -83 100q-5 2 -30 16q-18 10 -29 10q-5 0 -12 -4.5t-15 -4.5q-14 0 -31 8q-3 0 -21.5 13.5t-20.5 13.5q-86 0 -149 -101q-54 -87 -54 -172z" />
    <glyph glyph-name="endash" unicode="&#x2013;" horiz-adv-x="521" 
d="M428 277q43 0 40 -24q-2 -20 -28 -20q-7 0 -12 2.5l-15 7.5q2 0 -55.5 -5.5t-113.5 -11.5q-44 -4 -155 -4q-12 0 -23.5 6t-11.5 14q0 9 14.5 19t33.5 10q14 0 28 -5.5t27 -5.5q37 0 147 8.5t124 8.5z" />
    <glyph glyph-name="emdash" unicode="&#x2014;" horiz-adv-x="631" 
d="M534 272q43 0 40 -25q-3 -19 -29 -19q-6 0 -11 1q-13 3 -31 7q-5 1 -164 -7q-155 -7 -250 -7q-12 0 -23.5 6t-11.5 14q0 9 14.5 19t33.5 10q15 0 30.5 -5.5t24.5 -5.5q37 0 200 6t177 6z" />
    <glyph glyph-name="quotedblleft" unicode="&#x201c;" horiz-adv-x="301" 
d="M89 573q-18 0 -31 24q-9 17 -9 28q0 31 11 53q15 30 37.5 37t27.5 7q9 0 10 -8q1 -13 -12 -17q-19 -6 -23 -10q-13 -11 -13 -22q0 -5 1.5 -9.5t8.5 -3.5l9 2q27 -9 27 -45q0 -16 -13.5 -26.5t-30.5 -9.5zM203 568q-19 1 -31 24q-9 18 -9 29q0 31 11 53q14 30 37 36.5
t27 6.5q10 0 10 -8q2 -12 -11 -16q-20 -6 -23 -10q-14 -12 -14 -22q0 -5 1.5 -9.5t9.5 -3.5q9 2 9 1q26 -8 26 -44q0 -16 -13 -26.5t-30 -10.5z" />
    <glyph glyph-name="quotedblright" unicode="&#x201d;" horiz-adv-x="301" 
d="M216 745q19 -1 31 -24q9 -17 9 -28q0 -31 -11 -53q-15 -30 -37.5 -37t-27.5 -7q-9 0 -9 8q-2 12 11 17q19 6 23 10q14 11 14 22q0 5 -1.5 9.5t-9.5 3.5l-9 -2q-26 9 -26 44q0 16 13 27t30 10zM100 739q19 -1 31 -24q9 -17 9 -29q0 -31 -11 -52q-14 -31 -37 -37.5
t-27 -6.5q-10 0 -10 8q-1 12 11 16q20 7 23 10q14 12 14 23q0 4 -1.5 9t-8.5 3l-10 -1q-26 9 -26 44q0 16 13.5 27t29.5 10z" />
    <glyph glyph-name="quoteleft" unicode="&#x2018;" horiz-adv-x="194" 
d="M89 573q-18 0 -31 24q-9 17 -9 28q0 31 11 53q15 30 37.5 37t27.5 7q9 0 10 -8q1 -13 -12 -17q-19 -6 -23 -10q-13 -11 -13 -22q0 -5 1.5 -9.5t8.5 -3.5l9 2q27 -9 27 -45q0 -16 -13.5 -26.5t-30.5 -9.5z" />
    <glyph glyph-name="quoteright" unicode="&#x2019;" horiz-adv-x="205" 
d="M100 739q19 -1 31 -24q9 -17 9 -29q0 -31 -11 -52q-14 -31 -37 -37.5t-27 -6.5q-10 0 -10 8q-1 12 11 16q20 7 23 10q14 12 14 23q0 4 -1.5 9t-8.5 3l-10 -1q-26 9 -26 44q0 16 13.5 27t29.5 10z" />
    <glyph glyph-name="fraction" unicode="&#x2044;" horiz-adv-x="318" 
d="M274 711q-13 -84 -45 -190l-54 -178q-20 -97 -75 -314q-3 -19 -5 -38q-3 -22 -16 -26t-23 0q-9 4 -9 14q0 3 11 38q24 76 26 84q6 22 37 166q5 23 40 130.5t50 176.5q7 55 25 132l6 16q3 5 10 5q7 1 14.5 -5t7.5 -11z" />
    <glyph glyph-name="currency" unicode="&#xa4;" horiz-adv-x="590" 
d="M146 515q75 64 154 64q33 0 65 -12q41 -15 51 -21q7 -4 22 -23q17 15 36 36q22 12 25 12q15 -7 10 -22q-13 -15 -48 -50q74 -60 74 -123q0 -20 -8 -40q-32 -90 -86 -143q13 -12 26 -23q18 -15 18 -23q0 -5 -6.5 -8t-23.5 -3q-11 -1 -24 17t-15 19q-62 -49 -135 -49
q-39 0 -77.5 14t-85.5 54q-10 -13 -21.5 -25t-21.5 -10q-6 0 -20 6q-4 4 -4 8q0 6 32 31q0 2 6 5.5t7 6.5q-48 58 -48 126q0 37 14 76q11 19 59 76q-14 18 -40 52q-4 6 0 12q4 7 12 7q7 1 22 -13q4 -2 31 -34zM86 379q-6 -16 -6 -37q0 -75 59 -131q29 -28 78 -47
q29 -11 56 -11q50 0 121 45q63 40 103 146q5 14 5 30q0 47 -38 83q-6 8 -22 22q-11 10 -54 35.5t-48 26.5q-20 8 -42 8q-57 0 -131 -57q-55 -44 -81 -113z" />
    <glyph glyph-name="guilsinglleft" unicode="&#x2039;" horiz-adv-x="388" 
d="M316 414q14 -3 11 -22q-1 -12 -22 -25q-34 -20 -38 -23q-54 -44 -113.5 -103t-59.5 -68q-1 -8 9.5 -17.5t21.5 -19.5q37 -34 120 -97q17 -10 32 -19.5t12 -25.5q-3 -20 -24 -16q-27 5 -80 55q-37 37 -74 73q-28 20 -55 40q-20 15 -20 27q0 11 32 35q46 35 79 74
q3 3 66 57q90 77 103 75z" />
    <glyph glyph-name="guilsinglright" unicode="&#x203a;" horiz-adv-x="388" 
d="M99 -14q-15 0 -15 20q0 12 18 31q30 30 33 34q42 49 122 155q22 34 22 36q0 17 -62 50q-41 20 -115 59q-16 5 -32 11t-17 22q-1 8 6 14t15 6q27 0 88 -40q43 -30 86 -59q32 -15 63 -29q23 -11 23 -23q0 -11 -5 -17q-13 -17 -27 -33q-19 -19 -60 -79q-4 -8 -54 -70
q-69 -88 -89 -88z" />
    <glyph glyph-name="fi" unicode="&#xf001;" horiz-adv-x="408" 
d="M361 552q-27 0 -27 26q0 33 29 30q37 -3 37 -29q0 -27 -39 -27zM325 389q-14 0 -43.5 -11t-57.5 -22q-23 -6 -47 -11q-28 -9 -28 -28q0 -111 13 -231t13 -115q7 -21 7 -35q0 -18 -14 -18q-28 0 -34 23q-2 7 -3 59l-8 245q0 80 -26 80q-10 0 -28 -6q-27 -8 -28 -8
q-8 -2 -12 -1q-3 2 -3 10q2 17 43.5 30.5t41.5 30.5l-28 236q0 61 38 122q43 70 103 70q41 0 66 -54q21 -43 21 -87q0 -28 -15 -47.5t-29 -19.5q-21 0 -9 28q6 4 13 8q10 8 10 42q0 26 -17 62q-20 39 -40 39q-45 0 -76 -53.5t-31 -131.5q0 -178 29 -223q6 -10 45 2
q31 9 63 26q29 15 61 23q17 4 17 24q0 9 9.5 26t20.5 17q3 0 7.5 -2.5t4.5 -27.5l-32 -332q0 -11 6 -30.5t5 -32.5q-3 -22 -16 -45t-22 -23q-20 0 -20 23q0 9 3.5 27.5t3.5 24.5q6 102 23 317z" />
    <glyph glyph-name="fl" unicode="&#xf002;" horiz-adv-x="385" 
d="M306 376q-22 -3 -86 -20q-24 -6 -47 -11q-28 -9 -28 -28q0 -111 13 -231t13 -115q7 -17 7 -31q0 -17 -14 -22q-8 -3 -14 -3q-18 0 -20.5 28t-3.5 57l-7 245q0 46 -13 75q-1 3 -7 3q-7 0 -30 -6.5t-31 -7.5q-9 -1 -13 1t-3 10q2 17 43 30.5t41 30.5l-27 236q0 65 29 122
q36 70 96 70q40 0 61 -54q15 -39 15 -87q0 -28 -14.5 -47.5t-28.5 -19.5q-19 0 -10 28q7 4 13 8q11 8 11 42q0 28 -13 62q-14 39 -34 39q-43 0 -67 -51.5t-24 -133.5q0 -94 15 -159q3 -9 5 -39q1 -19 9 -25q5 -5 19 -3q13 3 25 5q19 2 50 19q28 15 49 15q18 0 22 23v35
q0 51 6 111q3 63 8 96q0 29 12 33q4 2 8 2q23 0 23 -33q0 -10 -9 -104q-10 -97 -11 -154q-1 -75 3 -197.5t2 -200.5q0 -2 4 -17q3 -9 -4 -13q-12 -7 -22 -2q-13 8 -15 34q1 -6 1 34q0 7 -3.5 85t-3.5 236z" />
    <glyph glyph-name="daggerdbl" unicode="&#x2021;" horiz-adv-x="337" 
d="M174 -73q0 -11 1.5 -56t1.5 -55q0 -3 1 -17q1 -9 -0.5 -15t-8.5 -11t-17 -5q-19 0 -27 17q-3 9 0 34q4 35 4 45q0 15 3 35q2 25 3 36q7 164 7 179q0 22 -5 69q-7 8 -9 9t-12 1q-20 -1 -35 -1q-46 0 -46 19q0 15 44 15q11 0 25 -2.5t18 -2.5q14 0 20 19q3 10 3 158
q0 63 -5.5 70t-8 8.5t-12.5 0.5q-19 -1 -35 -1q-46 0 -46 19q0 16 44 16q11 0 25.5 -3t17.5 -3q14 0 20 19q0 12 2 75.5t3 68.5q5 30 28 30q16 0 16 -27q0 -8 -2 -19q-2 -15 -3 -19q-2 -18 -7 -88q-2 -37 25 -37q36 -3 59 -3q28 0 19 1q12 -1 12 -12q0 -16 -25 -22
q-5 0 -24 3.5t-30 3.5q-36 0 -36 -39q0 -7 1 -21t1 -21q0 1 -2 -62.5t-2 -89.5q0 -22 24 -22q36 -3 59 -3q28 0 19 1q12 -1 12 -13q0 -16 -26 -22q-3 0 -29.5 3.5t-39.5 2.5q-14 -2 -18 -13q-2 -5 -5.5 -34.5t-3.5 -77.5q-1 -33 0 -82q2 -53 2 -59z" />
    <glyph glyph-name="periodcentered" unicode="&#xb7;" horiz-adv-x="205" 
d="M114 426q7 0 15 -13q9 -16 9 -38q0 -18 -12 -32.5t-28 -14.5q-8 0 -17 13t-9 27q0 16 14 37t28 21z" />
    <glyph glyph-name="periodcentered" unicode="&#x2219;" horiz-adv-x="205" 
d="M114 426q7 0 15 -13q9 -16 9 -38q0 -18 -12 -32.5t-28 -14.5q-8 0 -17 13t-9 27q0 16 14 37t28 21z" />
    <glyph glyph-name="quotesinglbase" unicode="&#x201a;" horiz-adv-x="205" 
d="M115 82q19 -1 31 -24q9 -17 9 -29q0 -31 -11 -52q-15 -31 -37.5 -37.5t-27.5 -6.5q-9 0 -10 8q-1 12 12 16q19 7 23 10q14 12 14 23q0 5 -1.5 9.5t-9.5 3.5l-9 -2q-26 9 -26 44q0 16 13 27t30 10z" />
    <glyph glyph-name="quotedblbase" unicode="&#x201e;" horiz-adv-x="301" 
d="M216 81q19 -1 31 -24q9 -17 9 -29q0 -31 -11 -52q-15 -31 -37.5 -37.5t-27.5 -6.5q-9 0 -9 8q-2 12 11 16q19 7 23 10q14 12 14 23q0 5 -1.5 9.5t-9.5 2.5l-9 -1q-26 9 -26 44q0 16 13 27t30 10zM100 75q19 -1 31 -24q9 -17 9 -29q0 -31 -11 -53q-14 -30 -37 -36.5
t-27 -6.5q-10 0 -10 8q-1 12 11 16q20 7 23 10q14 12 14 22q0 5 -2 11q-1 3 -8 2l-10 -1q-26 8 -26 44q0 16 13.5 26.5t29.5 10.5z" />
    <glyph glyph-name="perthousand" unicode="&#x2030;" horiz-adv-x="709" 
d="M138 -13q13 85 45 191l54 178q14 50 32 143q24 118 36 170v2q0 56 20 62.5t32 0.5h-1q7 -4 7 -14q0 -7 -9 -38q-25 -76 -27 -84q-5 -22 -36 -166q-29 -94 -90 -306q-4 -15 -16 -99q-9 -58 -20 -58q-2 0 -4.5 2t-14.5 8q-8 5 -8 8zM35 597q0 83 93 83q41 0 70 -38t29 -86
q0 -45 -21 -74q-26 -37 -79 -37q-40 0 -69 63q-23 50 -23 89zM260 159q0 83 94 83q41 0 70 -38t29 -86q0 -44 -22 -74q-26 -37 -78 -37q-41 0 -70 63q-23 50 -23 89zM485 146q0 83 94 83q41 0 70 -37.5t29 -86.5q0 -44 -21 -74q-27 -36 -79 -36q-40 0 -69 62q-24 51 -24 89z
M376 41q46 17 46 77q0 14 -14 36q-12 1 -29 7q-5 4 -11 28q-4 19 -25 23q-46 0 -46 -57q0 -42 17 -77q19 -40 48 -40q7 0 14 3zM151 479q46 17 46 77q0 13 -14 36q-12 1 -29 7q-6 4 -11 28q-5 19 -25 22q-46 0 -46 -56q0 -42 17 -77q19 -40 47 -40q7 0 15 3zM601 28
q46 17 46 77q0 14 -13 36q-12 2 -30 7q-5 5 -11 28q-4 19 -25 23q-46 0 -46 -57q0 -41 17 -77q19 -39 48 -39q7 0 14 2z" />
    <glyph glyph-name="dotlessi" unicode="&#x131;" horiz-adv-x="162" 
d="M93 483q8 -1 8 -28l-3 -332q0 -14 8 -38.5l8 -24.5q-20 -68 -32 -68q-22 0 -22 30q0 7 1.5 22.5t1.5 21.5q0 48 -3 188q-3 105 0 188q2 47 33 41z" />
    <glyph glyph-name="circumflex" unicode="&#x2c6;" horiz-adv-x="401" 
d="M211 651q13 0 49 -40.5t43 -68.5q3 -9 -4.5 -18.5t-18.5 -9.5q-16 0 -29 34q-16 43 -45 64q-19 -14 -44 -71q-22 -48 -39 -48q-20 0 -20 23q0 8 3 15q18 43 59 84q34 36 46 36z" />
    <glyph glyph-name="tilde" unicode="&#x2dc;" horiz-adv-x="483" 
d="M344 582q1 2 6 11t9.5 13.5t12.5 4.5q7 0 14 -8t7 -11t-15 -24q-17 -25 -38 -45.5t-38 -26.5q-18 -6 -33 8q-5 6 -26 39q-16 24 -27 24q-2 0 -37 -31q-11 -13 -22 -27q-14 -16 -30 -16q-9 3 -19 11q1 14 18 28q28 22 33 28l26 34q18 21 39 21q4 0 23 -27q26 -36 31 -42
q14 -17 22 -17q9 0 44 53z" />
    <glyph glyph-name="macron" unicode="&#xaf;" horiz-adv-x="558" 
d="M406 558q43 0 40 -24q-2 -20 -28 -20q-6 0 -12 2q-15 6 -35 5q-12 -1 -23 -1.5t-63.5 -13.5t-138.5 -13q-12 0 -23.5 5.5t-11.5 14.5q0 8 14.5 18t33.5 10q14 0 28 -10t27 -10q37 0 107.5 18.5t84.5 18.5z" />
    <glyph glyph-name="macron" unicode="&#x2c9;" horiz-adv-x="558" 
d="M406 558q43 0 40 -24q-2 -20 -28 -20q-6 0 -12 2q-15 6 -35 5q-12 -1 -23 -1.5t-63.5 -13.5t-138.5 -13q-12 0 -23.5 5.5t-11.5 14.5q0 8 14.5 18t33.5 10q14 0 28 -10t27 -10q37 0 107.5 18.5t84.5 18.5z" />
    <glyph glyph-name="breve" unicode="&#x2d8;" horiz-adv-x="432" 
d="M306 587q-3 -34 -24 -60q-28 -34 -80 -34q-26 0 -56 26.5t-30 54.5q0 6 2 12q4 13 24 13q9 0 13 -6l22 -48q19 -33 36 -30q46 7 46 53v11q1 21 13 23t23.5 -1.5t10.5 -13.5z" />
    <glyph glyph-name="dotaccent" unicode="&#x2d9;" horiz-adv-x="407" 
d="M189 655q23 0 60.5 -25t37.5 -49q0 -32 -21 -58q-24 -30 -61 -30q-25 0 -60 25q-39 28 -39 54q0 19 27 49q30 34 56 34z" />
    <glyph glyph-name="ring" unicode="&#x2da;" horiz-adv-x="426" 
d="M200 655q23 0 58 -24q40 -26 40 -50q0 -32 -21 -58q-25 -30 -61 -30q-25 0 -62 26.5t-37 52.5q0 19 27 49q29 34 56 34zM160 569q0 -12 15 -25t25 -13q59 0 59 36q0 18 -20 33t-39 15q-18 0 -29 -13.5t-11 -32.5z" />
    <glyph glyph-name="cedilla" unicode="&#xb8;" horiz-adv-x="457" 
d="M241 0q0 -15 -4 -37q-3 -15 1 -27q6 -21 54 -31q45 -9 44 -32q-2 -43 -81 -62q-17 -4 -33 -4q-61 0 -99 47q-3 4 -3 9q0 16 17 16q7 0 11 -6q35 -43 78 -43q8 0 17 2q54 11 58 30q5 21 -36 29q-47 10 -56 28q-5 12 -5 28q0 9 2.5 27t2.5 26q0 16 16 16t16 -16z" />
    <glyph glyph-name="hungarumlaut" unicode="&#x2dd;" horiz-adv-x="517" 
d="M246 677q5 4 13 4q19 0 17 -19q-1 -5 -15 -18q-20 -19 -30.5 -34t-29.5 -45q-14 -20 -27 -50q-11 -23 -12 -23q-22 -9 -25 9q-2 10 38 74q5 13 19 37q19 26 52 65zM353 677q4 4 12 4q19 0 17 -19q0 -5 -15 -18q-20 -19 -30.5 -34t-29.5 -45q-13 -20 -27 -50
q-11 -23 -12 -23q-22 -9 -25 9q-2 10 38 74q6 13 19 37q19 26 53 65z" />
    <glyph glyph-name="ogonek" unicode="&#x2db;" horiz-adv-x="404" 
d="M152 -6q20 10 36 10t18 -12q3 -13 -8 -16t-22.5 -4.5t-15.5 -19.5q-1 -7 -1 -14q0 -34 26 -40q10 -2 18 -2q17 0 29 12.5t21 12.5q7 0 16 -8.5t9 -16.5q0 -14 -25 -23t-55 -9q-64 0 -69 70q-3 47 23 60z" />
    <glyph glyph-name="caron" unicode="&#x2c7;" horiz-adv-x="442" 
d="M207 492q-13 0 -53 49t-40 63q0 9 7 16.5t17 7.5q16 0 29 -34q16 -43 45 -63q21 13 44 70q20 48 39 48q9 0 14.5 -15t2.5 -22q-7 -18 -50 -69t-55 -51z" />
    <glyph glyph-name="Lslash" unicode="&#x141;" horiz-adv-x="546" 
d="M103 473q0 13 -3.5 39.5t-4.5 41.5t-10 59q-7 34 -7 53q0 40 21 40q18 0 21 -31q-1 7 -1 -46q0 2 5 -43q6 -52 10 -100q25 12 30 12q37 13 41 13q14 0 14 -16q0 -22 -34 -22q-10 -5 -47 -21q0 -19 2 -57.5t2 -58.5q0 -42 -6 -89q-7 -58 -8 -61q-1 -37 -7 -115
q-3 -21 59.5 -27t125.5 -11q69 -8 138.5 -17.5t67.5 -26.5q0 -14 -5 -18q-8 -8 -32 -5q11 0 -120 27.5t-199 27.5q-34 0 -43 -10q-3 -3 -13 -29q-7 -18 -18 -14q-7 3 -8 15.5t-5 16.5t-18.5 4.5t-16.5 8.5q-4 11 8 15q27 9 31 11q19 11 31 184q4 52 7 146q-5 32 -5 70
q-51 -23 -65 -23q-19 0 -19 12q-1 3 -1 6q0 11 82 39z" />
    <glyph glyph-name="lslash" unicode="&#x142;" horiz-adv-x="223" 
d="M83 417q0 126 5 160q4 123 20 129q4 2 9 2q23 0 23 -33q0 -60 -16 -241q25 11 31 11q37 13 40 13q14 0 14 -16q0 -22 -33 -22l-54 -23q0 -15 -1.5 -45.5t-1.5 -46.5q0 -13 4 -118q4 -92 2 -168q-1 -32 -22 -32q-10 0 -14 65l-4 88q-8 174 -2 241q-13 -5 -37 -15
q-11 -4 -22 -1q-11 2 -11 11q-2 3 -2 5q0 10 29 20z" />
    <glyph glyph-name="Eth" unicode="&#xd0;" horiz-adv-x="522" 
d="M106 301q-9 -4 -44 -18q-12 -4 -25 -2q-15 1 -15 10q-3 7 7 20t29 20q23 8 49 12q0 23 5.5 72t5.5 81q0 17 4 51t4 47q0 26 -10 37q-1 1 -20 11q-12 7 -9 15q2 4 11 4.5t13 4.5q10 15 20 15q6 0 13.5 -4.5t10.5 -4.5q47 0 64 -7q99 -36 112 -41q69 -33 107 -80
q50 -61 55 -155q8 -166 -71 -271q-81 -110 -225 -110q-15 0 -28.5 2t-16.5 2q-10 0 -17.5 -11.5t-20.5 -11.5q-10 0 -13 13q-1 9 -2 17t-11 13t-10 19q0 8 13.5 17t12.5 13v165q0 11 1 29t1 26zM139 315q0 -15 -2 -47.5t-2 -51t-2 -51.5t-2 -47q0 -40 11.5 -57.5t78.5 -17.5
q71 0 143 64.5t85 139.5q0 -3 6 35t6 75q0 32 -4 63q-13 95 -104 158q-75 51 -160 60q-37 0 -37 -15q-9 -86 -9 -127q0 -28 -3 -72.5t-3 -64.5q9 5 40 18q14 5 25 5q18 0 21 -15q0 -11 -9.5 -20.5t-21.5 -9.5l3 1q-5 -2 -60 -23z" />
    <glyph glyph-name="eth" unicode="&#xf0;" horiz-adv-x="438" 
d="M324 566q-45 120 -122 120q-53 0 -82 -26q-22 -20 -31 -58q-6 -30 -11.5 -58t-21.5 -28t-16 30q0 68 45.5 119t113.5 51q116 0 161 -135q8 3 28 10q38 13 41 13q14 0 14 -17q0 -13 -34 -22q2 0 -38 -18q12 -49 14 -89v-74q0 -4 -3 -44q-1 -24 3 -31.5t15.5 -16
t11.5 -12.5q0 -3 -3 -5q-3 -5 -13 -2q-11 3 -16 0q-4 -3 -5 -16q-4 -36 -17 -101q-39 -193 -115 -193q-89 0 -145 43q-67 52 -67 152q0 101 44 170q54 83 159 83q40 0 118 -55q2 76 -1 103q-5 39 -15 74q-5 -3 -56 -21q-12 -5 -22 -2q-12 3 -12 11q-1 3 -1 5q0 10 29 20
q18 8 50 20zM226 377q-85 0 -133 -89q-35 -66 -35 -128q0 -73 51 -121t122 -48q26 0 63 71q49 96 55 245q1 15 -40 41q-45 29 -83 29z" />
    <glyph glyph-name="Scaron" unicode="&#x160;" horiz-adv-x="442" 
d="M248 709q108 0 148 -124q1 -3 15 -25q10 -17 10 -35q0 -9 -9 -17t-18 -9q-18 -2 -22.5 22t-7.5 50q-4 23 -33 58q-1 1 -12.5 8t-11.5 12q0 11 -18.5 18.5t-33.5 7.5q-42 0 -96 -67.5t-54 -116.5q0 -66 61 -122q56 -47 113 -93q64 -62 64 -117q0 -48 -39 -109
q-41 -64 -79 -68q-21 -2 -40 -2q-68 0 -104 26q-52 38 -52 128q26 79 35 79q24 0 24 -30q0 -23 -12 -44.5t-12 -23.5q0 -29 21 -58q29 -40 81 -40q42 0 63 9q35 15 56.5 53.5t21.5 83.5q0 35 -62 93q-57 52 -115 105q-62 61 -62 102q0 70 56 154q60 92 124 92zM236 730
q-13 0 -53 49t-40 63q0 9 7 16.5t17 7.5q16 0 29 -34q16 -43 45 -63q21 13 44 70q20 48 39 48q9 0 14.5 -15t2.5 -22q-7 -18 -50 -69t-55 -51z" />
    <glyph glyph-name="scaron" unicode="&#x161;" horiz-adv-x="432" 
d="M171 469q54 0 108 -13q75 -19 74 -55v-14q-1 -9 -12 -9q-4 0 -9 1l-32 34q-37 31 -119 31q-41 0 -74.5 -25.5t-33.5 -53.5q0 -48 80 -58q55 -5 111 -9q42 -12 82 -56q54 -57 54 -134q0 -75 -54 -104q-38 -20 -113 -20q-74 0 -136 40q-66 42 -66 98q0 7 2 15q14 15 16 15
q16 0 20 -28q6 -39 36 -70q38 -39 139 -39q124 0 124 101q0 30 -26 76q-32 55 -74 72q-17 8 -85 13.5t-98 18.5q-46 21 -46 69q0 36 43 70t89 34zM212 497q-13 0 -53 49t-40 63q0 9 7 16.5t17 7.5q16 0 29 -34q16 -43 45 -63q21 13 44 70q20 48 39 48q9 0 14.5 -15t2.5 -22
q-7 -18 -50 -69t-55 -51z" />
    <glyph glyph-name="Yacute" unicode="&#xdd;" horiz-adv-x="555" 
d="M265 -23q-15 1 -19 14q-2 6 -2 32q0 14 1 27v22q2 209 2 211v22q-1 12 -7 19q-14 17 -47 77q-66 120 -67 121q-19 37 -62 104q-5 7 -28 30q-16 17 -16 22q0 28 14 28q9 0 21 -4.5t18.5 -15.5t12.5 -22q26 -35 52 -87q18 -37 36 -75q24 -45 98 -153l88 151q71 119 124 193
q17 23 31 23q17 0 17 -18q0 -12 -27 -46q-136 -176 -193 -305q-9 -15 -16.5 -30t-4.5 -44q4 -48 2 -128q-4 -117 -4 -101q0 -5 4.5 -17.5t4.5 -18.5t-3 -11q-12 -22 -30 -20zM360 823q-7 -10 -31.5 -22.5t-49.5 -25.5q-12 -7 -38 -31q-17 -17 -35 -15q-26 1 -17 25
q5 13 38 31l58 33q10 7 37 33q18 18 31 18q20 0 20 -16q0 -11 -13 -30z" />
    <glyph glyph-name="yacute" unicode="&#xfd;" horiz-adv-x="442" 
d="M98 451q18 19 25 19q4 0 9 -2t7 -11t-1.5 -17t-14 -17t-14.5 -16q-38 -71 -38 -216q0 -39 3 -86q4 -80 115 -80q55 0 98 22q39 19 50 45q14 32 25 126q10 87 10 157q0 12 -4 31.5t-4 28.5q0 8 2 17q3 13 6 14.5t19 1.5q7 0 13.5 -9.5t6.5 -20.5q0 -33 -4.5 -120
t-4.5 -119q0 -39 -6.5 -55.5l-6.5 -16.5q0 -4 3 -12q0 -3 4 -9.5t4 -10.5q0 -7 -6 -16.5t-7 -13.5l-18 -136q-19 -92 -65 -142q-59 -66 -169 -66q-54 0 -92.5 34t-38.5 87q0 31 31 67q4 4 10 3q9 -3 6 -18q-2 -11 -8 -24t-6 -28q0 -40 28.5 -65t69.5 -25q119 0 165 90
q26 51 33.5 80t8.5 86q0 3 4 16t2 14q3 -2 -41 -25q-51 -27 -107 -27q-84 0 -129 45q-42 42 -42 113v74q5 86 15 129q16 63 54 104zM335 588q-7 -10 -31.5 -22.5t-49.5 -25.5q-12 -7 -38 -31q-17 -17 -35 -15q-26 1 -17 25q5 13 38 31l58 33q10 7 37 33q18 18 31 18
q20 0 20 -16q0 -11 -13 -30z" />
    <glyph glyph-name="Thorn" unicode="&#xde;" horiz-adv-x="517" 
d="M112 697q2 -5 9 -72t11 -68.5t10 -1.5q15 0 56.5 11.5t53.5 11.5q84 0 157 -58q77 -62 77 -143q0 -118 -119 -168q-36 -15 -110 -33q-66 -16 -78 -16q-4 -6 -10 -32q-3 -53 -15 -149q-3 -14 -30 -42q-15 0 -18 13q-1 2 -1 26q0 5 13.5 65t13.5 108q0 5 -18.5 11.5
t-14.5 19.5q3 11 14 17q8 4 15 7q3 2 3 27q0 103 -13 152t-30 102q-3 3 -18 -5t-24 -8q-17 0 -17 15q0 5 10 17q6 7 22.5 14.5t19.5 16.5q1 3 -9 73q-11 74 -11 79q0 36 23 36q12 0 28 -26zM134 507q-3 -4 6 -42q12 -58 16 -81q12 -78 12 -145q0 -28 12 -36q11 -7 46 1
q107 15 147 43q78 55 78 133q0 57 -55 108q-58 55 -141 55q-103 0 -121 -36z" />
    <glyph glyph-name="thorn" unicode="&#xfe;" horiz-adv-x="530" 
d="M76 703q22 0 22 -90q0 -181 6 -213q2 -8 10 -8t20 6q55 29 73 35q52 21 106 21q57 0 122 -72t65 -147q0 -120 -64 -184q-55 -56 -139 -56q-82 0 -129 21q-31 15 -50 40q-15 22 -19 22q-13 0 -13 -17q0 -7 7 -48q7 -35 4 -54q-4 -25 -4 -126q0 -41 -16 -41q-25 0 -25 36
q0 16 7 46.5t7 45.5q0 12 -5 32t-4 34q2 32 1 75q-2 61 -2 66q0 317 2 366q-6 83 -9 179q8 31 27 31zM95 251q0 -12 13 -34q7 -11 14 -23q2 -5 -5.5 -34.5t-5.5 -37.5q6 -31 48 -59q54 -37 138 -37q82 0 120 48q48 60 48 165q0 58 -50 121q-23 28 -55 49q-29 18 -41 18
q-67 0 -132 -30q-43 -21 -75 -64q-7 -9 -12 -41q-5 -28 -5 -41z" />
    <glyph glyph-name="Zcaron" unicode="&#x17d;" horiz-adv-x="505" 
d="M241 683q121 -14 148 -19q80 -14 87 -40q2 -7 -8 -24q-14 -20 -27 -40q-24 -39 -225 -365q-60 -97 -60 -117q3 -15 34 -26q22 -7 43 -14q85 -35 169 -49q55 -8 55 -30q0 -15 -16 -15q-8 0 -23 6.5t-20 7.5q-51 16 -170 45q-4 1 -90 34q-10 -38 -29 -38q-5 0 -11 3
q-14 8 -14 26q0 14 8 30q-71 2 -71 31q0 16 19 14q26 -2 72 -20l97 163q63 101 173 280q27 44 41 83q-31 14 -123 37q-48 8 -191 8q-66 0 -59 18q2 6 4.5 11.5t16.5 5.5q115 0 170 -6zM264 729q-13 0 -53 49t-40 63q0 9 7 16.5t17 7.5q16 0 29 -34q16 -43 45 -63
q21 13 44 70q20 48 39 48q9 0 14.5 -15t2.5 -22q-7 -18 -50 -69t-55 -51z" />
    <glyph glyph-name="zcaron" unicode="&#x17e;" horiz-adv-x="378" 
d="M43 468q6 2 39 -12q38 -16 82 -16q24 0 71.5 6t71.5 6q28 0 28 -9q0 -53 -45 -141q-43 -78 -87 -156q-38 -68 -46 -100q16 -2 43 -4q45 -1 99 14q14 4 31 0q19 -4 22 -14q3 -15 -43 -27q-27 -8 -53 -8q-19 0 -48 5t-41 5q-4 0 -12.5 2t-12.5 2q-9 0 -16 -7t-13 -32
q-5 -20 -17 -25q-21 -12 -29 -8q-16 13 -6 29q11 17 12 29q-8 4 -37 -7q-20 -7 -22 11q-5 27 26 27q5 0 17 -2t19 -2q9 0 18 2.5t16 18.5q19 37 59 96q60 85 95 186q15 43 18 79q-19 2 -57 4q-24 0 -70 -3t-64 -3q-56 0 -62 23q-2 12 3.5 21t10.5 10zM211 500q-13 0 -53 49
t-40 63q0 9 7 16.5t17 7.5q16 0 29 -34q16 -43 45 -63q21 13 44 70q20 48 39 48q9 0 14.5 -15t2.5 -22q-7 -18 -50 -69t-55 -51z" />
    <glyph glyph-name="onehalf" unicode="&#xbd;" horiz-adv-x="480" 
d="M348 711q-13 -84 -45 -190l-54 -178q-20 -97 -75 -314q-3 -19 -5 -38q-3 -22 -16 -26t-23 0q-9 4 -9 14q0 3 11 38q24 76 26 84q6 22 37 166q5 23 40 130.5t50 176.5q7 55 25 132l6 16q3 5 10 5q7 1 14.5 -5t7.5 -11zM116 636q0 -3 -1.5 -27.5t-1.5 -40.5v-69
q1 -42 1 -63t-3 -58q-2 -24 1 -26q0 -1 22 1q33 3 33 -14q0 -21 -10 -20q-19 1 -41 -3t-23 -4h-20q-17 1 -31 1q-21 0 -21 9q0 22 39 22q13 0 15 3.5t2 36.5q0 9 1.5 47t1.5 62q0 13 -1 36t-1 36q0 12 2 44q2 27 1 30q-1 2 -3 2q-5 0 -18.5 -5.5t-16.5 -6.5q-13 0 -18 8
q-4 9 1 21q3 5 34 16t38 11q18 0 18 -49zM446 300q0 -29 -16 -76q-24 -72 -57 -110q-44 -48 -44 -84q0 -10 18 -10q9 0 26 6t28 6q43 0 40 -27q-2 -16 -30 -16q-10 0 -28 2t-22 2q-2 0 -33 -9.5t-46 -9.5q-17 0 -17 11q0 21 75 143q36 59 46 80q22 45 22 81q0 30 -9 39
q-7 6 -29 6q-46 0 -46 -81q0 -15 -14 -20q-22 -7 -22 40q0 31 18 59q25 38 72 38q28 0 48 -21.5t20 -48.5z" />
    <glyph glyph-name="onequarter" unicode="&#xbc;" horiz-adv-x="480" 
d="M428 348q19 -2 16 -24q0 -3 -22 -65q-18 -52 -18 -64q1 -2 3 -2t11 2.5t14 2.5q11 0 11 -12q1 -16 -16 -19q-11 -2 -25 -6q-1 -16 -1 -38q0 -9 -1.5 -29t-1.5 -29v-50q0 -5 -1 -17.5t-1 -18.5q0 -26 -17 -26q-20 0 -20 28q0 10 2.5 22.5t2.5 18.5q0 18 4.5 44t4.5 40
q0 7 1 22.5t1 20.5q-14 -6 -52 -21q-30 -9 -38 -3q-8 7 -8 24q0 -3 4 23q16 96 16 148q0 6 5.5 16t13.5 10q15 0 15 -20q0 -28 -8.5 -69t-8.5 -65q0 -8 -1.5 -19t-3.5 -17t-2 -1q12 4 38 12q12 4 33 14q0 17 14 76q5 29 11 58q9 36 25 33zM353 711q-13 -84 -45 -190
l-54 -178q-20 -97 -75 -314q-3 -19 -5 -38q-3 -22 -16 -26t-23 0q-9 4 -9 14q0 3 11 38q24 76 26 84q6 22 37 166q5 23 40 130.5t49 176.5q8 55 26 132l6 16q3 5 10 5q7 1 14.5 -5t7.5 -11zM137 636q0 -3 -1.5 -27.5t-1.5 -40.5v-69q1 -42 1 -63t-3 -58q-2 -24 1 -26
q0 -1 22 1q33 3 33 -14q0 -21 -10 -20q-19 1 -41 -3t-23 -4h-20q-17 1 -31 1q-21 0 -21 9q0 22 39 22q13 0 15 3.5t2 36.5q0 9 1.5 47t1.5 62q0 13 -1 36t-1 36q0 12 2 44q2 27 1 30q0 2 -3 2q-5 0 -18.5 -5.5t-16.5 -6.5q-13 0 -18 8q-4 9 1 21q3 5 34 16t38 11
q18 0 18 -49z" />
    <glyph glyph-name="onesuperior" unicode="&#xb9;" horiz-adv-x="195" 
d="M116 636q0 -3 -1.5 -27.5t-1.5 -40.5v-69q1 -42 1 -63t-3 -58q-2 -24 1 -26q0 -1 22 1q33 3 33 -14q0 -21 -10 -20q-19 1 -41 -3t-23 -4h-20q-17 1 -31 1q-21 0 -21 9q0 22 39 22q13 0 15 3.5t2 36.5q0 9 1.5 47t1.5 62q0 13 -1 36t-1 36q0 12 2 44q2 27 1 30q-1 2 -3 2
q-5 0 -18.5 -5.5t-16.5 -6.5q-13 0 -18 8q-4 9 1 21q3 5 34 16t38 11q18 0 18 -49z" />
    <glyph glyph-name="threequarters" unicode="&#xbe;" horiz-adv-x="480" 
d="M358 711q-13 -84 -45 -190l-54 -178q-20 -97 -75 -314q-2 -19 -5 -38q-3 -22 -16 -26t-23 0q-9 4 -9 14q0 3 11 38q24 76 26 84q6 22 37 166q5 23 40 130.5t50 176.5q7 55 25 132q3 8 7 16q2 5 9 5q7 1 14.5 -5t7.5 -11zM197 607q0 -83 -68 -110q62 -28 62 -86
q0 -50 -28 -77t-70 -27q-72 0 -72 67q0 10 11.5 25t23.5 15q14 0 14 -12q0 -4 -9 -15.5t-9 -19.5q0 -28 37 -28q70 0 70 78q0 58 -62 58q-8 0 -16 13q-4 15 17 24q28 12 34 19q12 15 25 31.5t13 33.5q0 5 -2 11q-6 26 -12 33q-11 14 -41 14q-22 0 -30 -18t-14 -35
q-1 -11 -11 -24q-8 -2 -14 8.5t-6 19.5q0 24 19 48q25 31 67 31q31 0 53 -28q18 -25 18 -49zM428 348q19 -2 16 -24q0 -3 -22 -65q-18 -52 -18 -64q1 -2 3 -2t11 2.5t14 2.5q11 0 11 -12q1 -16 -16 -19q-11 -2 -25 -6q-1 -16 -1 -38q0 -9 -1.5 -29t-1.5 -29v-50
q0 -5 -1 -17.5t-1 -18.5q0 -26 -17 -26q-20 0 -20 28q0 10 2.5 22.5t2.5 18.5q0 18 4.5 44t4.5 40q0 7 1 22.5t1 20.5q-14 -6 -52 -21q-30 -9 -38 -3q-8 7 -8 24q0 -3 4 23q16 96 16 148q0 6 5.5 16t13.5 10q15 0 15 -20q0 -28 -8.5 -69t-8.5 -65q0 -8 -1.5 -19t-3.5 -17
t-2 -1q12 4 38 12q12 4 33 14q0 17 14 76q5 29 11 58q9 36 25 33z" />
    <glyph glyph-name="threesuperior" unicode="&#xb3;" horiz-adv-x="227" 
d="M197 607q0 -83 -68 -110q62 -28 62 -86q0 -50 -28 -77t-70 -27q-72 0 -72 67q0 10 11.5 25t23.5 15q14 0 14 -12q0 -4 -9 -15.5t-9 -19.5q0 -28 37 -28q70 0 70 78q0 58 -62 58q-8 0 -16 13q-4 15 17 24q28 12 34 19q12 15 25 31.5t13 33.5q0 5 -2 11q-6 26 -12 33
q-11 14 -41 14q-22 0 -30 -18t-14 -35q-1 -11 -11 -24q-8 -2 -14 8.5t-6 19.5q0 24 19 48q25 31 67 31q31 0 53 -28q18 -25 18 -49z" />
    <glyph glyph-name="twosuperior" unicode="&#xb2;" horiz-adv-x="243" 
d="M204 614q0 -29 -16 -76q-24 -72 -57 -110q-44 -48 -44 -84q0 -10 18 -10q9 0 26 6t28 6q43 0 40 -27q-2 -16 -30 -16q-10 0 -28 2t-22 2q-2 0 -33 -9.5t-46 -9.5q-17 0 -17 11q0 21 75 143q36 59 46 80q22 45 22 81q0 30 -9 39q-7 6 -29 6q-46 0 -46 -81q0 -15 -14 -20
q-22 -7 -22 40q0 31 18 59q25 38 72 38q28 0 48 -21.5t20 -48.5z" />
    <glyph glyph-name="brokenbar" unicode="&#xa6;" horiz-adv-x="293" 
d="M161 708q3 -24 3 -145q0 -2 1.5 -41t1.5 -68q0 -101 -16 -101q-22 0 -22 57q0 14 1.5 34.5t1.5 24.5q0 16 -3 102q-2 79 -2 93q1 3 5 39q3 26 8 26q6 1 13 -6.5t8 -14.5zM161 263q3 -24 3 -146q0 -2 1.5 -41t1.5 -67q0 -103 -16 -103q-22 0 -22 58q0 14 1.5 34.5
t1.5 24.5q0 15 -3 102q-2 80 -2 94q1 3 5 39q3 26 8 26q6 1 13 -6.5t8 -14.5z" />
    <glyph glyph-name="minus" unicode="&#xad;" horiz-adv-x="435" 
d="M349 277q43 0 40 -24q-2 -23 -40 -18h-23q-22 1 -23 1q-30 0 -70 -5q-43 -5 -144 -5q-35 0 -35 16q0 9 13 16t32 7q14 0 29.5 -2.5t28.5 -2.5q37 0 107.5 8.5t84.5 8.5z" />
    <glyph glyph-name="minus" unicode="&#x2212;" horiz-adv-x="435" 
d="M349 277q43 0 40 -24q-2 -23 -40 -18h-23q-22 1 -23 1q-30 0 -70 -5q-43 -5 -144 -5q-35 0 -35 16q0 9 13 16t32 7q14 0 29.5 -2.5t28.5 -2.5q37 0 107.5 8.5t84.5 8.5z" />
    <glyph glyph-name="multiply" unicode="&#xd7;" horiz-adv-x="416" 
d="M245 392q13 20 26 41q12 15 21 11q7 -7 7 -17q0 -13 -24 -50q-38 -50 -82 -120q23 -28 92 -101q103 -101 103 -113q0 -15 -28 -15q-16 0 -41 40q-23 37 -65 85q-19 20 -71 73q-14 -26 -50 -86q-20 -28 -36 -57q-2 -3 -20 -52q-11 -30 -26 -28q-18 2 -18 20q0 8 33 63
q2 3 61 95q34 53 37 66q-7 10 -81 91q-33 36 -46 64q-13 27 0 36q4 3 12 2t9 -4q14 -36 40 -76q15 -23 80 -83q12 18 44 69q8 17 23 46z" />
    <glyph glyph-name="Adieresis" unicode="&#xc4;" horiz-adv-x="530" 
d="M449 378q0 -14 -13 -14q-5 0 -24 -6q-11 -5 -11 -29q0 -53 49 -174.5t49 -152.5q0 -21 -14 -21q-12 0 -15 4t-7 26q-28 85 -71 215q-8 24 -22 86q-10 41 -16 44.5t-48 3.5h-83q-33 -1 -44 -9q-15 -11 -45 -134q-28 -110 -69 -226q-5 -15 -7 -19q-4 -7 -11 -8
q-20 -2 -20 18q0 4 4.5 11.5t5.5 10.5q58 179 90 299q8 28 6 34q-4 9 -21 8q-26 -2 -25 -2q-8 2 -8 17q0 13 9.5 17t27.5 4q22 -1 29 0q6 1 8 4q6 11 47 136q44 133 44 159q0 12 -8 22t-15 18q-2 9 -7 27q-3 8 4 18.5t15 10.5q13 0 26 -44q30 -105 50 -153q26 -63 29 -73
q24 -72 28 -83q7 -16 21 -29q6 -5 28 -1q19 3 22 3q15 0 12 -18zM193 394q-2 -9 10 -10q-16 1 22 1q66 0 94 8q7 1 24 5q-5 17 -17 51q-16 44 -65 142q-12 -27 -40 -93q-21 -53 -28 -104zM317 879q17 0 24.5 -4.5t7.5 -23.5q0 -38 -36 -38q-33 0 -33 28q0 38 37 38zM178 873
q18 0 24 -3q9 -6 9 -24q0 -38 -37 -38q-32 0 -32 27q0 38 36 38z" />
    <glyph glyph-name="Aring" unicode="&#xc5;" horiz-adv-x="526" 
d="M449 378q0 -14 -13 -14q-5 0 -24 -6q-11 -5 -11 -29q0 -53 49 -174.5t49 -152.5q0 -21 -14 -21q-12 0 -15 4t-7 26q-28 85 -71 215q-8 24 -22 86q-10 41 -16 44.5t-48 3.5h-83q-33 -1 -44 -9q-15 -11 -45 -134q-28 -110 -69 -226q-5 -15 -7 -19q-4 -7 -11 -8
q-20 -2 -20 18q0 4 4.5 11.5t5.5 10.5q58 179 90 299q8 28 6 34q-4 9 -21 8q-26 -2 -25 -2q-8 2 -8 17q0 13 9.5 17t27.5 4q22 -1 29 0q6 1 8 4q6 11 47 136q44 133 44 159q0 12 -8 22t-15 18q-2 9 -7 27q-3 8 4 18.5t15 10.5q13 0 26 -44q30 -105 50 -153q26 -63 29 -73
q24 -72 28 -83q7 -16 21 -29q6 -5 28 -1q19 3 22 3q15 0 12 -18zM193 394q-2 -9 10 -10q-16 1 22 1q66 0 94 8q7 1 24 5q-5 17 -17 51q-16 44 -65 142q-12 -27 -40 -93q-21 -53 -28 -104zM248 974q23 0 59 -23q39 -26 39 -50q0 -32 -21 -59q-24 -30 -61 -30q-25 0 -62 26.5
t-37 52.5q0 19 28 51t55 32zM199 889q0 -15 18.5 -30.5t30.5 -15.5q71 0 71 43q0 22 -24 40t-47 18q-22 0 -35.5 -16.5t-13.5 -38.5z" />
    <glyph glyph-name="Ccedilla" unicode="&#xc7;" horiz-adv-x="576" 
d="M226 -19q-116 6 -162 111q-32 74 -32 215q0 162 100 275q95 106 216 106q34 0 84 -24q57 -28 76 -66q11 -17 11 -22q0 -3 -2 -7t-23 -4q-5 0 -8.5 9.5t-5.5 10.5q-37 39 -54 49q-32 20 -85 20q-84 0 -168 -79q-109 -101 -109 -272q0 -181 69 -250q42 -41 118 -41
q38 0 104 28q72 30 96 62q20 28 36 67q12 31 25 63q0 25 11 25q18 0 22 -4.5t2 -13.5q-3 -14 -3 -15q-7 -82 -80 -155q-85 -84 -206 -88q0 -11 -4 -30q-2 -12 2 -24q6 -21 54 -33q44 -11 44 -34q0 -47 -81 -66q-15 -4 -30 -4q-61 0 -102 51q-3 4 -3 9q0 16 17 16q7 0 11 -6
q32 -39 71 -39q10 0 20 2q19 4 38 7q14 4 17 16q4 21 -34 32q-45 12 -53 29q-5 11 -5 24q0 9 3 25.5t3 24.5z" />
    <glyph glyph-name="Eacute" unicode="&#xc9;" horiz-adv-x="431" 
d="M392 698q8 0 17.5 -6t7.5 -14q-1 -5 -16 -16q-11 -8 -23 -10q-9 -2 -24 0q-19 2 -27 2q-57 -9 -99 -16q-101 -16 -105 -24q-10 -16 -10 -194q0 -41 2 -45t27 -4h80l126 -12q35 -3 35 -19q0 -14 -15 -17q-6 -1 -22 1q-108 18 -167 18q-31 0 -47 -5q-7 -2 -19 -10
q-2 -2 -8 -20q-16 -50 -16 -222q0 -2 -4 -25q-2 -14 3 -20q11 -11 54 -11q51 0 105.5 4t49.5 4q7 0 28 4q17 4 31 1h16q10 -1 12 -7q6 -17 -22 -24h-19q-167 0 -189 -2q-52 -2 -67 -10q-10 -6 -13 -18t-11 -12q-12 0 -15 15.5t-17 21.5q-8 3 -8 9q0 14 25 20q9 2 21 223
q1 13 6 47q3 18 -1 27q-3 4 -12 9t-10.5 9.5t-1.5 7.5q0 7 12 14.5t15 16.5q5 16 5 87q0 -2 3 66q2 42 -3 63q-1 5 -10 9t-10 12q-1 7 22 26q2 1 1 17.5t9 23.5q11 7 19 -11q12 -27 25 -27q6 0 17.5 2t17.5 2q17 0 100.5 19.5t118.5 19.5zM317 819q-7 -10 -31.5 -22.5
t-49.5 -25.5q-12 -7 -38 -31q-17 -17 -35 -15q-26 1 -17 25q5 13 38 31l58 33q10 7 37 33q18 18 31 18q20 0 20 -16q0 -11 -13 -30z" />
    <glyph glyph-name="Ntilde" unicode="&#xd1;" horiz-adv-x="488" 
d="M198 604q-6 -6 -19 -48q-1 -10 -3 -29q2 -3 12 -20q17 -43 66 -148q57 -109 96 -207q5 -14 24 -45q20 -35 24 -33l-3 86q-1 13 -3 43q0 8 4 98q8 164 2 254q-5 77 -5 78q3 13 10 51q1 2 0 20q0 11 7 13q11 4 23 -5q6 -7 8 -35q1 -8 -4 -47q-6 -46 -6 -90q0 -27 2 -57
q0 -4 -7 -240q1 -37 0 -126q-4 -50 -3 -69q1 -9 11 -24t11 -26q1 -24 -15 -25q-8 -1 -21 3q-15 8 -26 33q-10 22 -20 45q-26 48 -53 110q-33 76 -69 148q-41 81 -85 160l-9 -48q-18 -79 -54 -355q-14 -107 -34 -123q-3 -2 -8 -2q-21 0 -28 20q-2 8 7.5 18t11.5 17
q9 29 52 286q11 70 34 191q9 45 9 51q-3 6 -8 18q-18 38 -30 72q-6 27 3 27q11 1 27 -14q12 -13 23 -25q-1 1 8 32.5t21 34.5q8 1 15 -9.5t7 -28.5q0 -14 -5 -30zM380 818q2 1 7 12q4 8 8.5 12t12.5 4q7 0 14 -7.5t7 -11.5q0 -3 -14 -23q-18 -25 -38.5 -46t-38.5 -26
q-18 -7 -32 8q-6 6 -27 39q-15 24 -27 24q-2 0 -37 -31q-11 -14 -22 -27q-13 -16 -29 -17q-10 4 -19 12q0 14 17 27q28 23 33 29l26 34q18 20 39 20q5 0 23 -26q26 -36 31 -42q14 -17 22 -17q9 0 44 53z" />
    <glyph glyph-name="Odieresis" unicode="&#xd6;" horiz-adv-x="654" 
d="M375 722q84 2 165 -85q77 -83 77 -157q0 -6 3 -81q3 -44 -3 -86q-7 -52 -41 -124q-41 -89 -95 -140q-65 -61 -154 -61q-62 0 -134 36q-31 14 -61 29q-51 26 -52 43q-1 8 -8 19q-50 67 -50 166q0 172 102.5 304.5t250.5 136.5zM55 337q0 -159 41 -200q25 -31 70 -62
q29 -20 95 -21q52 0 52 -22q0 -6 -13 -7.5t-14 -3.5q17 -2 52 -4q129 3 197 170q33 83 46 122q0 -2 4.5 38t4.5 75q0 75 -21 124q-27 64 -94 104q-63 37 -129 37q-92 0 -190 -121q-46 -56 -73.5 -119t-27.5 -110zM435 829q17 0 24.5 -4.5t7.5 -23.5q0 -38 -36 -38
q-33 0 -33 28q0 38 37 38zM296 823q18 0 24 -3q9 -6 9 -24q0 -38 -37 -38q-32 0 -32 27q0 38 36 38z" />
    <glyph glyph-name="Udieresis" unicode="&#xdc;" horiz-adv-x="454" 
d="M140 716q25 0 25 -20q0 -6 -6 -28q-20 -67 -40 -135q-24 -81 -24 -112q-30 -107 -30 -252q0 -69 24 -107q27 -43 91 -63q23 -7 44 -7q74 0 117 88q28 57 34 118q4 45 4 149q0 31 -10 142q2 42 0 117q-6 72 -4 80q7 21 21 21q23 0 23 -39q0 -172 7 -350q5 -142 -37 -245
q-21 -52 -59 -85q-42 -34 -89 -34q-131 0 -184 94q-21 39 -21 120q0 34 5 74q2 31 10 96q23 92 48 217q10 41 28 131q4 30 23 30zM335 826q17 0 24.5 -4.5t7.5 -23.5q0 -38 -36 -38q-33 0 -33 28q0 38 37 38zM196 820q18 0 24 -3q9 -6 9 -24q0 -38 -37 -38q-32 0 -32 27
q0 38 36 38z" />
    <glyph glyph-name="aacute" unicode="&#xe1;" horiz-adv-x="534" 
d="M463 464q27 0 29 -12q1 -8 -8 -43q-9 -39 -9 -60q0 -10 7 -38.5t7 -54.5q0 -19 -6 -66t-6 -89q0 -16 10 -53t10 -50q0 -20 -18 -20q-13 0 -25.5 34t-25.5 34q-12 0 -36 -13q-32 -18 -55 -26q-42 -13 -97 -13q-64 0 -126 34q-83 46 -83 128q0 115 54 201q60 92 151 92
q69 0 113 -19q27 -11 52 -35q20 -19 30 -19q7 0 9 18.5t4 37.5q4 32 19 32zM64 161q0 -64 47 -100.5t129 -36.5q181 0 200 150q10 78 4 113q-5 34 -8 41q-7 22 -27 30q-31 13 -60 14.5t-33 3.5q-10 4 -11 15q0 8 9.5 11.5t8.5 10.5q-1 10 -68 10q-90 0 -144 -85
q-47 -74 -47 -177zM353 592q-7 -10 -31.5 -22.5t-49.5 -25.5q-12 -7 -38 -31q-17 -17 -35 -15q-26 1 -17 25q5 13 38 31l58 33q10 7 37 33q18 18 31 18q20 0 20 -16q0 -11 -13 -30z" />
    <glyph glyph-name="agrave" unicode="&#xe0;" horiz-adv-x="534" 
d="M463 464q27 0 29 -12q1 -8 -8 -43q-9 -39 -9 -60q0 -10 7 -38.5t7 -54.5q0 -19 -6 -66t-6 -89q0 -16 10 -53t10 -50q0 -20 -18 -20q-13 0 -25.5 34t-25.5 34q-12 0 -36 -13q-32 -18 -55 -26q-42 -13 -97 -13q-64 0 -126 34q-83 46 -83 128q0 115 54 201q60 92 151 92
q69 0 113 -19q27 -11 52 -35q20 -19 30 -19q7 0 9 18.5t4 37.5q4 32 19 32zM64 161q0 -64 47 -100.5t129 -36.5q181 0 200 150q10 78 4 113q-5 34 -8 41q-7 22 -27 30q-31 13 -60 14.5t-33 3.5q-10 4 -11 15q0 8 9.5 11.5t8.5 10.5q-1 10 -68 10q-90 0 -144 -85
q-47 -74 -47 -177zM210 636q14 0 35 -20q31 -30 40 -35q2 -2 55 -31q29 -16 34 -29q4 -9 -1.5 -18t-19.5 -10q-17 -1 -35 18q-24 26 -37 33q-9 5 -52 24q-25 11 -31 20q-10 14 -10 26q0 22 22 22z" />
    <glyph glyph-name="acircumflex" unicode="&#xe2;" horiz-adv-x="534" 
d="M463 464q27 0 29 -12q1 -8 -8 -43q-9 -39 -9 -60q0 -10 7 -38.5t7 -54.5q0 -19 -6 -66t-6 -89q0 -16 10 -53t10 -50q0 -20 -18 -20q-13 0 -25.5 34t-25.5 34q-12 0 -36 -13q-32 -18 -55 -26q-42 -13 -97 -13q-64 0 -126 34q-83 46 -83 128q0 115 54 201q60 92 151 92
q69 0 113 -19q27 -11 52 -35q20 -19 30 -19q7 0 9 18.5t4 37.5q4 32 19 32zM64 161q0 -64 47 -100.5t129 -36.5q181 0 200 150q10 78 4 113q-5 34 -8 41q-7 22 -27 30q-31 13 -60 14.5t-33 3.5q-10 4 -11 15q0 8 9.5 11.5t8.5 10.5q-1 10 -68 10q-90 0 -144 -85
q-47 -74 -47 -177zM285 647q14 0 49.5 -40t42.5 -68q3 -9 -4 -18.5t-19 -9.5q-16 0 -29 34q-16 43 -44 64q-20 -14 -45 -71q-22 -48 -39 -48q-19 0 -19 23q0 8 3 14q18 44 58 85q35 35 46 35z" />
    <glyph glyph-name="adieresis" unicode="&#xe4;" horiz-adv-x="530" 
d="M463 464q27 0 29 -12q1 -8 -8 -43q-9 -39 -9 -60q0 -10 7 -38.5t7 -54.5q0 -19 -6 -66t-6 -89q0 -16 10 -53t10 -50q0 -20 -18 -20q-13 0 -25.5 34t-25.5 34q-12 0 -36 -13q-32 -18 -55 -26q-42 -13 -97 -13q-64 0 -126 34q-83 46 -83 128q0 115 54 201q60 92 151 92
q69 0 113 -19q27 -11 52 -35q20 -19 30 -19q7 0 9 18.5t4 37.5q4 32 19 32zM64 161q0 -64 47 -100.5t129 -36.5q181 0 200 150q10 78 4 113q-5 34 -8 41q-7 22 -27 30q-31 13 -60 14.5t-33 3.5q-10 4 -11 15q0 8 9.5 11.5t8.5 10.5q-1 10 -68 10q-90 0 -144 -85
q-47 -74 -47 -177zM346 567q17 0 24.5 -4.5t7.5 -23.5q0 -38 -36 -38q-33 0 -33 28q0 38 37 38zM207 561q18 0 24 -3q9 -6 9 -24q0 -38 -37 -38q-32 0 -32 27q0 38 36 38z" />
    <glyph glyph-name="atilde" unicode="&#xe3;" horiz-adv-x="528" 
d="M463 464q27 0 29 -12q1 -8 -8 -43q-9 -39 -9 -60q0 -10 7 -38.5t7 -54.5q0 -19 -6 -66t-6 -89q0 -16 10 -53t10 -50q0 -20 -18 -20q-13 0 -25.5 34t-25.5 34q-12 0 -36 -13q-32 -18 -55 -26q-42 -13 -97 -13q-64 0 -126 34q-83 46 -83 128q0 115 54 201q60 92 151 92
q69 0 113 -19q27 -11 52 -35q20 -19 30 -19q7 0 9 18.5t4 37.5q4 32 19 32zM64 161q0 -64 47 -100.5t129 -36.5q181 0 200 150q10 78 4 113q-5 34 -8 41q-7 22 -27 30q-31 13 -60 14.5t-33 3.5q-10 4 -11 15q0 8 9.5 11.5t8.5 10.5q-1 10 -68 10q-90 0 -144 -85
q-47 -74 -47 -177zM362 584q2 1 7 12q4 8 8.5 12t12.5 4q7 0 14 -7.5t7 -11.5q0 -3 -14 -23q-18 -25 -38.5 -46t-38.5 -26q-18 -7 -32 8q-6 6 -27 39q-15 24 -27 24q-2 0 -37 -31q-11 -14 -22 -27q-13 -16 -29 -17q-10 4 -19 12q0 14 17 27q28 23 33 29l26 34q18 20 39 20
q5 0 23 -26q26 -36 31 -42q14 -17 22 -17q9 0 44 53z" />
    <glyph glyph-name="aring" unicode="&#xe5;" horiz-adv-x="534" 
d="M463 464q27 0 29 -12q1 -8 -8 -43q-9 -39 -9 -60q0 -10 7 -38.5t7 -54.5q0 -19 -6 -66t-6 -89q0 -16 10 -53t10 -50q0 -20 -18 -20q-13 0 -25.5 34t-25.5 34q-12 0 -36 -13q-32 -18 -55 -26q-42 -13 -97 -13q-64 0 -126 34q-83 46 -83 128q0 115 54 201q60 92 151 92
q69 0 113 -19q27 -11 52 -35q20 -19 30 -19q7 0 9 18.5t4 37.5q4 32 19 32zM64 161q0 -64 47 -100.5t129 -36.5q181 0 200 150q10 78 4 113q-5 34 -8 41q-7 22 -27 30q-31 13 -60 14.5t-33 3.5q-10 4 -11 15q0 8 9.5 11.5t8.5 10.5q-1 10 -68 10q-90 0 -144 -85
q-47 -74 -47 -177zM272 649q23 0 59 -23q39 -26 39 -50q0 -32 -21 -59q-24 -30 -61 -30q-25 0 -62 26.5t-37 52.5q0 19 28 51t55 32zM223 564q0 -15 18.5 -30.5t30.5 -15.5q71 0 71 43q0 22 -24 40t-47 18q-22 0 -35.5 -16.5t-13.5 -38.5z" />
    <glyph glyph-name="ccedilla" unicode="&#xe7;" horiz-adv-x="488" 
d="M216 -15q-7 0 -17 1h-15q-2 0 -13 6q-16 8 -34 14q-66 22 -86 66q-15 32 -15 120q0 117 65 183q62 62 163 62q75 0 133 -34q62 -37 62 -91q0 -26 -16 -26q-18 0 -27 32q-11 41 -33 59q-38 31 -128 31q-88 0 -139 -68q-44 -59 -51 -148q-5 -71 38 -120q47 -54 134 -54
q71 0 102 38l44 70q4 7 17 15q21 1 21 -27q0 -27 -57 -79t-88 -52h-29q0 -13 -3 -30q-2 -13 0 -24q5 -21 52 -32t46 -35q-1 -47 -81 -66q-14 -4 -29 -4q-62 0 -103 51q-3 4 -3 9q0 16 17 16q7 0 12 -6q33 -41 74 -41q9 0 18 2q20 4 39 8q15 5 16 17q2 17 -36 29
q-43 14 -50 32q-5 12 -5 26q0 9 2.5 25.5t2.5 24.5z" />
    <glyph glyph-name="eacute" unicode="&#xe9;" horiz-adv-x="480" 
d="M259 473q82 0 129 -85q33 -61 33 -113q0 -33 -17 -33q-5 0 -22.5 5.5t-27.5 5.5q-35 0 -152 -10q-34 1 -67 1q-52 -1 -60.5 -11.5t-8.5 -63.5q0 -37 50 -89q68 -72 127 -72q72 0 112 37q23 30 47 60q5 7 11 14.5t13 7.5q26 0 26 -20q0 -30 -63 -77q-72 -54 -146 -54
q-61 0 -134 70q-78 74 -78 150q0 95 64 182q70 95 164 95zM87 275q7 -8 119 0l104 2q57 3 57 25q0 48 -26 85q-37 54 -78 54q-74 0 -121 -45q-26 -25 -43 -73q-16 -42 -12 -48zM329 594q-7 -10 -31.5 -22.5t-49.5 -25.5q-12 -7 -38 -31q-17 -17 -35 -15q-26 1 -17 25
q5 13 38 31l58 33q10 7 37 33q18 18 31 18q20 0 20 -16q0 -11 -13 -30z" />
    <glyph glyph-name="egrave" unicode="&#xe8;" horiz-adv-x="477" 
d="M259 473q82 0 129 -85q33 -61 33 -113q0 -33 -17 -33q-5 0 -22.5 5.5t-27.5 5.5q-35 0 -152 -10q-34 1 -67 1q-52 -1 -60.5 -11.5t-8.5 -63.5q0 -37 50 -89q68 -72 127 -72q72 0 112 37q23 30 47 60q5 7 11 14.5t13 7.5q26 0 26 -20q0 -30 -63 -77q-72 -54 -146 -54
q-61 0 -134 70q-78 74 -78 150q0 95 64 182q70 95 164 95zM87 275q7 -8 119 0l104 2q57 3 57 25q0 48 -26 85q-37 54 -78 54q-74 0 -121 -45q-26 -25 -43 -73q-16 -42 -12 -48zM183 634q14 0 35 -20q31 -30 40 -35q2 -2 55 -31q29 -16 34 -29q4 -9 -1.5 -18t-19.5 -10
q-17 -1 -35 18q-24 26 -37 33q-9 5 -52 24q-25 11 -31 20q-10 14 -10 26q0 22 22 22z" />
    <glyph glyph-name="ecircumflex" unicode="&#xea;" horiz-adv-x="475" 
d="M259 473q82 0 129 -85q33 -61 33 -113q0 -33 -17 -33q-5 0 -22.5 5.5t-27.5 5.5q-35 0 -152 -10q-34 1 -67 1q-52 -1 -60.5 -11.5t-8.5 -63.5q0 -37 50 -89q68 -72 127 -72q72 0 112 37q23 30 47 60q5 7 11 14.5t13 7.5q26 0 26 -20q0 -30 -63 -77q-72 -54 -146 -54
q-61 0 -134 70q-78 74 -78 150q0 95 64 182q70 95 164 95zM87 275q7 -8 119 0l104 2q57 3 57 25q0 48 -26 85q-37 54 -78 54q-74 0 -121 -45q-26 -25 -43 -73q-16 -42 -12 -48zM249 646q14 0 49.5 -40t42.5 -68q3 -9 -4 -18.5t-19 -9.5q-16 0 -29 34q-16 43 -44 64
q-20 -14 -45 -71q-22 -48 -39 -48q-19 0 -19 23q0 8 3 14q18 44 58 85q35 35 46 35z" />
    <glyph glyph-name="edieresis" unicode="&#xeb;" horiz-adv-x="475" 
d="M259 473q82 0 129 -85q33 -61 33 -113q0 -33 -17 -33q-5 0 -22.5 5.5t-27.5 5.5q-35 0 -152 -10q-34 1 -67 1q-52 -1 -60.5 -11.5t-8.5 -63.5q0 -37 50 -89q68 -72 127 -72q72 0 112 37q23 30 47 60q5 7 11 14.5t13 7.5q26 0 26 -20q0 -30 -63 -77q-72 -54 -146 -54
q-61 0 -134 70q-78 74 -78 150q0 95 64 182q70 95 164 95zM87 275q7 -8 119 0l104 2q57 3 57 25q0 48 -26 85q-37 54 -78 54q-74 0 -121 -45q-26 -25 -43 -73q-16 -42 -12 -48zM315 586q17 0 24.5 -4.5t7.5 -23.5q0 -38 -36 -38q-33 0 -33 28q0 38 37 38zM176 580
q18 0 24 -3q9 -6 9 -24q0 -38 -37 -38q-32 0 -32 27q0 38 36 38z" />
    <glyph glyph-name="iacute" unicode="&#xed;" horiz-adv-x="168" 
d="M93 483q8 -1 8 -28l-3 -332q0 -14 8 -38.5l8 -24.5q-20 -68 -32 -68q-22 0 -22 30q0 7 1.5 22.5t1.5 21.5q0 48 -3 188q-3 105 0 188q2 47 33 41zM163 609q-7 -10 -31.5 -22.5t-49.5 -25.5q-12 -7 -38 -31q-17 -17 -35 -15q-26 1 -17 25q5 13 38 31l58 33q10 7 37 33
q18 18 31 18q20 0 20 -16q0 -11 -13 -30z" />
    <glyph glyph-name="igrave" unicode="&#xec;" horiz-adv-x="168" 
d="M93 483q8 -1 8 -28l-3 -332q0 -14 8 -38.5l8 -24.5q-20 -68 -32 -68q-22 0 -22 30q0 7 1.5 22.5t1.5 21.5q0 48 -3 188q-3 105 0 188q2 47 33 41zM6 646q14 0 35 -20q31 -30 40 -35q2 -2 55 -31q29 -16 34 -29q4 -9 -1.5 -18t-19.5 -10q-17 -1 -35 18q-24 26 -37 33
q-9 5 -52 24q-25 11 -31 20q-10 14 -10 26q0 22 22 22z" />
    <glyph glyph-name="icircumflex" unicode="&#xee;" horiz-adv-x="178" 
d="M96 483q8 -1 8 -28l-3 -332q0 -14 8 -38.5l8 -24.5q-20 -68 -32 -68q-22 0 -22 30q0 7 1.5 22.5t1.5 21.5q0 48 -3 188q-3 105 0 188q2 47 33 41zM104 678q14 0 49.5 -40t42.5 -68q3 -9 -4 -18.5t-19 -9.5q-16 0 -29 34q-16 43 -44 64q-20 -14 -45 -71q-22 -48 -39 -48
q-19 0 -19 23q0 8 3 14q18 44 58 85q35 35 46 35z" />
    <glyph glyph-name="idieresis" unicode="&#xef;" horiz-adv-x="180" 
d="M98 483q8 -1 8 -28l-3 -332q0 -14 8 -38.5l8 -24.5q-20 -68 -32 -68q-22 0 -22 30q0 7 1.5 22.5t1.5 21.5q0 48 -3 188q-3 105 0 188q2 47 33 41zM164 594q17 0 24.5 -4.5t7.5 -23.5q0 -38 -36 -38q-33 0 -33 28q0 38 37 38zM25 588q18 0 24 -3q9 -6 9 -24q0 -38 -37 -38
q-32 0 -32 27q0 38 36 38z" />
    <glyph glyph-name="ntilde" unicode="&#xf1;" horiz-adv-x="445" 
d="M244 474q84 0 125 -45q36 -39 34 -104q0 -5 -1.5 -16t-1.5 -18v-47q-2 -146 -1 -206q1 -8 2 -17t-3 -14q-11 -11 -26 -4q-17 8 -17 38q0 17 4.5 38.5t4.5 19.5q0 40 1 101.5t1 100.5q0 78 -25 112t-87 34q-44 0 -92 -28q-44 -26 -76 -66q-6 -8 -13 -33q-4 -20 -7 -152
q1 -48 0 -160l4 -18q2 -9 -5 -13q-5 -3 -26 3q-7 2 -6 10q2 30 2 22q0 24 -3 133q-1 72 2 134q0 49 7 153l2 20q1 5 10 6q12 1 19 -20q1 -11 2.5 -21t11.5 -10q6 0 16 4q21 16 42 33q41 30 100 30zM313 602q2 1 7 12q4 8 8.5 12t12.5 4q7 0 14 -7.5t7 -11.5q0 -3 -14 -23
q-18 -25 -38.5 -46t-38.5 -26q-18 -7 -32 8q-6 6 -27 39q-15 24 -27 24q-2 0 -37 -31q-11 -14 -22 -27q-13 -16 -29 -17q-10 4 -19 12q0 14 17 27q28 23 33 29l26 34q18 20 39 20q5 0 23 -26q26 -36 31 -42q14 -17 22 -17q9 0 44 53z" />
    <glyph glyph-name="oacute" unicode="&#xf3;" horiz-adv-x="578" 
d="M293 494q52 0 61 -13q13 -20 30 -26q99 -35 111 -43q51 -32 51 -100q0 -153 -74 -241.5t-191 -88.5q-81 0 -153 47q-99 65 -99 189q21 80 55 138q80 138 209 138zM68 189q0 -68 67 -121t151 -53q108 0 170 100q53 85 53 194q0 68 -82 99q-5 2 -30 16q-18 9 -28 9
q-5 0 -12 -4t-15 -4q-10 0 -31 8q-2 1 -20.5 14t-21.5 13q-84 0 -147 -100q-54 -87 -54 -171zM362 628q-7 -10 -31.5 -22.5t-49.5 -25.5q-12 -7 -38 -31q-17 -17 -35 -15q-26 1 -17 25q5 13 38 31l58 33q10 7 37 33q18 18 31 18q20 0 20 -16q0 -11 -13 -30z" />
    <glyph glyph-name="ograve" unicode="&#xf2;" horiz-adv-x="578" 
d="M296 494q52 0 61 -13q13 -20 30 -26q99 -35 111 -43q51 -32 51 -100q0 -153 -74 -241.5t-191 -88.5q-81 0 -153 47q-99 65 -99 189q21 80 55 138q80 138 209 138zM71 189q0 -68 67 -121t151 -53q108 0 170 100q53 85 53 194q0 68 -82 99q-5 2 -30 16q-18 9 -28 9
q-5 0 -12 -4t-15 -4q-10 0 -31 8q-2 1 -20.5 14t-21.5 13q-84 0 -147 -100q-54 -87 -54 -171zM224 683q14 0 35 -20q31 -30 40 -35q2 -2 55 -31q29 -16 34 -29q4 -9 -1.5 -18t-19.5 -10q-17 -1 -35 18q-24 26 -37 33q-9 5 -52 24q-25 11 -31 20q-10 14 -10 26q0 22 22 22z
" />
    <glyph glyph-name="ocircumflex" unicode="&#xf4;" horiz-adv-x="578" 
d="M300 494q52 0 61 -13q13 -20 30 -26q99 -35 111 -43q51 -32 51 -100q0 -153 -74 -241.5t-191 -88.5q-81 0 -153 47q-99 65 -99 189q21 80 55 138q80 138 209 138zM75 189q0 -68 67 -121t151 -53q108 0 170 100q53 85 53 194q0 68 -82 99q-5 2 -30 16q-18 9 -28 9
q-5 0 -12 -4t-15 -4q-10 0 -31 8q-2 1 -20.5 14t-21.5 13q-84 0 -147 -100q-54 -87 -54 -171zM293 680q14 0 49.5 -40t42.5 -68q3 -9 -4 -18.5t-19 -9.5q-16 0 -29 34q-16 43 -44 64q-20 -14 -45 -71q-22 -48 -39 -48q-19 0 -19 23q0 8 3 14q18 44 58 85q35 35 46 35z" />
    <glyph glyph-name="odieresis" unicode="&#xf6;" horiz-adv-x="581" 
d="M296 494q52 0 61 -13q13 -20 30 -26q99 -35 111 -43q51 -32 51 -100q0 -153 -74 -241.5t-191 -88.5q-81 0 -153 47q-99 65 -99 189q21 80 55 138q80 138 209 138zM71 189q0 -68 67 -121t151 -53q108 0 170 100q53 85 53 194q0 68 -82 99q-5 2 -30 16q-18 9 -28 9
q-5 0 -12 -4t-15 -4q-10 0 -31 8q-2 1 -20.5 14t-21.5 13q-84 0 -147 -100q-54 -87 -54 -171zM373 596q17 0 24.5 -4.5t7.5 -23.5q0 -38 -36 -38q-33 0 -33 28q0 38 37 38zM234 590q18 0 24 -3q9 -6 9 -24q0 -38 -37 -38q-32 0 -32 27q0 38 36 38z" />
    <glyph glyph-name="otilde" unicode="&#xf5;" horiz-adv-x="581" 
d="M293 494q52 0 61 -13q13 -20 30 -26q99 -35 111 -43q51 -32 51 -100q0 -153 -74 -241.5t-191 -88.5q-81 0 -153 47q-99 65 -99 189q21 80 55 138q80 138 209 138zM68 189q0 -68 67 -121t151 -53q108 0 170 100q53 85 53 194q0 68 -82 99q-5 2 -30 16q-18 9 -28 9
q-5 0 -12 -4t-15 -4q-10 0 -31 8q-2 1 -20.5 14t-21.5 13q-84 0 -147 -100q-54 -87 -54 -171zM401 618q2 1 7 12q4 8 8.5 12t12.5 4q7 0 14 -7.5t7 -11.5q0 -3 -14 -23q-18 -25 -38.5 -46t-38.5 -26q-18 -7 -32 8q-6 6 -27 39q-15 24 -27 24q-2 0 -37 -31q-11 -14 -22 -27
q-13 -16 -29 -17q-10 4 -19 12q0 14 17 27q28 23 33 29l26 34q18 20 39 20q5 0 23 -26q26 -36 31 -42q14 -17 22 -17q9 0 44 53z" />
    <glyph glyph-name="uacute" unicode="&#xfa;" horiz-adv-x="465" 
d="M377 521q11 0 19 -10t7 -22q-4 -52 -3 -133q0 -77 3 -101q1 -5 13 -9t12 -20q0 -12 -20 -102q0 1 7 -38t7 -51q0 -25 -7.5 -31.5t-31.5 -6.5q-9 0 -10 14q1 -6 1 64q-66 -93 -174 -93q-101 0 -140 51q-31 39 -31 128q0 47 18.5 111.5t41.5 112.5q12 20 30 52q13 27 14 28
q5 9 14 9q7 0 16.5 -7t9.5 -20q0 -6 -38 -67.5t-38 -71.5q-30 -98 -30 -169q0 -50 21 -82q25 -38 65 -38q75 0 94 5q56 15 92 61.5t39 131.5q0 12 -5 39.5t-6 54.5q0 31 -3 90q-1 16 -7 51q-5 29 -5 37q0 12 7 22t18 10zM340 626q-7 -10 -31.5 -22.5t-49.5 -25.5
q-12 -7 -38 -31q-17 -17 -35 -15q-26 1 -17 25q5 13 38 31l58 33q10 7 37 33q18 18 31 18q20 0 20 -16q0 -11 -13 -30z" />
    <glyph glyph-name="ugrave" unicode="&#xf9;" horiz-adv-x="465" 
d="M377 521q11 0 19 -10t7 -22q-4 -52 -3 -133q0 -77 3 -101q1 -5 13 -9t12 -20q0 -12 -20 -102q0 1 7 -38t7 -51q0 -25 -7.5 -31.5t-31.5 -6.5q-9 0 -10 14q1 -6 1 64q-66 -93 -174 -93q-101 0 -140 51q-31 39 -31 128q0 47 18.5 111.5t41.5 112.5q12 20 30 52q13 27 14 28
q5 9 14 9q7 0 16.5 -7t9.5 -20q0 -6 -38 -67.5t-38 -71.5q-30 -98 -30 -169q0 -50 21 -82q25 -38 65 -38q75 0 94 5q56 15 92 61.5t39 131.5q0 12 -5 39.5t-6 54.5q0 31 -3 90q-1 16 -7 51q-5 29 -5 37q0 12 7 22t18 10zM166 660q14 0 35 -20q31 -30 40 -35q2 -2 55 -31
q29 -16 34 -29q4 -9 -1.5 -18t-19.5 -10q-17 -1 -35 18q-24 26 -37 33q-9 5 -52 24q-25 11 -31 20q-10 14 -10 26q0 22 22 22z" />
    <glyph glyph-name="ucircumflex" unicode="&#xfb;" horiz-adv-x="465" 
d="M377 521q11 0 19 -10t7 -22q-4 -52 -3 -133q0 -77 3 -101q1 -5 13 -9t12 -20q0 -12 -20 -102q0 1 7 -38t7 -51q0 -25 -7.5 -31.5t-31.5 -6.5q-9 0 -10 14q1 -6 1 64q-66 -93 -174 -93q-101 0 -140 51q-31 39 -31 128q0 47 18.5 111.5t41.5 112.5q12 20 30 52q13 27 14 28
q5 9 14 9q7 0 16.5 -7t9.5 -20q0 -6 -38 -67.5t-38 -71.5q-30 -98 -30 -169q0 -50 21 -82q25 -38 65 -38q75 0 94 5q56 15 92 61.5t39 131.5q0 12 -5 39.5t-6 54.5q0 31 -3 90q-1 16 -7 51q-5 29 -5 37q0 12 7 22t18 10zM268 685q14 0 49.5 -40t42.5 -68q3 -9 -4 -18.5
t-19 -9.5q-16 0 -29 34q-16 43 -44 64q-20 -14 -45 -71q-22 -48 -39 -48q-19 0 -19 23q0 8 3 14q18 44 58 85q35 35 46 35z" />
    <glyph glyph-name="udieresis" unicode="&#xfc;" horiz-adv-x="465" 
d="M377 521q11 0 19 -10t7 -22q-4 -52 -3 -133q0 -77 3 -101q1 -5 13 -9t12 -20q0 -12 -20 -102q0 1 7 -38t7 -51q0 -25 -7.5 -31.5t-31.5 -6.5q-9 0 -10 14q1 -6 1 64q-66 -93 -174 -93q-101 0 -140 51q-31 39 -31 128q0 47 18.5 111.5t41.5 112.5q12 20 30 52q13 27 14 28
q5 9 14 9q7 0 16.5 -7t9.5 -20q0 -6 -38 -67.5t-38 -71.5q-30 -98 -30 -169q0 -50 21 -82q25 -38 65 -38q75 0 94 5q56 15 92 61.5t39 131.5q0 12 -5 39.5t-6 54.5q0 31 -3 90q-1 16 -7 51q-5 29 -5 37q0 12 7 22t18 10zM314 604q17 0 24.5 -4.5t7.5 -23.5q0 -38 -36 -38
q-33 0 -33 28q0 38 37 38zM175 598q18 0 24 -3q9 -6 9 -24q0 -38 -37 -38q-32 0 -32 27q0 38 36 38z" />
    <glyph glyph-name="degree" unicode="&#xb0;" horiz-adv-x="268" 
d="M124 726q23 0 59 -23q39 -26 39 -50q0 -32 -21 -59q-24 -30 -61 -30q-25 0 -62 26.5t-37 52.5q0 19 28 51t55 32zM75 641q0 -15 18.5 -30.5t30.5 -15.5q71 0 71 43q0 22 -24 40t-47 18q-22 0 -35.5 -16.5t-13.5 -38.5z" />
    <glyph glyph-name="registered" unicode="&#xae;" horiz-adv-x="615" 
d="M318 685q52 0 60 -12q14 -21 30 -27q99 -35 111 -42q52 -32 52 -101q0 -153 -76 -243q-72 -86 -190 -86q-80 0 -152 47q-99 64 -99 188q21 81 54 138q80 138 210 138zM92 380q0 -70 67.5 -123.5t152.5 -53.5q108 0 171 102q54 85 54 196q0 68 -83 100q-5 2 -30 15
q-19 10 -29 10q-5 0 -12 -4t-15 -4q-11 0 -31 7q-3 1 -21 14.5t-21 13.5q-86 0 -149 -101q-54 -88 -54 -172zM246 606q13 5 20 -12q18 -4 50 -12q14 -3 30.5 -7t27.5 -14q6 -6 13.5 -27t8.5 -36q1 -25 -29 -69q-2 -3 -11 -10q12 -16 35 -61l23 -65q5 -18 -6 -22
q-14 -5 -21 10q-11 27 -23 66.5t-28 51.5l-73 -15q1 -38 -2 -115v-14q-1 -9 -9 -12q-14 -5 -20 8q-2 6 -1 10q3 5 3 6q0 4 -2 91q-1 3 1 11q-11 -4 -17 8q-6 18 17 26q-3 8 0 68q3 76 -4 91q-4 4 -9 12q-2 8 17 19q-1 10 9 13zM314 419q-4 5 -4 10q0 8 9 11q7 2 15 -3
q30 41 30 56q0 34 -21 50q-14 10 -49 17q-22 4 -31 1q0 -3 -1 -84q-1 -26 -2 -44q1 -6 -2 -17z" />
    <glyph glyph-name="copyright" unicode="&#xa9;" horiz-adv-x="615" 
d="M317 685q52 0 60 -12q14 -21 30 -27q99 -35 111 -42q51 -32 51 -101q0 -153 -75 -243q-73 -86 -190 -86q-80 0 -152 47q-99 64 -99 188q21 81 54 138q80 138 210 138zM87 380q0 -69 69.5 -123t154.5 -54q108 0 171 102q54 85 54 196q0 68 -83 100q-5 2 -30 15
q-19 10 -29 10q-5 0 -12 -4t-15 -4q-11 0 -31 7q-3 1 -21 14.5t-21 13.5q-86 0 -150 -101q-57 -88 -57 -172zM318 583q49 0 89.5 -27t40.5 -63q0 -15 -12 -15t-18 20q-8 26 -22 37q-25 20 -84 20q-11 0 -34 -4q-78 -29 -85 -135q-4 -48 21 -79q29 -35 86 -35q47 0 68 25
q14 23 29 46q8 9 15 9q8 1 8 -20q0 -18 -33 -49.5t-62 -34.5q-9 -1 -19 -1q-30 0 -70 14q-46 15 -62 48q-11 24 -11 77q0 77 46 123q43 44 109 44z" />
    <glyph glyph-name="trademark" unicode="&#x2122;" horiz-adv-x="543" 
d="M140 697q3 0 7 -2.5t6 -2.5q9 -3 27 -3h21l13.5 3t23.5 3q21 0 22 -13q1 -14 -18.5 -16.5t-38.5 -3.5h-52q1 -4 1 -63q0 -13 2 -35t2 -36q0 4 -2 -50q-1 -49 0 -67q0 -29 -17 -29q-20 0 -17 30q6 65 6 131q0 7 -1.5 22t-1.5 38v57q-3 0 -29.5 -2.5t-44.5 -1.5
q-22 0 -22 18q0 11 22 11h19q13 -1 18 -1q27 0 37 3q3 1 8 5.5t9 4.5zM288 685q3 2 6 2q8 0 12.5 -17.5t9.5 -33.5q4 -11 36 -84q12 -30 35 -83q9 30 30 90l20 42q12 25 16 46q0 2 -1 18q-1 11 5 15q15 10 26 0q2 -2 2 -25q0 -6 -2.5 -18.5t-2.5 -14.5q0 -8 12 -103.5
t12 -101.5q0 -28 -13 -28q-5 0 -15 8q-5 4 -6 12q0 6 1.5 15.5t1.5 11.5q0 11 -3 32.5t-4 30.5q-5 81 -5 68q0 26 -2 27q-1 0 -22 -46q-18 -39 -39 -117q3 -6 5 -19q0 -14 -22 -14q-8 0 -10.5 11t-4.5 22q-8 26 -29 86q-4 10 -19 43q-13 28 -13 31l-14 -80q-2 -7 -11 -51
q-6 -28 -6 -43q0 -11 -1 -15q-7 -22 -21 -21q-16 0 -16 15q0 4 3 20q7 24 19 71.5t29 148.5q-10 21 -10 33q0 11 11 16z" />
    <glyph glyph-name="notequal" unicode="&#x2260;" horiz-adv-x="431" 
d="M171 153l3 6q8 17 24 78q-8 0 -45.5 -1t-69.5 -1q-13 0 -24.5 5.5t-11.5 14.5q0 8 13 16t33 8q13 0 29.5 -2.5t29.5 -2.5h26q19 1 28 1q7 32 19 74q5 12 10.5 23t20.5 11q18 3 18 -10q0 -6 -3.5 -15t-3.5 -11q-5 -25 -18 -70q22 0 53.5 2.5t39.5 2.5q42 0 42 -20t-50 -20
q-30 0 -58 -2t-36 -2q-10 -32 -31 -85h96q5 0 14.5 1t14.5 1q21 0 21 -24q0 -18 -21 -18q-7 0 -19 2t-16 2q-15 0 -46 1t-55 1q-7 -16 -13 -32q-7 -23 -15 -47q-11 -29 -24 -24q-18 6 -18 20q0 3 29 83h-6q-8 0 -37 -5.5t-42 -5.5q-23 0 -23 13q0 3 2 6q6 20 29 25
q11 2 48 2q13 0 27 -1h16z" />
    <glyph glyph-name="infinity" unicode="&#x221e;" horiz-adv-x="728" 
d="M22 349q2 46 46 85.5t95 34.5q58 -5 143 -66l56 -40q9 5 79 62q46 37 88 40q66 5 99 -13q42 -23 50 -35q22 -32 25 -123q1 -34 -28 -69q-37 -44 -94 -42q-138 5 -229 122q-113 -122 -171 -120q-74 3 -118 43.5t-41 120.5zM172 215q46 -3 100 58q23 26 54 58
q-30 31 -57 53q-67 54 -110 55q-21 1 -46.5 -10t-38.5 -29q-16 -20 -18 -75q-2 -50 33 -81q32 -28 80 -29h3zM576 221q41 -3 66 24q29 31 30 59q2 91 -67 121q-6 3 -74 10q-31 3 -80 -41q-32 -29 -68 -66q10 -14 21 -27q27 -31 53 -49q37 -27 118 -32z" />
    <glyph glyph-name="plusminus" unicode="&#xb1;" horiz-adv-x="435" 
d="M349 65q43 0 40 -24q-2 -20 -28 -20q-6 0 -12 2q-2 3 -9 6q4 -1 -12 -1q-21 -2 -87 -17q-47 -11 -152 -11q-12 0 -23.5 6t-11.5 14q0 9 14.5 18.5t33.5 9.5q14 0 28 -5t27 -5q37 0 107.5 13.5t84.5 13.5zM225 505q16 0 19 -10v-16q0 -9 -3 -25.5t-3 -23.5t-1.5 -22.5
t-1.5 -24.5q0 -31 17 -49q4 -5 12 -3q6 2 13 4q12 0 94 17q24 5 30 5q16 0 19 -11q5 -16 -20 -29q-1 -1 -46 -8q-69 -10 -93 -10q-12 0 -21.5 -11.5t-12.5 -185.5q0 -22 -18 -22t-27 28q-3 11 1 29q20 84 20 108q0 -2 3 26q2 13 -5 21.5t-17 8.5q-7 0 -19.5 -4t-19.5 -4
q-18 -2 -42 -11q-29 -11 -38 -13q-13 -2 -19 10q-3 6 0 15q5 13 31 17q62 8 70 10q1 0 31 3q16 2 22 11q4 6 4 32v37q-1 26 -1 39q0 33 2 41q4 21 20 21z" />
    <glyph glyph-name="lessequal" unicode="&#x2264;" horiz-adv-x="435" 
d="M349 65q43 0 40 -24q-2 -20 -28 -20q-6 0 -12 2q-2 3 -9 6q4 -1 -12 -1q-21 -2 -87 -17q-47 -11 -152 -11q-12 0 -23.5 6t-11.5 14q0 9 14.5 18.5t33.5 9.5q14 0 28 -5t27 -5q37 0 107.5 13.5t84.5 13.5zM347 536q15 -3 12 -22q-2 -12 -23 -25q-33 -20 -37 -23
q-54 -44 -113.5 -103t-60.5 -68q0 -8 10 -17.5t22 -19.5q37 -34 120 -97q16 -10 33 -20q14 -9 11 -25q-3 -20 -24 -16q-28 5 -80 56q-38 36 -75 72q-27 20 -55 41q-20 14 -20 26q0 11 32 35q47 35 80 74q2 3 65 57q90 77 103 75z" />
    <glyph glyph-name="greaterequal" unicode="&#x2265;" horiz-adv-x="435" 
d="M349 65q43 0 40 -24q-2 -20 -28 -20q-6 0 -12 2q-2 3 -9 6q4 -1 -12 -1q-21 -2 -87 -17q-47 -11 -152 -11q-12 0 -23.5 6t-11.5 14q0 9 14.5 18.5t33.5 9.5q14 0 28 -5t27 -5q37 0 107.5 13.5t84.5 13.5zM135 85q-15 0 -15 20q0 12 18 31l33 33q42 50 122 156
q22 34 22 36q0 17 -62 50q-41 20 -115 58l-32 12t-18 22q0 8 7 14t14 6q28 0 89 -40q43 -30 86 -59q31 -15 63 -29q22 -11 22 -23q0 -11 -4 -17q-14 -17 -27 -33q-19 -19 -60 -79q-5 -8 -54 -70q-69 -88 -89 -88z" />
    <glyph glyph-name="mu" unicode="&#xb5;" 
d="M61 86q-3 13 -1 36q2 34 2 39q0 77 10 111q3 24 14 99q1 26 9 66q13 27 14 28q5 9 14 9q7 0 16 -7t9 -20q0 -6 -20 -65t-20 -69q-15 -103 -15 -174q0 -51 20 -81q21 -33 64 -33q79 0 95 4q51 14 84 57t42 132q2 20 -4.5 86.5t-5.5 96.5q1 16 -6 42.5t-7 37.5q0 40 26 40
q22 0 26 -28q8 -48 6 -98l-6 -140q-1 -44 6 -131q0 1 5.5 -38t5.5 -51q0 -24 -6 -29.5t-31 -5.5q-14 0 -14 10q0 2 2.5 23t2.5 42q-66 -93 -174 -93q-87 0 -113 18q-7 4 -8 -47q-2 -80 -3 -92q-1 -9 1.5 -29t2.5 -26q0 -21 -13 -23q-8 -1 -14 -1q-25 0 -25 39q0 13 6.5 81
t6.5 67q-7 74 -4 117z" />
    <glyph glyph-name="mu" unicode="&#x3bc;" 
d="M61 86q-3 13 -1 36q2 34 2 39q0 77 10 111q3 24 14 99q1 26 9 66q13 27 14 28q5 9 14 9q7 0 16 -7t9 -20q0 -6 -20 -65t-20 -69q-15 -103 -15 -174q0 -51 20 -81q21 -33 64 -33q79 0 95 4q51 14 84 57t42 132q2 20 -4.5 86.5t-5.5 96.5q1 16 -6 42.5t-7 37.5q0 40 26 40
q22 0 26 -28q8 -48 6 -98l-6 -140q-1 -44 6 -131q0 1 5.5 -38t5.5 -51q0 -24 -6 -29.5t-31 -5.5q-14 0 -14 10q0 2 2.5 23t2.5 42q-66 -93 -174 -93q-87 0 -113 18q-7 4 -8 -47q-2 -80 -3 -92q-1 -9 1.5 -29t2.5 -26q0 -21 -13 -23q-8 -1 -14 -1q-25 0 -25 39q0 13 6.5 81
t6.5 67q-7 74 -4 117z" />
    <glyph glyph-name="partialdiff" unicode="&#x2202;" horiz-adv-x="438" 
d="M385 384q0 -4 -3 -44q-1 -24 3 -31.5t15.5 -16t11.5 -12.5q0 -3 -3 -5q-3 -5 -13 -2q-11 3 -16 0q-4 -3 -5 -16q-4 -36 -17 -101q-25 -123 -50 -161q-21 -32 -65 -32q-94 0 -149 43q-63 51 -63 152t44 170q54 83 159 83q53 0 118 -55q1 121 -14 172q-45 158 -136 158
q-53 0 -82 -26q-22 -20 -31 -58q-6 -30 -11.5 -58.5t-21.5 -27.5t-16 30q0 67 49.5 119.5t117.5 52.5q92 0 140 -112q38 -91 38 -222zM226 377q-85 0 -133 -89q-35 -66 -35 -128q0 -73 51 -121t122 -48q26 0 63 71q49 96 55 245q1 15 -40 41q-45 29 -83 29z" />
    <glyph glyph-name="summation" unicode="&#x2211;" horiz-adv-x="543" 
d="M53 95q0 26 23 37.5l45 22.5q3 5 9 13.5t19.5 13.5t18.5 11q1 0 77 69q47 42 123 104q8 4 16.5 7.5t4.5 10.5q-1 4 -28 30q-25 23 -57 46q-44 30 -57 40q-17 14 -116 103q-5 6 -17 16q-6 4 -6 10q0 9 9.5 18t16.5 9q3 0 8.5 1t8.5 1q21 8 78 20q53 5 142 30q84 24 88 24
q32 0 30 -21q0 -5 -8.5 -22t-19.5 -17q-6 0 -16 4.5t-14 4.5q-63 2 -95 -22l-21 -16q-3 0 -5 1.5t-4 5.5t-4 4q-16 2 -39 -5q-18 -6 -35.5 -10.5t-33.5 -6.5q-23 -5 -23 -13q0 -3 4 -7q4 -8 18 -18.5t31 -28.5q31 -33 33 -34q27 -27 75 -58t77 -61q4 -7 13 -14l24 -4
q15 -5 15 -25q0 -9 -40 -21q-34 -15 -66 -39q-33 -27 -66 -52.5t-92 -79.5q-1 -1 -27 -21q-18 -13 -14 -21q12 -7 32 -16q35 -13 111 -43q37 -16 75 -31q43 -18 69 -20q17 1 39 -5q5 -6 5 -27q0 -15 -19 -27q-2 -1 -4 -1q-5 0 -13.5 9t-11.5 10q-42 18 -99 42
q-107 47 -182 72q-11 5 -23 10.5t-22 4.5q-11 -2 -24 -17t-20 -15q-16 0 -16 14z" />
    <glyph glyph-name="product" unicode="&#x220f;" horiz-adv-x="574" 
d="M516 681q13 0 26 -1q23 0 22 -20q-1 -14 -24.5 -15.5t-23.5 -3.5q0 -19 10 -229q-2 -143 -4 -313q0 -10 3 -54q2 -31 0 -48q-4 -9 -20 -22q-12 -5 -19 -2q-7 2 -6 13q2 19 2 18q-2 20 1 133q3 110 5 140q4 35 4 168q0 130 -6 181q-2 21 -38 27q-15 3 -62 3q-28 0 -72 -1
t-71 -1q-99 0 -104 -1q-27 -1 -31 -11q4 -161 1 -245q-3 -183 -12 -409v-23q0 -11 -8 -16q-4 -3 -8 -3q-21 0 -21 53q0 14 3 96q5 106 6 150q6 154 6 248q0 129 -13 139q-11 2 -22 5q-18 5 -19 24q-1 11 17 14l22 2q7 1 16.5 11.5t14.5 7.5q5 -4 33 -12q-2 1 293 1
q66 0 55 -1q6 1 14 11t12 10q9 0 18 -24z" />
    <glyph glyph-name="pi" unicode="&#x3c0;" horiz-adv-x="541" 
d="M449 404q14 -1 31 -2q27 -2 26 -21q0 -13 -24 -16q-28 -3 -31.5 -7t-13.5 -114t-10 -133q0 -30 9 -60.5t7 -44.5q-4 -28 -27 -28q-9 0 -18.5 7t-10.5 15q-7 88 2 168q23 184 23 185q-1 7 -18.5 13.5t-67.5 6.5q-22 0 -84.5 10.5t-83.5 10.5q-27 0 -27 -20q0 -8 8 -73.5
t7 -112.5q-2 -108 -11 -193q-3 -23 -20 -23q-31 0 -31 33q0 6 1 14q11 75 13 172q3 190 -5 196q-18 1 -37 2q-31 1 -32 19q-1 16 39 16q15 0 34 9.5t20 9.5q7 2 19 -4q7 -4 15 -7q3 -2 101 -14t107 -12q6 0 39 3q6 1 16.5 9t14.5 8q12 0 14 -4z" />
    <glyph glyph-name="integral" unicode="&#x222b;" horiz-adv-x="307" 
d="M139 0q18 102 18 245q0 13 -14 136l-26 236q0 54 37 108q43 62 104 62q17 0 36 -6q32 -10 32 -22q0 -10 -19 -10q-7 0 -22.5 4.5t-26.5 4.5q-47 0 -76.5 -47t-29.5 -116q0 -51 15.5 -137.5t15.5 -140.5q0 -211 -17 -343q-8 -21 -16 -38q-20 -41 -38 -56q-60 -51 -100 -51
q-25 0 -42 17q-14 14 -14 30q0 7 3 11t10 3q8 -1 12 -7q13 -18 33 -18q35 0 75 43q47 50 50 92z" />
    <glyph glyph-name="Omega" unicode="&#x3a9;" horiz-adv-x="663" 
d="M341 679q-42 -3 -76 -24q-18 -10 -67 -50.5t-88 -121.5q-45 -93 -45 -182q0 -46 22 -106q8 -21 61 -88l14 -19q23 -29 14 -70q-3 -12 -24 -18q-39 -10 -50 -10q-15 0 -29 7q-27 13 -26 23q2 7 10.5 9t17.5 4q4 1 9 1q8 0 24.5 -4t22.5 -4q11 0 11 11q0 32 -29 62
q-39 41 -41 46q-40 74 -40 156q-1 72 15 124.5t56 113.5q114 175 281 175q46 0 116 -47q67 -44 103 -125q22 -48 22 -104q0 -19 -6 -86q-7 -80 -53 -186q-11 -23 -23 -46q-17 -35 -17 -45q0 -26 13 -37q5 -5 12 -5q5 0 15 3.5t16 3.5q4 0 9 -2q25 -11 25 -21q0 -9 -28 -17
q-3 -1 -10 -1q-20 0 -46 7q-29 8 -34.5 16t-6.5 16q0 5 1 16.5t1 16.5q0 43 29 94q35 62 42 92q28 120 28 170q0 120 -83 189t-168 63z" />
    <glyph glyph-name="Omega" unicode="&#x2126;" horiz-adv-x="663" 
d="M341 679q-42 -3 -76 -24q-18 -10 -67 -50.5t-88 -121.5q-45 -93 -45 -182q0 -46 22 -106q8 -21 61 -88l14 -19q23 -29 14 -70q-3 -12 -24 -18q-39 -10 -50 -10q-15 0 -29 7q-27 13 -26 23q2 7 10.5 9t17.5 4q4 1 9 1q8 0 24.5 -4t22.5 -4q11 0 11 11q0 32 -29 62
q-39 41 -41 46q-40 74 -40 156q-1 72 15 124.5t56 113.5q114 175 281 175q46 0 116 -47q67 -44 103 -125q22 -48 22 -104q0 -19 -6 -86q-7 -80 -53 -186q-11 -23 -23 -46q-17 -35 -17 -45q0 -26 13 -37q5 -5 12 -5q5 0 15 3.5t16 3.5q4 0 9 -2q25 -11 25 -21q0 -9 -28 -17
q-3 -1 -10 -1q-20 0 -46 7q-29 8 -34.5 16t-6.5 16q0 5 1 16.5t1 16.5q0 43 29 94q35 62 42 92q28 120 28 170q0 120 -83 189t-168 63z" />
    <glyph glyph-name="logicalnot" unicode="&#xac;" horiz-adv-x="677" 
d="M39 239q163 0 228 4q169 11 204 11q38 0 65 -3.5t53 -6.5q23 -5 38.5 -23t17.5 -43q1 -10 -1 -47q2 -22 1 -66q-1 -8 -5 -28.5t-4 -31.5q0 -16 -18 -16t-18 16q0 19 7 48q9 36 10 47q4 37 4 48q0 32 -21 52q-14 14 -28 17q-6 2 -41 4q-104 7 -128 6q-84 -6 -252 -16
q-125 -6 -114 -6q-24 0 -24 18q0 16 26 16z" />
    <glyph glyph-name="radical" unicode="&#x221a;" horiz-adv-x="606" 
d="M44 272q11 0 31 4q2 1 23 12q18 10 30 10q8 0 14 -4q12 -9 20 -47q7 -55 26 -188q12 -75 29 -145q20 -88 30 -88q9 0 10 9q2 15 3 29q14 121 51 409q47 339 100 414q15 22 44 24q9 0 44 -10q25 -6 70 -17q9 -2 9 -11q0 -11 -9.5 -22t-20.5 -8q-16 10 -46 23q-2 1 -21 9
q-11 6 -20 6q-5 0 -10 -2q-21 -6 -32 -32q-39 -89 -94 -489q-4 -31 -20 -184q-11 -99 -22 -137q-5 -21 -10 -43q-6 -18 -22 -18q-15 0 -23 18l-12 30q-34 61 -56 228q-7 66 -21 170q-4 21 -13 31q-5 6 -13 6q-7 0 -29.5 -14t-36.5 -11t-17 4q-10 3 -11 7q-4 14 25 27z" />
    <glyph glyph-name="approxequal" unicode="&#x2248;" horiz-adv-x="410" 
d="M322 316q6 9 13.5 19.5t20.5 10.5q5 0 10 -6t3 -14q-5 -22 -49 -48q-16 -7 -46 -21q-9 -5 -19 -5q-13 0 -33 11q-5 3 -30 26q-19 18 -34 18q-7 0 -46 -24q-1 0 -30 -20q-18 -12 -38 -12q-8 0 -11 11q-3 9 15 17q31 13 40 20q20 16 58 39q20 8 36 -7t62 -44q3 0 13.5 -2.5
t17.5 -1.5q16 3 47 33zM322 181q6 9 13.5 20t20.5 11q5 0 10 -6t3 -14q-5 -23 -49 -49q-16 -7 -46 -21q-9 -5 -19 -5q-13 0 -33 11q-5 3 -30 27q-19 18 -34 18q-7 0 -46 -25q-1 0 -30 -20q-18 -12 -38 -12q-8 0 -11 11q-3 9 15 17q31 13 40 20q20 16 58 39q20 8 36 -6.5
t62 -43.5q3 0 13.5 -3t17.5 -2q16 3 47 33z" />
    <glyph glyph-name="approxequal" unicode="&#x22f2;" horiz-adv-x="410" 
d="M322 316q6 9 13.5 19.5t20.5 10.5q5 0 10 -6t3 -14q-5 -22 -49 -48q-16 -7 -46 -21q-9 -5 -19 -5q-13 0 -33 11q-5 3 -30 26q-19 18 -34 18q-7 0 -46 -24q-1 0 -30 -20q-18 -12 -38 -12q-8 0 -11 11q-3 9 15 17q31 13 40 20q20 16 58 39q20 8 36 -7t62 -44q3 0 13.5 -2.5
t17.5 -1.5q16 3 47 33zM322 181q6 9 13.5 20t20.5 11q5 0 10 -6t3 -14q-5 -23 -49 -49q-16 -7 -46 -21q-9 -5 -19 -5q-13 0 -33 11q-5 3 -30 27q-19 18 -34 18q-7 0 -46 -25q-1 0 -30 -20q-18 -12 -38 -12q-8 0 -11 11q-3 9 15 17q31 13 40 20q20 16 58 39q20 8 36 -6.5
t62 -43.5q3 0 13.5 -3t17.5 -2q16 3 47 33z" />
    <glyph glyph-name="Delta" unicode="&#x394;" horiz-adv-x="448" 
d="M36 56q28 97 75 276q16 75 49 176q10 39 38 115q6 23 12 47t24 21q15 -3 18.5 -23t6.5 -39q8 -21 16 -62.5t13 -58.5q20 -54 38 -136q27 -124 29 -132q7 -40 28 -121q11 -21 25 -67q1 -6 5.5 -17t4.5 -17t-3 -11q-7 -10 -22 -9l-29 2q-10 -1 -130 0q-61 -3 -160 0
q-2 0 -24 -1q-14 -1 -20 5.5t-6 14.5q0 6 5 17q6 15 7 20zM81 35q47 0 64 -1q130 -8 212 5q14 2 14 11q0 13 -15 63q-19 60 -22 74q-15 75 -29 149q-17 87 -38 143q-5 13 -13 60q-8 39 -21 65l-2 31q-14 -12 -91 -303q-26 -95 -73 -277q-4 -18 -4 -12q0 -8 18 -8z" />
    <glyph glyph-name="Delta" unicode="&#x2206;" horiz-adv-x="448" 
d="M36 56q28 97 75 276q16 75 49 176q10 39 38 115q6 23 12 47t24 21q15 -3 18.5 -23t6.5 -39q8 -21 16 -62.5t13 -58.5q20 -54 38 -136q27 -124 29 -132q7 -40 28 -121q11 -21 25 -67q1 -6 5.5 -17t4.5 -17t-3 -11q-7 -10 -22 -9l-29 2q-10 -1 -130 0q-61 -3 -160 0
q-2 0 -24 -1q-14 -1 -20 5.5t-6 14.5q0 6 5 17q6 15 7 20zM81 35q47 0 64 -1q130 -8 212 5q14 2 14 11q0 13 -15 63q-19 60 -22 74q-15 75 -29 149q-17 87 -38 143q-5 13 -13 60q-8 39 -21 65l-2 31q-14 -12 -91 -303q-26 -95 -73 -277q-4 -18 -4 -12q0 -8 18 -8z" />
    <glyph glyph-name="nonbreakingspace" unicode="&#xa0;" horiz-adv-x="426" 
 />
    <glyph glyph-name="Agrave" unicode="&#xc0;" horiz-adv-x="528" 
d="M449 378q0 -14 -13 -14q-5 0 -24 -6q-11 -5 -11 -29q0 -53 49 -174.5t49 -152.5q0 -21 -14 -21q-12 0 -15 4t-7 26q-28 85 -71 215q-8 24 -22 86q-10 41 -16 44.5t-48 3.5h-83q-33 -1 -44 -9q-15 -11 -45 -134q-28 -110 -69 -226q-5 -15 -7 -19q-4 -7 -11 -8
q-20 -2 -20 18q0 4 4.5 11.5t5.5 10.5q58 179 90 299q8 28 6 34q-4 9 -21 8q-26 -2 -25 -2q-8 2 -8 17q0 13 9.5 17t27.5 4q22 -1 29 0q6 1 8 4q6 11 47 136q44 133 44 159q0 12 -8 22t-15 18q-2 9 -7 27q-3 8 4 18.5t15 10.5q13 0 26 -44q30 -105 50 -153q26 -63 29 -73
q24 -72 28 -83q7 -16 21 -29q6 -5 28 -1q19 3 22 3q15 0 12 -18zM193 394q-2 -9 10 -10q-16 1 22 1q66 0 94 8q7 1 24 5q-5 17 -17 51q-16 44 -65 142q-12 -27 -40 -93q-21 -53 -28 -104zM170 944q14 0 35 -20q31 -30 40 -35q2 -2 55 -31q29 -16 34 -29q4 -9 -1.5 -18
t-19.5 -10q-17 -1 -35 18q-24 26 -37 33q-9 5 -52 24q-25 11 -31 20q-10 14 -10 26q0 22 22 22z" />
    <glyph glyph-name="Atilde" unicode="&#xc3;" horiz-adv-x="530" 
d="M449 378q0 -14 -13 -14q-5 0 -24 -6q-11 -5 -11 -29q0 -53 49 -174.5t49 -152.5q0 -21 -14 -21q-12 0 -15 4t-7 26q-28 85 -71 215q-8 24 -22 86q-10 41 -16 44.5t-48 3.5h-83q-33 -1 -44 -9q-15 -11 -45 -134q-28 -110 -69 -226q-5 -15 -7 -19q-4 -7 -11 -8
q-20 -2 -20 18q0 4 4.5 11.5t5.5 10.5q58 179 90 299q8 28 6 34q-4 9 -21 8q-26 -2 -25 -2q-8 2 -8 17q0 13 9.5 17t27.5 4q22 -1 29 0q6 1 8 4q6 11 47 136q44 133 44 159q0 12 -8 22t-15 18q-2 9 -7 27q-3 8 4 18.5t15 10.5q13 0 26 -44q30 -105 50 -153q26 -63 29 -73
q24 -72 28 -83q7 -16 21 -29q6 -5 28 -1q19 3 22 3q15 0 12 -18zM193 394q-2 -9 10 -10q-16 1 22 1q66 0 94 8q7 1 24 5q-5 17 -17 51q-16 44 -65 142q-12 -27 -40 -93q-21 -53 -28 -104zM356 885q2 1 7 12q4 8 8.5 12t12.5 4q7 0 14 -7.5t7 -11.5q0 -3 -14 -23
q-18 -25 -38.5 -46t-38.5 -26q-18 -7 -32 8q-6 6 -27 39q-15 24 -27 24q-2 0 -37 -31q-11 -14 -22 -27q-13 -16 -29 -17q-10 4 -19 12q0 14 17 27q28 23 33 29l26 34q18 20 39 20q5 0 23 -26q26 -36 31 -42q14 -17 22 -17q9 0 44 53z" />
    <glyph glyph-name="Otilde" unicode="&#xd5;" horiz-adv-x="650" 
d="M375 722q84 2 165 -85q77 -83 77 -157q0 -6 3 -81q3 -44 -3 -86q-7 -52 -41 -124q-41 -89 -95 -140q-65 -61 -154 -61q-62 0 -134 36q-31 14 -61 29q-51 26 -52 43q-1 8 -8 19q-50 67 -50 166q0 172 102.5 304.5t250.5 136.5zM55 337q0 -159 41 -200q25 -31 70 -62
q29 -20 95 -21q52 0 52 -22q0 -6 -13 -7.5t-14 -3.5q17 -2 52 -4q129 3 197 170q33 83 46 122q0 -2 4.5 38t4.5 75q0 75 -21 124q-27 64 -94 104q-63 37 -129 37q-92 0 -190 -121q-46 -56 -73.5 -119t-27.5 -110zM452 857q2 1 7 12q4 8 8.5 12t12.5 4q7 0 14 -7.5t7 -11.5
q0 -3 -14 -23q-18 -25 -38.5 -46t-38.5 -26q-18 -7 -32 8q-6 6 -27 39q-15 24 -27 24q-2 0 -37 -31q-11 -14 -22 -27q-13 -16 -29 -17q-10 4 -19 12q0 14 17 27q28 23 33 29l26 34q18 20 39 20q5 0 23 -26q26 -36 31 -42q14 -17 22 -17q9 0 44 53z" />
    <glyph glyph-name="divide" unicode="&#xf7;" horiz-adv-x="435" 
d="M349 287q43 0 40 -24q-2 -20 -28 -20q-6 0 -12 2q-2 3 -9 7q4 -1 -12 -1q-21 -2 -87 -18q-47 -11 -152 -11q-12 0 -23.5 6t-11.5 14q0 9 14.5 19t33.5 10q14 0 28 -5.5t27 -5.5q37 0 107.5 13.5t84.5 13.5zM234 168q7 0 18 -13q12 -17 12 -38q0 -17 -15 -31.5t-31 -14.5
q-8 0 -21.5 17t-13.5 31t18 31.5t33 17.5zM234 431q7 0 19 -15q13 -18 13 -39q0 -34 -46 -34q-8 0 -20.5 15t-12.5 29t16 29t31 15z" />
    <glyph glyph-name="lozenge" unicode="&#x25ca;" horiz-adv-x="347" 
d="M198 695q12 -29 54 -153q11 -39 34 -110q10 -20 23 -54q8 -10 17 -33q2 -12 -6 -36q-17 -46 -49 -147l-28 -96q-14 -51 -26 -73q-6 -15 -12 -28.5t-17 -16.5q-8 -2 -24 8q-11 7 -15 22.5t-7 29.5q-58 171 -105 281q-7 15 -13.5 28.5t-4.5 26.5q0 8 4 15q6 12 10 22
q20 52 63 170q14 48 46 141q17 43 30 42q10 0 26 -39zM63 345q1 -16 15 -45q14 -48 49 -148q16 -37 37 -99q16 -47 16 -45q16 26 51 123q17 69 47 172q8 23 8 38q1 10 -5 22q-8 18 -8 20q-42 141 -105 279q-6 -21 -32 -89q-46 -112 -62 -177q-11 -44 -11 -51z" />
    <glyph glyph-name="ydieresis" unicode="&#xff;" horiz-adv-x="446" 
d="M106 451q18 19 25 19q4 0 9 -2t7 -11t-1.5 -17t-14 -17t-14.5 -16q-38 -71 -38 -216q0 -39 3 -86q4 -80 115 -80q55 0 98 22q39 19 50 45q14 32 25 126q10 87 10 157q0 12 -4 31.5t-4 28.5q0 8 2 17q3 13 6 14.5t19 1.5q7 0 13.5 -9.5t6.5 -20.5q0 -33 -4.5 -120
t-4.5 -119q0 -39 -6.5 -55.5l-6.5 -16.5q0 -4 3 -12q0 -3 4 -9.5t4 -10.5q0 -7 -6 -16.5t-7 -13.5l-18 -136q-19 -92 -65 -142q-59 -66 -169 -66q-54 0 -92.5 34t-38.5 87q0 31 31 67q4 4 10 3q9 -3 6 -18q-2 -11 -8 -24t-6 -28q0 -40 28.5 -65t69.5 -25q119 0 165 90
q26 51 33.5 80t8.5 86q0 3 4 16t2 14q3 -2 -41 -25q-51 -27 -107 -27q-84 0 -129 45q-42 42 -42 113v74q5 86 15 129q16 63 54 104zM337 580q17 0 24.5 -4.5t7.5 -23.5q0 -38 -36 -38q-33 0 -33 28q0 38 37 38zM198 574q18 0 24 -3q9 -6 9 -24q0 -38 -37 -38q-32 0 -32 27
q0 38 36 38z" />
    <glyph glyph-name="Ydieresis" unicode="&#x178;" horiz-adv-x="555" 
d="M265 -23q-15 1 -19 14q-2 6 -2 32q0 14 1 27v22q2 209 2 211v22q-1 12 -7 19q-14 17 -47 77q-66 120 -67 121q-19 37 -62 104q-5 7 -28 30q-16 17 -16 22q0 28 14 28q9 0 21 -4.5t18.5 -15.5t12.5 -22q26 -35 52 -87q18 -37 36 -75q24 -45 98 -153l88 151q71 119 124 193
q17 23 31 23q17 0 17 -18q0 -12 -27 -46q-136 -176 -193 -305q-9 -15 -16.5 -30t-4.5 -44q4 -48 2 -128q-4 -117 -4 -101q0 -5 4.5 -17.5t4.5 -18.5t-3 -11q-12 -22 -30 -20zM345 809q17 0 24.5 -4.5t7.5 -23.5q0 -38 -36 -38q-33 0 -33 28q0 38 37 38zM206 803q18 0 24 -3
q9 -6 9 -24q0 -38 -37 -38q-32 0 -32 27q0 38 36 38z" />
    <glyph glyph-name="Acircumflex" unicode="&#xc2;" horiz-adv-x="531" 
d="M449 378q0 -14 -13 -14q-5 0 -24 -6q-11 -5 -11 -29q0 -53 49 -174.5t49 -152.5q0 -21 -14 -21q-12 0 -15 4t-7 26q-28 85 -71 215q-8 24 -22 86q-10 41 -16 44.5t-48 3.5h-83q-33 -1 -44 -9q-15 -11 -45 -134q-28 -110 -69 -226q-5 -15 -7 -19q-4 -7 -11 -8
q-20 -2 -20 18q0 4 4.5 11.5t5.5 10.5q58 179 90 299q8 28 6 34q-4 9 -21 8q-26 -2 -25 -2q-8 2 -8 17q0 13 9.5 17t27.5 4q22 -1 29 0q6 1 8 4q6 11 47 136q44 133 44 159q0 12 -8 22t-15 18q-2 9 -7 27q-3 8 4 18.5t15 10.5q13 0 26 -44q30 -105 50 -153q26 -63 29 -73
q24 -72 28 -83q7 -16 21 -29q6 -5 28 -1q19 3 22 3q15 0 12 -18zM193 394q-2 -9 10 -10q-16 1 22 1q66 0 94 8q7 1 24 5q-5 17 -17 51q-16 44 -65 142q-12 -27 -40 -93q-21 -53 -28 -104zM255 937q14 0 49.5 -40t42.5 -68q3 -9 -4 -18.5t-19 -9.5q-16 0 -29 34
q-16 43 -44 64q-20 -14 -45 -71q-22 -48 -39 -48q-19 0 -19 23q0 8 3 14q18 44 58 85q35 35 46 35z" />
    <glyph glyph-name="Ecircumflex" unicode="&#xca;" horiz-adv-x="421" 
d="M392 698q8 0 17.5 -6t7.5 -14q-1 -5 -16 -16q-11 -8 -23 -10q-9 -2 -24 0q-19 2 -27 2q-57 -9 -99 -16q-101 -16 -105 -24q-10 -16 -10 -194q0 -41 2 -45t27 -4h80l126 -12q35 -3 35 -19q0 -14 -15 -17q-6 -1 -22 1q-108 18 -167 18q-31 0 -47 -5q-7 -2 -19 -10
q-2 -2 -8 -20q-16 -50 -16 -222q0 -2 -4 -25q-2 -14 3 -20q11 -11 54 -11q51 0 105.5 4t49.5 4q7 0 28 4q17 4 31 1h16q10 -1 12 -7q6 -17 -22 -24h-19q-167 0 -189 -2q-52 -2 -67 -10q-10 -6 -13 -18t-11 -12q-12 0 -15 15.5t-17 21.5q-8 3 -8 9q0 14 25 20q9 2 21 223
q1 13 6 47q3 18 -1 27q-3 4 -12 9t-10.5 9.5t-1.5 7.5q0 7 12 14.5t15 16.5q5 16 5 87q0 -2 3 66q2 42 -3 63q-1 5 -10 9t-10 12q-1 7 22 26q2 1 1 17.5t9 23.5q11 7 19 -11q12 -27 25 -27q6 0 17.5 2t17.5 2q17 0 100.5 19.5t118.5 19.5zM237 883q14 0 49.5 -40t42.5 -68
q3 -9 -4 -18.5t-19 -9.5q-16 0 -29 34q-16 43 -44 64q-20 -14 -45 -71q-22 -48 -39 -48q-19 0 -19 23q0 8 3 14q18 44 58 85q35 35 46 35z" />
    <glyph glyph-name="Aacute" unicode="&#xc1;" horiz-adv-x="531" 
d="M449 378q0 -14 -13 -14q-5 0 -24 -6q-11 -5 -11 -29q0 -53 49 -174.5t49 -152.5q0 -21 -14 -21q-12 0 -15 4t-7 26q-28 85 -71 215q-8 24 -22 86q-10 41 -16 44.5t-48 3.5h-83q-33 -1 -44 -9q-15 -11 -45 -134q-28 -110 -69 -226q-5 -15 -7 -19q-4 -7 -11 -8
q-20 -2 -20 18q0 4 4.5 11.5t5.5 10.5q58 179 90 299q8 28 6 34q-4 9 -21 8q-26 -2 -25 -2q-8 2 -8 17q0 13 9.5 17t27.5 4q22 -1 29 0q6 1 8 4q6 11 47 136q44 133 44 159q0 12 -8 22t-15 18q-2 9 -7 27q-3 8 4 18.5t15 10.5q13 0 26 -44q30 -105 50 -153q26 -63 29 -73
q24 -72 28 -83q7 -16 21 -29q6 -5 28 -1q19 3 22 3q15 0 12 -18zM193 394q-2 -9 10 -10q-16 1 22 1q66 0 94 8q7 1 24 5q-5 17 -17 51q-16 44 -65 142q-12 -27 -40 -93q-21 -53 -28 -104zM311 882q-7 -10 -31.5 -22.5t-49.5 -25.5q-12 -7 -38 -31q-17 -17 -35 -15
q-26 1 -17 25q5 13 38 31l58 33q10 7 37 33q18 18 31 18q20 0 20 -16q0 -11 -13 -30z" />
    <glyph glyph-name="Edieresis" unicode="&#xcb;" horiz-adv-x="418" 
d="M392 698q8 0 17.5 -6t7.5 -14q-1 -5 -16 -16q-11 -8 -23 -10q-9 -2 -24 0q-19 2 -27 2q-57 -9 -99 -16q-101 -16 -105 -24q-10 -16 -10 -194q0 -41 2 -45t27 -4h80l126 -12q35 -3 35 -19q0 -14 -15 -17q-6 -1 -22 1q-108 18 -167 18q-31 0 -47 -5q-7 -2 -19 -10
q-2 -2 -8 -20q-16 -50 -16 -222q0 -2 -4 -25q-2 -14 3 -20q11 -11 54 -11q51 0 105.5 4t49.5 4q7 0 28 4q17 4 31 1h16q10 -1 12 -7q6 -17 -22 -24h-19q-167 0 -189 -2q-52 -2 -67 -10q-10 -6 -13 -18t-11 -12q-12 0 -15 15.5t-17 21.5q-8 3 -8 9q0 14 25 20q9 2 21 223
q1 13 6 47q3 18 -1 27q-3 4 -12 9t-10.5 9.5t-1.5 7.5q0 7 12 14.5t15 16.5q5 16 5 87q0 -2 3 66q2 42 -3 63q-1 5 -10 9t-10 12q-1 7 22 26q2 1 1 17.5t9 23.5q11 7 19 -11q12 -27 25 -27q6 0 17.5 2t17.5 2q17 0 100.5 19.5t118.5 19.5zM307 801q17 0 24.5 -4.5t7.5 -23.5
q0 -38 -36 -38q-33 0 -33 28q0 38 37 38zM168 795q18 0 24 -3q9 -6 9 -24q0 -38 -37 -38q-32 0 -32 27q0 38 36 38z" />
    <glyph glyph-name="Egrave" unicode="&#xc8;" horiz-adv-x="418" 
d="M392 698q8 0 17.5 -6t7.5 -14q-1 -5 -16 -16q-11 -8 -23 -10q-9 -2 -24 0q-19 2 -27 2q-57 -9 -99 -16q-101 -16 -105 -24q-10 -16 -10 -194q0 -41 2 -45t27 -4h80l126 -12q35 -3 35 -19q0 -14 -15 -17q-6 -1 -22 1q-108 18 -167 18q-31 0 -47 -5q-7 -2 -19 -10
q-2 -2 -8 -20q-16 -50 -16 -222q0 -2 -4 -25q-2 -14 3 -20q11 -11 54 -11q51 0 105.5 4t49.5 4q7 0 28 4q17 4 31 1h16q10 -1 12 -7q6 -17 -22 -24h-19q-167 0 -189 -2q-52 -2 -67 -10q-10 -6 -13 -18t-11 -12q-12 0 -15 15.5t-17 21.5q-8 3 -8 9q0 14 25 20q9 2 21 223
q1 13 6 47q3 18 -1 27q-3 4 -12 9t-10.5 9.5t-1.5 7.5q0 7 12 14.5t15 16.5q5 16 5 87q0 -2 3 66q2 42 -3 63q-1 5 -10 9t-10 12q-1 7 22 26q2 1 1 17.5t9 23.5q11 7 19 -11q12 -27 25 -27q6 0 17.5 2t17.5 2q17 0 100.5 19.5t118.5 19.5zM168 871q14 0 35 -20
q31 -30 40 -35q2 -2 55 -31q29 -16 34 -29q4 -9 -1.5 -18t-19.5 -10q-17 -1 -35 18q-24 26 -37 33q-9 5 -52 24q-25 11 -31 20q-10 14 -10 26q0 22 22 22z" />
    <glyph glyph-name="Iacute" unicode="&#xcd;" horiz-adv-x="364" 
d="M201 714q4 0 13 -7t14 -7.5t77 -4.5q42 -1 42 -12q0 -4 -4 -8q-9 -13 -16.5 -15t-37.5 -2q-2 0 -28.5 4t-38.5 4q-13 -67 -13 -172q0 -14 3 -119q2 -86 1 -158q1 -106 -4 -130q-11 -62 15 -64q41 10 68 10q31 0 31 -15q0 -25 -26 -25q-8 0 -26.5 3t-26.5 3
q-14 0 -30.5 -15t-30.5 -12q-7 1 -16.5 8.5t-14.5 7.5t-31 -7.5t-55.5 -7.5t-22.5 -1q-11 1 -15 9q-1 3 -1 6q0 20 42 24q29 -1 58 -1q33 0 44 13q10 266 10 398q0 41 -1 64q0 51 -1 157q3 9 0 25q-3 4 -6 4q-2 0 -11.5 -5t-18.5 -5q-22 0 -48 -5t-30 -4q-36 5 -36 23
q0 13 32 16q35 -3 105 3q2 0 9.5 10t25.5 10zM289 842q-7 -10 -31.5 -22.5t-49.5 -25.5q-12 -7 -38 -31q-17 -17 -35 -15q-26 1 -17 25q5 13 38 31l58 33q10 7 37 33q18 18 31 18q20 0 20 -16q0 -11 -13 -30z" />
    <glyph glyph-name="Icircumflex" unicode="&#xce;" horiz-adv-x="364" 
d="M201 714q4 0 13 -7t14 -7.5t77 -4.5q42 -1 42 -12q0 -4 -4 -8q-9 -13 -16.5 -15t-37.5 -2q-2 0 -28.5 4t-38.5 4q-13 -67 -13 -172q0 -14 3 -119q2 -86 1 -158q1 -106 -4 -130q-11 -62 15 -64q41 10 68 10q31 0 31 -15q0 -25 -26 -25q-8 0 -26.5 3t-26.5 3
q-14 0 -30.5 -15t-30.5 -12q-7 1 -16.5 8.5t-14.5 7.5t-31 -7.5t-55.5 -7.5t-22.5 -1q-11 1 -15 9q-1 3 -1 6q0 20 42 24q29 -1 58 -1q33 0 44 13q10 266 10 398q0 41 -1 64q0 51 -1 157q3 9 0 25q-3 4 -6 4q-2 0 -11.5 -5t-18.5 -5q-22 0 -48 -5t-30 -4q-36 5 -36 23
q0 13 32 16q35 -3 105 3q2 0 9.5 10t25.5 10zM195 900q14 0 49.5 -40t42.5 -68q3 -9 -4 -18.5t-19 -9.5q-16 0 -29 34q-16 43 -44 64q-20 -14 -45 -71q-22 -48 -39 -48q-19 0 -19 23q0 8 3 14q18 44 58 85q35 35 46 35z" />
    <glyph glyph-name="Idieresis" unicode="&#xcf;" horiz-adv-x="364" 
d="M201 714q4 0 13 -7t14 -7.5t77 -4.5q42 -1 42 -12q0 -4 -4 -8q-9 -13 -16.5 -15t-37.5 -2q-2 0 -28.5 4t-38.5 4q-13 -67 -13 -172q0 -14 3 -119q2 -86 1 -158q1 -106 -4 -130q-11 -62 15 -64q41 10 68 10q31 0 31 -15q0 -25 -26 -25q-8 0 -26.5 3t-26.5 3
q-14 0 -30.5 -15t-30.5 -12q-7 1 -16.5 8.5t-14.5 7.5t-31 -7.5t-55.5 -7.5t-22.5 -1q-11 1 -15 9q-1 3 -1 6q0 20 42 24q29 -1 58 -1q33 0 44 13q10 266 10 398q0 41 -1 64q0 51 -1 157q3 9 0 25q-3 4 -6 4q-2 0 -11.5 -5t-18.5 -5q-22 0 -48 -5t-30 -4q-36 5 -36 23
q0 13 32 16q35 -3 105 3q2 0 9.5 10t25.5 10zM270 818q17 0 24.5 -4.5t7.5 -23.5q0 -38 -36 -38q-33 0 -33 28q0 38 37 38zM131 812q18 0 24 -3q9 -6 9 -24q0 -38 -37 -38q-32 0 -32 27q0 38 36 38z" />
    <glyph glyph-name="Igrave" unicode="&#xcc;" horiz-adv-x="364" 
d="M201 714q4 0 13 -7t14 -7.5t77 -4.5q42 -1 42 -12q0 -4 -4 -8q-9 -13 -16.5 -15t-37.5 -2q-2 0 -28.5 4t-38.5 4q-13 -67 -13 -172q0 -14 3 -119q2 -86 1 -158q1 -106 -4 -130q-11 -62 15 -64q41 10 68 10q31 0 31 -15q0 -25 -26 -25q-8 0 -26.5 3t-26.5 3
q-14 0 -30.5 -15t-30.5 -12q-7 1 -16.5 8.5t-14.5 7.5t-31 -7.5t-55.5 -7.5t-22.5 -1q-11 1 -15 9q-1 3 -1 6q0 20 42 24q29 -1 58 -1q33 0 44 13q10 266 10 398q0 41 -1 64q0 51 -1 157q3 9 0 25q-3 4 -6 4q-2 0 -11.5 -5t-18.5 -5q-22 0 -48 -5t-30 -4q-36 5 -36 23
q0 13 32 16q35 -3 105 3q2 0 9.5 10t25.5 10zM124 874q14 0 35 -20q31 -30 40 -35q2 -2 55 -31q29 -16 34 -29q4 -9 -1.5 -18t-19.5 -10q-17 -1 -35 18q-24 26 -37 33q-9 5 -52 24q-25 11 -31 20q-10 14 -10 26q0 22 22 22z" />
    <glyph glyph-name="Oacute" unicode="&#xd3;" horiz-adv-x="668" 
d="M384 722q84 2 165 -85q77 -83 77 -157q0 -6 3 -81q3 -44 -3 -86q-7 -52 -41 -124q-41 -89 -95 -140q-65 -61 -154 -61q-62 0 -134 36q-31 14 -61 29q-51 26 -52 43q-1 8 -8 19q-50 67 -50 166q0 172 102.5 304.5t250.5 136.5zM64 337q0 -159 41 -200q25 -31 70 -62
q29 -20 95 -21q52 0 52 -22q0 -6 -13 -7.5t-14 -3.5q17 -2 52 -4q129 3 197 170q33 83 46 122q0 -2 4.5 38t4.5 75q0 75 -21 124q-27 64 -94 104q-63 37 -129 37q-92 0 -190 -121q-46 -56 -73.5 -119t-27.5 -110zM435 846q-7 -10 -31.5 -22.5t-49.5 -25.5q-12 -7 -38 -31
q-17 -17 -35 -15q-26 1 -17 25q5 13 38 31l58 33q10 7 37 33q18 18 31 18q20 0 20 -16q0 -11 -13 -30z" />
    <glyph glyph-name="Ocircumflex" unicode="&#xd4;" horiz-adv-x="668" 
d="M384 722q84 2 165 -85q77 -83 77 -157q0 -6 3 -81q3 -44 -3 -86q-7 -52 -41 -124q-41 -89 -95 -140q-65 -61 -154 -61q-62 0 -134 36q-31 14 -61 29q-51 26 -52 43q-1 8 -8 19q-50 67 -50 166q0 172 102.5 304.5t250.5 136.5zM64 337q0 -159 41 -200q25 -31 70 -62
q29 -20 95 -21q52 0 52 -22q0 -6 -13 -7.5t-14 -3.5q17 -2 52 -4q129 3 197 170q33 83 46 122q0 -2 4.5 38t4.5 75q0 75 -21 124q-27 64 -94 104q-63 37 -129 37q-92 0 -190 -121q-46 -56 -73.5 -119t-27.5 -110zM364 904q14 0 49.5 -40t42.5 -68q3 -9 -4 -18.5t-19 -9.5
q-16 0 -29 34q-16 43 -44 64q-20 -14 -45 -71q-22 -48 -39 -48q-19 0 -19 23q0 8 3 14q18 44 58 85q35 35 46 35z" />
    <glyph glyph-name="apple" unicode="&#xf000;" horiz-adv-x="664" 
d="M356 592q27 0 59 -12q41 -15 51 -21q6 -4 21 -23q36 34 36 36q22 11 25 11q11 -5 11 -21q-14 -16 -48 -50q70 -58 70 -129q0 -22 -8 -43l-4 -8q18 0 32 -13q13 -5 26 -9q8 -5 6 -16q0 -17 -33 -9q-5 2 -19 9q-10 6 -22 6q-26 -53 -68 -95l28 -24q19 -17 19 -26
q0 -4 -5 -8q-4 0 -10.5 -1.5t-14.5 -1.5q-10 0 -25 20t-18 20q-62 -48 -127 -48q0 -4 1 -14t1 -15q0 -12 -7 -22.5t-16 -10.5q-16 0 -16 34q0 3 -1 13.5t-1 17.5q-14 0 -47 12q-36 12 -85 52q-38 -41 -53 -41q-16 0 -20 6q-2 3 -2 7q0 8 13.5 18.5t27.5 20.5q0 2 6 5t6 6
q-47 59 -47 128q0 12 1 24q-5 0 -15 1.5t-15 1.5q-35 0 -35 23q0 11 12 13q3 1 33 1q18 -3 29 -3l4 13q10 19 59 76q-15 15 -40 46q-5 6 0 16q4 10 11 10q8 0 22 -13q3 0 32 -35q58 51 121 62q0 8 1 25q2 46 22 46q17 0 17 -47q0 -2 -1 -11v-10zM340 166q44 2 103 42
q37 26 74 88q29 51 29 61q5 14 5 29q0 48 -37 83q-7 8 -22.5 22.5t-48.5 36.5q-5 0 -28 13t-26 13q-7 3 -38 3q-29 1 -34 0q-39 -10 -100 -53q-87 -62 -87 -146q0 -78 58 -135q30 -28 78 -46q34 -12 74 -11zM426 340q7 28 26 26q7 0 7 -8q0 -5 -4 -17l-6 -18
q-9 -41 -41.5 -64.5t-79.5 -23.5q-60 0 -83 18q-20 22 -39 43q-9 9 -17.5 25.5t-5.5 23.5q7 14 15 14q10 0 19 -19q38 -82 107 -80q83 2 102 80zM356 436q-2 6 3 17t16 11q9 0 16 -11t7 -18q0 -11 -7 -19.5t-15 -8.5q-14 0 -20 29zM261 436q-2 6 3 17t16 11q10 0 16.5 -11
t6.5 -18q0 -11 -7 -19.5t-15 -8.5q-14 0 -20 29z" />
    <glyph glyph-name="Ograve" unicode="&#xd2;" horiz-adv-x="668" 
d="M388 722q84 2 165 -85q77 -83 77 -157q0 -6 3 -81q3 -44 -3 -86q-7 -52 -41 -124q-41 -89 -95 -140q-65 -61 -154 -61q-62 0 -134 36q-31 14 -61 29q-51 26 -52 43q-1 8 -8 19q-50 67 -50 166q0 172 102.5 304.5t250.5 136.5zM68 337q0 -159 41 -200q25 -31 70 -62
q29 -20 95 -21q52 0 52 -22q0 -6 -13 -7.5t-14 -3.5q17 -2 52 -4q129 3 197 170q33 83 46 122q0 -2 4.5 38t4.5 75q0 75 -21 124q-27 64 -94 104q-63 37 -129 37q-92 0 -190 -121q-46 -56 -73.5 -119t-27.5 -110zM281 907q14 0 35 -20q31 -30 40 -35q2 -2 55 -31
q29 -16 34 -29q4 -9 -1.5 -18t-19.5 -10q-17 -1 -35 18q-24 26 -37 33q-9 5 -52 24q-25 11 -31 20q-10 14 -10 26q0 22 22 22z" />
    <glyph glyph-name="Uacute" unicode="&#xda;" horiz-adv-x="450" 
d="M140 716q25 0 25 -20q0 -6 -6 -28q-20 -67 -40 -135q-24 -81 -24 -112q-30 -107 -30 -252q0 -69 24 -107q27 -43 91 -63q23 -7 44 -7q74 0 117 88q28 57 34 118q4 45 4 149q0 31 -10 142q2 42 0 117q-6 72 -4 80q7 21 21 21q23 0 23 -39q0 -172 7 -350q5 -142 -37 -245
q-21 -52 -59 -85q-42 -34 -89 -34q-131 0 -184 94q-21 39 -21 120q0 34 5 74q2 31 10 96q23 92 48 217q10 41 28 131q4 30 23 30zM353 851q-7 -10 -31.5 -22.5t-49.5 -25.5q-12 -7 -38 -31q-17 -17 -35 -15q-26 1 -17 25q5 13 38 31l58 33q10 7 37 33q18 18 31 18
q20 0 20 -16q0 -11 -13 -30z" />
    <glyph glyph-name="Ucircumflex" unicode="&#xdb;" horiz-adv-x="450" 
d="M140 716q25 0 25 -20q0 -6 -6 -28q-20 -67 -40 -135q-24 -81 -24 -112q-30 -107 -30 -252q0 -69 24 -107q27 -43 91 -63q23 -7 44 -7q74 0 117 88q28 57 34 118q4 45 4 149q0 31 -10 142q2 42 0 117q-6 72 -4 80q7 21 21 21q23 0 23 -39q0 -172 7 -350q5 -142 -37 -245
q-21 -52 -59 -85q-42 -34 -89 -34q-131 0 -184 94q-21 39 -21 120q0 34 5 74q2 31 10 96q23 92 48 217q10 41 28 131q4 30 23 30zM282 915q14 0 49.5 -40t42.5 -68q3 -9 -4 -18.5t-19 -9.5q-16 0 -29 34q-16 43 -44 64q-20 -14 -45 -71q-22 -48 -39 -48q-19 0 -19 23
q0 8 3 14q18 44 58 85q35 35 46 35z" />
    <glyph glyph-name="Ugrave" unicode="&#xd9;" horiz-adv-x="450" 
d="M140 716q25 0 25 -20q0 -6 -6 -28q-20 -67 -40 -135q-24 -81 -24 -112q-30 -107 -30 -252q0 -69 24 -107q27 -43 91 -63q23 -7 44 -7q74 0 117 88q28 57 34 118q4 45 4 149q0 31 -10 142q2 42 0 117q-6 72 -4 80q7 21 21 21q23 0 23 -39q0 -172 7 -350q5 -142 -37 -245
q-21 -52 -59 -85q-42 -34 -89 -34q-131 0 -184 94q-21 39 -21 120q0 34 5 74q2 31 10 96q23 92 48 217q10 41 28 131q4 30 23 30zM175 896q14 0 35 -20q31 -30 40 -35q2 -2 55 -31q29 -16 34 -29q4 -9 -1.5 -18t-19.5 -10q-17 -1 -35 18q-24 26 -37 33q-9 5 -52 24
q-25 11 -31 20q-10 14 -10 26q0 22 22 22z" />
    </font>
</defs>
</svg>
